%TF.GenerationSoftware,KiCad,Pcbnew,(6.0.0)*%
%TF.CreationDate,2022-01-24T17:52:30-05:00*%
%TF.ProjectId,function generator,66756e63-7469-46f6-9e20-67656e657261,rev?*%
%TF.SameCoordinates,Original*%
%TF.FileFunction,Paste,Top*%
%TF.FilePolarity,Positive*%
%FSLAX46Y46*%
G04 Gerber Fmt 4.6, Leading zero omitted, Abs format (unit mm)*
G04 Created by KiCad (PCBNEW (6.0.0)) date 2022-01-24 17:52:30*
%MOMM*%
%LPD*%
G01*
G04 APERTURE LIST*
G04 Aperture macros list*
%AMRoundRect*
0 Rectangle with rounded corners*
0 $1 Rounding radius*
0 $2 $3 $4 $5 $6 $7 $8 $9 X,Y pos of 4 corners*
0 Add a 4 corners polygon primitive as box body*
4,1,4,$2,$3,$4,$5,$6,$7,$8,$9,$2,$3,0*
0 Add four circle primitives for the rounded corners*
1,1,$1+$1,$2,$3*
1,1,$1+$1,$4,$5*
1,1,$1+$1,$6,$7*
1,1,$1+$1,$8,$9*
0 Add four rect primitives between the rounded corners*
20,1,$1+$1,$2,$3,$4,$5,0*
20,1,$1+$1,$4,$5,$6,$7,0*
20,1,$1+$1,$6,$7,$8,$9,0*
20,1,$1+$1,$8,$9,$2,$3,0*%
G04 Aperture macros list end*
%ADD10RoundRect,0.200000X0.275000X-0.200000X0.275000X0.200000X-0.275000X0.200000X-0.275000X-0.200000X0*%
%ADD11RoundRect,0.200000X0.200000X0.275000X-0.200000X0.275000X-0.200000X-0.275000X0.200000X-0.275000X0*%
%ADD12RoundRect,0.200000X-0.200000X-0.275000X0.200000X-0.275000X0.200000X0.275000X-0.200000X0.275000X0*%
%ADD13RoundRect,0.200000X-0.275000X0.200000X-0.275000X-0.200000X0.275000X-0.200000X0.275000X0.200000X0*%
%ADD14RoundRect,0.225000X0.225000X0.250000X-0.225000X0.250000X-0.225000X-0.250000X0.225000X-0.250000X0*%
%ADD15R,2.000000X1.500000*%
%ADD16R,2.000000X3.800000*%
%ADD17RoundRect,0.225000X0.250000X-0.225000X0.250000X0.225000X-0.250000X0.225000X-0.250000X-0.225000X0*%
G04 APERTURE END LIST*
D10*
%TO.C,R13*%
X116332000Y-63309000D03*
X116332000Y-61659000D03*
%TD*%
D11*
%TO.C,R12*%
X112733000Y-58674000D03*
X111083000Y-58674000D03*
%TD*%
D10*
%TO.C,R15*%
X116840000Y-71691000D03*
X116840000Y-70041000D03*
%TD*%
D11*
%TO.C,R7*%
X69913000Y-55626000D03*
X68263000Y-55626000D03*
%TD*%
%TO.C,R5*%
X91249000Y-75438000D03*
X89599000Y-75438000D03*
%TD*%
D12*
%TO.C,R8*%
X64898000Y-55626000D03*
X66548000Y-55626000D03*
%TD*%
D10*
%TO.C,R2*%
X77216000Y-63055000D03*
X77216000Y-61405000D03*
%TD*%
D13*
%TO.C,R9*%
X62230000Y-50483000D03*
X62230000Y-52133000D03*
%TD*%
%TO.C,R4*%
X90678000Y-55055000D03*
X90678000Y-56705000D03*
%TD*%
D14*
%TO.C,C9*%
X69843000Y-70612000D03*
X68293000Y-70612000D03*
%TD*%
D12*
%TO.C,R3*%
X86805000Y-55118000D03*
X88455000Y-55118000D03*
%TD*%
D15*
%TO.C,U1*%
X106020000Y-36082000D03*
D16*
X99720000Y-33782000D03*
D15*
X106020000Y-33782000D03*
X106020000Y-31482000D03*
%TD*%
D10*
%TO.C,R1*%
X77724000Y-67881000D03*
X77724000Y-66231000D03*
%TD*%
D13*
%TO.C,R11*%
X58420000Y-48451000D03*
X58420000Y-50101000D03*
%TD*%
D10*
%TO.C,R10*%
X75184000Y-57213000D03*
X75184000Y-55563000D03*
%TD*%
D12*
%TO.C,R14*%
X116777000Y-65278000D03*
X118427000Y-65278000D03*
%TD*%
D13*
%TO.C,R6*%
X104902000Y-57595000D03*
X104902000Y-59245000D03*
%TD*%
D17*
%TO.C,C1*%
X93980000Y-89675000D03*
X93980000Y-88125000D03*
%TD*%
D11*
%TO.C,R16*%
X112585000Y-77216000D03*
X110935000Y-77216000D03*
%TD*%
M02*
