%TF.GenerationSoftware,KiCad,Pcbnew,(6.0.0)*%
%TF.CreationDate,2022-01-24T17:52:30-05:00*%
%TF.ProjectId,function generator,66756e63-7469-46f6-9e20-67656e657261,rev?*%
%TF.SameCoordinates,Original*%
%TF.FileFunction,Legend,Top*%
%TF.FilePolarity,Positive*%
%FSLAX46Y46*%
G04 Gerber Fmt 4.6, Leading zero omitted, Abs format (unit mm)*
G04 Created by KiCad (PCBNEW (6.0.0)) date 2022-01-24 17:52:30*
%MOMM*%
%LPD*%
G01*
G04 APERTURE LIST*
%ADD10C,0.300000*%
%ADD11C,0.150000*%
%ADD12C,0.120000*%
G04 APERTURE END LIST*
D10*
X45609714Y-55725142D02*
X45824000Y-55796571D01*
X46181142Y-55796571D01*
X46324000Y-55725142D01*
X46395428Y-55653714D01*
X46466857Y-55510857D01*
X46466857Y-55368000D01*
X46395428Y-55225142D01*
X46324000Y-55153714D01*
X46181142Y-55082285D01*
X45895428Y-55010857D01*
X45752571Y-54939428D01*
X45681142Y-54868000D01*
X45609714Y-54725142D01*
X45609714Y-54582285D01*
X45681142Y-54439428D01*
X45752571Y-54368000D01*
X45895428Y-54296571D01*
X46252571Y-54296571D01*
X46466857Y-54368000D01*
X47109714Y-55796571D02*
X47109714Y-54796571D01*
X47109714Y-54296571D02*
X47038285Y-54368000D01*
X47109714Y-54439428D01*
X47181142Y-54368000D01*
X47109714Y-54296571D01*
X47109714Y-54439428D01*
X47824000Y-54796571D02*
X47824000Y-55796571D01*
X47824000Y-54939428D02*
X47895428Y-54868000D01*
X48038285Y-54796571D01*
X48252571Y-54796571D01*
X48395428Y-54868000D01*
X48466857Y-55010857D01*
X48466857Y-55796571D01*
X50252571Y-54225142D02*
X48966857Y-56153714D01*
X50538285Y-54296571D02*
X51395428Y-54296571D01*
X50966857Y-55796571D02*
X50966857Y-54296571D01*
X51895428Y-55796571D02*
X51895428Y-54796571D01*
X51895428Y-55082285D02*
X51966857Y-54939428D01*
X52038285Y-54868000D01*
X52181142Y-54796571D01*
X52324000Y-54796571D01*
X52824000Y-55796571D02*
X52824000Y-54796571D01*
X52824000Y-54296571D02*
X52752571Y-54368000D01*
X52824000Y-54439428D01*
X52895428Y-54368000D01*
X52824000Y-54296571D01*
X52824000Y-54439428D01*
X54181142Y-55796571D02*
X54181142Y-55010857D01*
X54109714Y-54868000D01*
X53966857Y-54796571D01*
X53681142Y-54796571D01*
X53538285Y-54868000D01*
X54181142Y-55725142D02*
X54038285Y-55796571D01*
X53681142Y-55796571D01*
X53538285Y-55725142D01*
X53466857Y-55582285D01*
X53466857Y-55439428D01*
X53538285Y-55296571D01*
X53681142Y-55225142D01*
X54038285Y-55225142D01*
X54181142Y-55153714D01*
X54895428Y-54796571D02*
X54895428Y-55796571D01*
X54895428Y-54939428D02*
X54966857Y-54868000D01*
X55109714Y-54796571D01*
X55324000Y-54796571D01*
X55466857Y-54868000D01*
X55538285Y-55010857D01*
X55538285Y-55796571D01*
X56895428Y-54796571D02*
X56895428Y-56010857D01*
X56824000Y-56153714D01*
X56752571Y-56225142D01*
X56609714Y-56296571D01*
X56395428Y-56296571D01*
X56252571Y-56225142D01*
X56895428Y-55725142D02*
X56752571Y-55796571D01*
X56466857Y-55796571D01*
X56324000Y-55725142D01*
X56252571Y-55653714D01*
X56181142Y-55510857D01*
X56181142Y-55082285D01*
X56252571Y-54939428D01*
X56324000Y-54868000D01*
X56466857Y-54796571D01*
X56752571Y-54796571D01*
X56895428Y-54868000D01*
X57824000Y-55796571D02*
X57681142Y-55725142D01*
X57609714Y-55582285D01*
X57609714Y-54296571D01*
X58966857Y-55725142D02*
X58824000Y-55796571D01*
X58538285Y-55796571D01*
X58395428Y-55725142D01*
X58324000Y-55582285D01*
X58324000Y-55010857D01*
X58395428Y-54868000D01*
X58538285Y-54796571D01*
X58824000Y-54796571D01*
X58966857Y-54868000D01*
X59038285Y-55010857D01*
X59038285Y-55153714D01*
X58324000Y-55296571D01*
X93154571Y-29825142D02*
X94297428Y-29825142D01*
X93726000Y-30396571D02*
X93726000Y-29253714D01*
X40613142Y-74338571D02*
X39756000Y-74338571D01*
X40184571Y-74338571D02*
X40184571Y-72838571D01*
X40041714Y-73052857D01*
X39898857Y-73195714D01*
X39756000Y-73267142D01*
X41541714Y-72838571D02*
X41684571Y-72838571D01*
X41827428Y-72910000D01*
X41898857Y-72981428D01*
X41970285Y-73124285D01*
X42041714Y-73410000D01*
X42041714Y-73767142D01*
X41970285Y-74052857D01*
X41898857Y-74195714D01*
X41827428Y-74267142D01*
X41684571Y-74338571D01*
X41541714Y-74338571D01*
X41398857Y-74267142D01*
X41327428Y-74195714D01*
X41256000Y-74052857D01*
X41184571Y-73767142D01*
X41184571Y-73410000D01*
X41256000Y-73124285D01*
X41327428Y-72981428D01*
X41398857Y-72910000D01*
X41541714Y-72838571D01*
X42684571Y-74338571D02*
X42684571Y-72838571D01*
X42827428Y-73767142D02*
X43256000Y-74338571D01*
X43256000Y-73338571D02*
X42684571Y-73910000D01*
X43898857Y-74338571D02*
X43898857Y-72838571D01*
X43898857Y-73552857D02*
X44756000Y-73552857D01*
X44756000Y-74338571D02*
X44756000Y-72838571D01*
X45327428Y-73338571D02*
X46113142Y-73338571D01*
X45327428Y-74338571D01*
X46113142Y-74338571D01*
X47613142Y-73338571D02*
X48184571Y-73338571D01*
X47827428Y-72838571D02*
X47827428Y-74124285D01*
X47898857Y-74267142D01*
X48041714Y-74338571D01*
X48184571Y-74338571D01*
X48898857Y-74338571D02*
X48756000Y-74267142D01*
X48684571Y-74195714D01*
X48613142Y-74052857D01*
X48613142Y-73624285D01*
X48684571Y-73481428D01*
X48756000Y-73410000D01*
X48898857Y-73338571D01*
X49113142Y-73338571D01*
X49256000Y-73410000D01*
X49327428Y-73481428D01*
X49398857Y-73624285D01*
X49398857Y-74052857D01*
X49327428Y-74195714D01*
X49256000Y-74267142D01*
X49113142Y-74338571D01*
X48898857Y-74338571D01*
X51970285Y-74338571D02*
X51113142Y-74338571D01*
X51541714Y-74338571D02*
X51541714Y-72838571D01*
X51398857Y-73052857D01*
X51256000Y-73195714D01*
X51113142Y-73267142D01*
X52613142Y-74338571D02*
X52613142Y-72838571D01*
X53113142Y-73910000D01*
X53613142Y-72838571D01*
X53613142Y-74338571D01*
X54327428Y-74338571D02*
X54327428Y-72838571D01*
X54970285Y-74338571D02*
X54970285Y-73552857D01*
X54898857Y-73410000D01*
X54756000Y-73338571D01*
X54541714Y-73338571D01*
X54398857Y-73410000D01*
X54327428Y-73481428D01*
X55541714Y-73338571D02*
X56327428Y-73338571D01*
X55541714Y-74338571D01*
X56327428Y-74338571D01*
X107100857Y-50899142D02*
X107243714Y-50970571D01*
X107529428Y-50970571D01*
X107672285Y-50899142D01*
X107743714Y-50756285D01*
X107743714Y-50684857D01*
X107672285Y-50542000D01*
X107529428Y-50470571D01*
X107315142Y-50470571D01*
X107172285Y-50399142D01*
X107100857Y-50256285D01*
X107100857Y-50184857D01*
X107172285Y-50042000D01*
X107315142Y-49970571D01*
X107529428Y-49970571D01*
X107672285Y-50042000D01*
X108386571Y-50970571D02*
X108386571Y-49970571D01*
X108386571Y-49470571D02*
X108315142Y-49542000D01*
X108386571Y-49613428D01*
X108458000Y-49542000D01*
X108386571Y-49470571D01*
X108386571Y-49613428D01*
X109100857Y-49970571D02*
X109100857Y-50970571D01*
X109100857Y-50113428D02*
X109172285Y-50042000D01*
X109315142Y-49970571D01*
X109529428Y-49970571D01*
X109672285Y-50042000D01*
X109743714Y-50184857D01*
X109743714Y-50970571D01*
X120193714Y-84594000D02*
X120050857Y-84522571D01*
X119836571Y-84522571D01*
X119622285Y-84594000D01*
X119479428Y-84736857D01*
X119408000Y-84879714D01*
X119336571Y-85165428D01*
X119336571Y-85379714D01*
X119408000Y-85665428D01*
X119479428Y-85808285D01*
X119622285Y-85951142D01*
X119836571Y-86022571D01*
X119979428Y-86022571D01*
X120193714Y-85951142D01*
X120265142Y-85879714D01*
X120265142Y-85379714D01*
X119979428Y-85379714D01*
X120908000Y-85022571D02*
X120908000Y-86022571D01*
X120908000Y-85165428D02*
X120979428Y-85094000D01*
X121122285Y-85022571D01*
X121336571Y-85022571D01*
X121479428Y-85094000D01*
X121550857Y-85236857D01*
X121550857Y-86022571D01*
X122908000Y-86022571D02*
X122908000Y-84522571D01*
X122908000Y-85951142D02*
X122765142Y-86022571D01*
X122479428Y-86022571D01*
X122336571Y-85951142D01*
X122265142Y-85879714D01*
X122193714Y-85736857D01*
X122193714Y-85308285D01*
X122265142Y-85165428D01*
X122336571Y-85094000D01*
X122479428Y-85022571D01*
X122765142Y-85022571D01*
X122908000Y-85094000D01*
X120702285Y-81657142D02*
X119416571Y-83585714D01*
X120988000Y-81728571D02*
X121845142Y-81728571D01*
X121416571Y-83228571D02*
X121416571Y-81728571D01*
X122130857Y-81728571D02*
X122988000Y-81728571D01*
X122559428Y-83228571D02*
X122559428Y-81728571D01*
X124202285Y-83228571D02*
X123488000Y-83228571D01*
X123488000Y-81728571D01*
X125773714Y-83157142D02*
X125988000Y-83228571D01*
X126345142Y-83228571D01*
X126488000Y-83157142D01*
X126559428Y-83085714D01*
X126630857Y-82942857D01*
X126630857Y-82800000D01*
X126559428Y-82657142D01*
X126488000Y-82585714D01*
X126345142Y-82514285D01*
X126059428Y-82442857D01*
X125916571Y-82371428D01*
X125845142Y-82300000D01*
X125773714Y-82157142D01*
X125773714Y-82014285D01*
X125845142Y-81871428D01*
X125916571Y-81800000D01*
X126059428Y-81728571D01*
X126416571Y-81728571D01*
X126630857Y-81800000D01*
X127916571Y-82228571D02*
X127916571Y-83728571D01*
X127916571Y-83157142D02*
X127773714Y-83228571D01*
X127488000Y-83228571D01*
X127345142Y-83157142D01*
X127273714Y-83085714D01*
X127202285Y-82942857D01*
X127202285Y-82514285D01*
X127273714Y-82371428D01*
X127345142Y-82300000D01*
X127488000Y-82228571D01*
X127773714Y-82228571D01*
X127916571Y-82300000D01*
X129273714Y-82228571D02*
X129273714Y-83228571D01*
X128630857Y-82228571D02*
X128630857Y-83014285D01*
X128702285Y-83157142D01*
X128845142Y-83228571D01*
X129059428Y-83228571D01*
X129202285Y-83157142D01*
X129273714Y-83085714D01*
X130630857Y-83228571D02*
X130630857Y-82442857D01*
X130559428Y-82300000D01*
X130416571Y-82228571D01*
X130130857Y-82228571D01*
X129988000Y-82300000D01*
X130630857Y-83157142D02*
X130488000Y-83228571D01*
X130130857Y-83228571D01*
X129988000Y-83157142D01*
X129916571Y-83014285D01*
X129916571Y-82871428D01*
X129988000Y-82728571D01*
X130130857Y-82657142D01*
X130488000Y-82657142D01*
X130630857Y-82585714D01*
X131345142Y-83228571D02*
X131345142Y-82228571D01*
X131345142Y-82514285D02*
X131416571Y-82371428D01*
X131488000Y-82300000D01*
X131630857Y-82228571D01*
X131773714Y-82228571D01*
X132845142Y-83157142D02*
X132702285Y-83228571D01*
X132416571Y-83228571D01*
X132273714Y-83157142D01*
X132202285Y-83014285D01*
X132202285Y-82442857D01*
X132273714Y-82300000D01*
X132416571Y-82228571D01*
X132702285Y-82228571D01*
X132845142Y-82300000D01*
X132916571Y-82442857D01*
X132916571Y-82585714D01*
X132202285Y-82728571D01*
X64198571Y-45573142D02*
X65341428Y-45573142D01*
X64770000Y-46144571D02*
X64770000Y-45001714D01*
X80708571Y-65131142D02*
X81851428Y-65131142D01*
X81280000Y-65702571D02*
X81280000Y-64559714D01*
X122733714Y-61470000D02*
X122590857Y-61398571D01*
X122376571Y-61398571D01*
X122162285Y-61470000D01*
X122019428Y-61612857D01*
X121948000Y-61755714D01*
X121876571Y-62041428D01*
X121876571Y-62255714D01*
X121948000Y-62541428D01*
X122019428Y-62684285D01*
X122162285Y-62827142D01*
X122376571Y-62898571D01*
X122519428Y-62898571D01*
X122733714Y-62827142D01*
X122805142Y-62755714D01*
X122805142Y-62255714D01*
X122519428Y-62255714D01*
X123448000Y-61898571D02*
X123448000Y-62898571D01*
X123448000Y-62041428D02*
X123519428Y-61970000D01*
X123662285Y-61898571D01*
X123876571Y-61898571D01*
X124019428Y-61970000D01*
X124090857Y-62112857D01*
X124090857Y-62898571D01*
X125448000Y-62898571D02*
X125448000Y-61398571D01*
X125448000Y-62827142D02*
X125305142Y-62898571D01*
X125019428Y-62898571D01*
X124876571Y-62827142D01*
X124805142Y-62755714D01*
X124733714Y-62612857D01*
X124733714Y-62184285D01*
X124805142Y-62041428D01*
X124876571Y-61970000D01*
X125019428Y-61898571D01*
X125305142Y-61898571D01*
X125448000Y-61970000D01*
X64452571Y-65893142D02*
X65595428Y-65893142D01*
X65024000Y-66464571D02*
X65024000Y-65321714D01*
X56439714Y-57416000D02*
X56296857Y-57344571D01*
X56082571Y-57344571D01*
X55868285Y-57416000D01*
X55725428Y-57558857D01*
X55654000Y-57701714D01*
X55582571Y-57987428D01*
X55582571Y-58201714D01*
X55654000Y-58487428D01*
X55725428Y-58630285D01*
X55868285Y-58773142D01*
X56082571Y-58844571D01*
X56225428Y-58844571D01*
X56439714Y-58773142D01*
X56511142Y-58701714D01*
X56511142Y-58201714D01*
X56225428Y-58201714D01*
X57154000Y-57844571D02*
X57154000Y-58844571D01*
X57154000Y-57987428D02*
X57225428Y-57916000D01*
X57368285Y-57844571D01*
X57582571Y-57844571D01*
X57725428Y-57916000D01*
X57796857Y-58058857D01*
X57796857Y-58844571D01*
X59154000Y-58844571D02*
X59154000Y-57344571D01*
X59154000Y-58773142D02*
X59011142Y-58844571D01*
X58725428Y-58844571D01*
X58582571Y-58773142D01*
X58511142Y-58701714D01*
X58439714Y-58558857D01*
X58439714Y-58130285D01*
X58511142Y-57987428D01*
X58582571Y-57916000D01*
X58725428Y-57844571D01*
X59011142Y-57844571D01*
X59154000Y-57916000D01*
X71818571Y-61575142D02*
X72961428Y-61575142D01*
X72390000Y-62146571D02*
X72390000Y-61003714D01*
D11*
X54340952Y-31678571D02*
X54007619Y-31678571D01*
X54007619Y-32202380D02*
X54007619Y-31202380D01*
X54483809Y-31202380D01*
X55293333Y-31535714D02*
X55293333Y-32202380D01*
X54864761Y-31535714D02*
X54864761Y-32059523D01*
X54912380Y-32154761D01*
X55007619Y-32202380D01*
X55150476Y-32202380D01*
X55245714Y-32154761D01*
X55293333Y-32107142D01*
X55769523Y-31535714D02*
X55769523Y-32202380D01*
X55769523Y-31630952D02*
X55817142Y-31583333D01*
X55912380Y-31535714D01*
X56055238Y-31535714D01*
X56150476Y-31583333D01*
X56198095Y-31678571D01*
X56198095Y-32202380D01*
X57102857Y-32154761D02*
X57007619Y-32202380D01*
X56817142Y-32202380D01*
X56721904Y-32154761D01*
X56674285Y-32107142D01*
X56626666Y-32011904D01*
X56626666Y-31726190D01*
X56674285Y-31630952D01*
X56721904Y-31583333D01*
X56817142Y-31535714D01*
X57007619Y-31535714D01*
X57102857Y-31583333D01*
X57388571Y-31535714D02*
X57769523Y-31535714D01*
X57531428Y-31202380D02*
X57531428Y-32059523D01*
X57579047Y-32154761D01*
X57674285Y-32202380D01*
X57769523Y-32202380D01*
X58102857Y-32202380D02*
X58102857Y-31535714D01*
X58102857Y-31202380D02*
X58055238Y-31250000D01*
X58102857Y-31297619D01*
X58150476Y-31250000D01*
X58102857Y-31202380D01*
X58102857Y-31297619D01*
X58721904Y-32202380D02*
X58626666Y-32154761D01*
X58579047Y-32107142D01*
X58531428Y-32011904D01*
X58531428Y-31726190D01*
X58579047Y-31630952D01*
X58626666Y-31583333D01*
X58721904Y-31535714D01*
X58864761Y-31535714D01*
X58960000Y-31583333D01*
X59007619Y-31630952D01*
X59055238Y-31726190D01*
X59055238Y-32011904D01*
X59007619Y-32107142D01*
X58960000Y-32154761D01*
X58864761Y-32202380D01*
X58721904Y-32202380D01*
X59483809Y-31535714D02*
X59483809Y-32202380D01*
X59483809Y-31630952D02*
X59531428Y-31583333D01*
X59626666Y-31535714D01*
X59769523Y-31535714D01*
X59864761Y-31583333D01*
X59912380Y-31678571D01*
X59912380Y-32202380D01*
X61674285Y-31250000D02*
X61579047Y-31202380D01*
X61436190Y-31202380D01*
X61293333Y-31250000D01*
X61198095Y-31345238D01*
X61150476Y-31440476D01*
X61102857Y-31630952D01*
X61102857Y-31773809D01*
X61150476Y-31964285D01*
X61198095Y-32059523D01*
X61293333Y-32154761D01*
X61436190Y-32202380D01*
X61531428Y-32202380D01*
X61674285Y-32154761D01*
X61721904Y-32107142D01*
X61721904Y-31773809D01*
X61531428Y-31773809D01*
X62531428Y-32154761D02*
X62436190Y-32202380D01*
X62245714Y-32202380D01*
X62150476Y-32154761D01*
X62102857Y-32059523D01*
X62102857Y-31678571D01*
X62150476Y-31583333D01*
X62245714Y-31535714D01*
X62436190Y-31535714D01*
X62531428Y-31583333D01*
X62579047Y-31678571D01*
X62579047Y-31773809D01*
X62102857Y-31869047D01*
X63007619Y-31535714D02*
X63007619Y-32202380D01*
X63007619Y-31630952D02*
X63055238Y-31583333D01*
X63150476Y-31535714D01*
X63293333Y-31535714D01*
X63388571Y-31583333D01*
X63436190Y-31678571D01*
X63436190Y-32202380D01*
X64293333Y-32154761D02*
X64198095Y-32202380D01*
X64007619Y-32202380D01*
X63912380Y-32154761D01*
X63864761Y-32059523D01*
X63864761Y-31678571D01*
X63912380Y-31583333D01*
X64007619Y-31535714D01*
X64198095Y-31535714D01*
X64293333Y-31583333D01*
X64340952Y-31678571D01*
X64340952Y-31773809D01*
X63864761Y-31869047D01*
X64769523Y-32202380D02*
X64769523Y-31535714D01*
X64769523Y-31726190D02*
X64817142Y-31630952D01*
X64864761Y-31583333D01*
X64960000Y-31535714D01*
X65055238Y-31535714D01*
X65817142Y-32202380D02*
X65817142Y-31678571D01*
X65769523Y-31583333D01*
X65674285Y-31535714D01*
X65483809Y-31535714D01*
X65388571Y-31583333D01*
X65817142Y-32154761D02*
X65721904Y-32202380D01*
X65483809Y-32202380D01*
X65388571Y-32154761D01*
X65340952Y-32059523D01*
X65340952Y-31964285D01*
X65388571Y-31869047D01*
X65483809Y-31821428D01*
X65721904Y-31821428D01*
X65817142Y-31773809D01*
X66150476Y-31535714D02*
X66531428Y-31535714D01*
X66293333Y-31202380D02*
X66293333Y-32059523D01*
X66340952Y-32154761D01*
X66436190Y-32202380D01*
X66531428Y-32202380D01*
X67007619Y-32202380D02*
X66912380Y-32154761D01*
X66864761Y-32107142D01*
X66817142Y-32011904D01*
X66817142Y-31726190D01*
X66864761Y-31630952D01*
X66912380Y-31583333D01*
X67007619Y-31535714D01*
X67150476Y-31535714D01*
X67245714Y-31583333D01*
X67293333Y-31630952D01*
X67340952Y-31726190D01*
X67340952Y-32011904D01*
X67293333Y-32107142D01*
X67245714Y-32154761D01*
X67150476Y-32202380D01*
X67007619Y-32202380D01*
X67769523Y-32202380D02*
X67769523Y-31535714D01*
X67769523Y-31726190D02*
X67817142Y-31630952D01*
X67864761Y-31583333D01*
X67960000Y-31535714D01*
X68055238Y-31535714D01*
D10*
X75850857Y-29380571D02*
X74993714Y-29380571D01*
X75422285Y-29380571D02*
X75422285Y-27880571D01*
X75279428Y-28094857D01*
X75136571Y-28237714D01*
X74993714Y-28309142D01*
X76422285Y-28023428D02*
X76493714Y-27952000D01*
X76636571Y-27880571D01*
X76993714Y-27880571D01*
X77136571Y-27952000D01*
X77208000Y-28023428D01*
X77279428Y-28166285D01*
X77279428Y-28309142D01*
X77208000Y-28523428D01*
X76350857Y-29380571D01*
X77279428Y-29380571D01*
X77779428Y-28380571D02*
X78136571Y-29380571D01*
X78493714Y-28380571D01*
X121904571Y-60033142D02*
X122118857Y-60104571D01*
X122476000Y-60104571D01*
X122618857Y-60033142D01*
X122690285Y-59961714D01*
X122761714Y-59818857D01*
X122761714Y-59676000D01*
X122690285Y-59533142D01*
X122618857Y-59461714D01*
X122476000Y-59390285D01*
X122190285Y-59318857D01*
X122047428Y-59247428D01*
X121976000Y-59176000D01*
X121904571Y-59033142D01*
X121904571Y-58890285D01*
X121976000Y-58747428D01*
X122047428Y-58676000D01*
X122190285Y-58604571D01*
X122547428Y-58604571D01*
X122761714Y-58676000D01*
X124047428Y-59104571D02*
X124047428Y-60604571D01*
X124047428Y-60033142D02*
X123904571Y-60104571D01*
X123618857Y-60104571D01*
X123476000Y-60033142D01*
X123404571Y-59961714D01*
X123333142Y-59818857D01*
X123333142Y-59390285D01*
X123404571Y-59247428D01*
X123476000Y-59176000D01*
X123618857Y-59104571D01*
X123904571Y-59104571D01*
X124047428Y-59176000D01*
X125404571Y-59104571D02*
X125404571Y-60104571D01*
X124761714Y-59104571D02*
X124761714Y-59890285D01*
X124833142Y-60033142D01*
X124976000Y-60104571D01*
X125190285Y-60104571D01*
X125333142Y-60033142D01*
X125404571Y-59961714D01*
X126761714Y-60104571D02*
X126761714Y-59318857D01*
X126690285Y-59176000D01*
X126547428Y-59104571D01*
X126261714Y-59104571D01*
X126118857Y-59176000D01*
X126761714Y-60033142D02*
X126618857Y-60104571D01*
X126261714Y-60104571D01*
X126118857Y-60033142D01*
X126047428Y-59890285D01*
X126047428Y-59747428D01*
X126118857Y-59604571D01*
X126261714Y-59533142D01*
X126618857Y-59533142D01*
X126761714Y-59461714D01*
X127476000Y-60104571D02*
X127476000Y-59104571D01*
X127476000Y-59390285D02*
X127547428Y-59247428D01*
X127618857Y-59176000D01*
X127761714Y-59104571D01*
X127904571Y-59104571D01*
X128976000Y-60033142D02*
X128833142Y-60104571D01*
X128547428Y-60104571D01*
X128404571Y-60033142D01*
X128333142Y-59890285D01*
X128333142Y-59318857D01*
X128404571Y-59176000D01*
X128547428Y-59104571D01*
X128833142Y-59104571D01*
X128976000Y-59176000D01*
X129047428Y-59318857D01*
X129047428Y-59461714D01*
X128333142Y-59604571D01*
X119440285Y-74611571D02*
X120297428Y-74611571D01*
X119868857Y-76111571D02*
X119868857Y-74611571D01*
X120583142Y-74611571D02*
X121440285Y-74611571D01*
X121011714Y-76111571D02*
X121011714Y-74611571D01*
X122654571Y-76111571D02*
X121940285Y-76111571D01*
X121940285Y-74611571D01*
X124226000Y-76040142D02*
X124440285Y-76111571D01*
X124797428Y-76111571D01*
X124940285Y-76040142D01*
X125011714Y-75968714D01*
X125083142Y-75825857D01*
X125083142Y-75683000D01*
X125011714Y-75540142D01*
X124940285Y-75468714D01*
X124797428Y-75397285D01*
X124511714Y-75325857D01*
X124368857Y-75254428D01*
X124297428Y-75183000D01*
X124226000Y-75040142D01*
X124226000Y-74897285D01*
X124297428Y-74754428D01*
X124368857Y-74683000D01*
X124511714Y-74611571D01*
X124868857Y-74611571D01*
X125083142Y-74683000D01*
X126368857Y-75111571D02*
X126368857Y-76611571D01*
X126368857Y-76040142D02*
X126226000Y-76111571D01*
X125940285Y-76111571D01*
X125797428Y-76040142D01*
X125726000Y-75968714D01*
X125654571Y-75825857D01*
X125654571Y-75397285D01*
X125726000Y-75254428D01*
X125797428Y-75183000D01*
X125940285Y-75111571D01*
X126226000Y-75111571D01*
X126368857Y-75183000D01*
X127726000Y-75111571D02*
X127726000Y-76111571D01*
X127083142Y-75111571D02*
X127083142Y-75897285D01*
X127154571Y-76040142D01*
X127297428Y-76111571D01*
X127511714Y-76111571D01*
X127654571Y-76040142D01*
X127726000Y-75968714D01*
X129083142Y-76111571D02*
X129083142Y-75325857D01*
X129011714Y-75183000D01*
X128868857Y-75111571D01*
X128583142Y-75111571D01*
X128440285Y-75183000D01*
X129083142Y-76040142D02*
X128940285Y-76111571D01*
X128583142Y-76111571D01*
X128440285Y-76040142D01*
X128368857Y-75897285D01*
X128368857Y-75754428D01*
X128440285Y-75611571D01*
X128583142Y-75540142D01*
X128940285Y-75540142D01*
X129083142Y-75468714D01*
X129797428Y-76111571D02*
X129797428Y-75111571D01*
X129797428Y-75397285D02*
X129868857Y-75254428D01*
X129940285Y-75183000D01*
X130083142Y-75111571D01*
X130226000Y-75111571D01*
X131297428Y-76040142D02*
X131154571Y-76111571D01*
X130868857Y-76111571D01*
X130726000Y-76040142D01*
X130654571Y-75897285D01*
X130654571Y-75325857D01*
X130726000Y-75183000D01*
X130868857Y-75111571D01*
X131154571Y-75111571D01*
X131297428Y-75183000D01*
X131368857Y-75325857D01*
X131368857Y-75468714D01*
X130654571Y-75611571D01*
X112966571Y-32111142D02*
X114109428Y-32111142D01*
X113538000Y-32682571D02*
X113538000Y-31539714D01*
X39172571Y-71544571D02*
X38315428Y-71544571D01*
X38744000Y-71544571D02*
X38744000Y-70044571D01*
X38601142Y-70258857D01*
X38458285Y-70401714D01*
X38315428Y-70473142D01*
X40101142Y-70044571D02*
X40244000Y-70044571D01*
X40386857Y-70116000D01*
X40458285Y-70187428D01*
X40529714Y-70330285D01*
X40601142Y-70616000D01*
X40601142Y-70973142D01*
X40529714Y-71258857D01*
X40458285Y-71401714D01*
X40386857Y-71473142D01*
X40244000Y-71544571D01*
X40101142Y-71544571D01*
X39958285Y-71473142D01*
X39886857Y-71401714D01*
X39815428Y-71258857D01*
X39744000Y-70973142D01*
X39744000Y-70616000D01*
X39815428Y-70330285D01*
X39886857Y-70187428D01*
X39958285Y-70116000D01*
X40101142Y-70044571D01*
X41529714Y-70044571D02*
X41672571Y-70044571D01*
X41815428Y-70116000D01*
X41886857Y-70187428D01*
X41958285Y-70330285D01*
X42029714Y-70616000D01*
X42029714Y-70973142D01*
X41958285Y-71258857D01*
X41886857Y-71401714D01*
X41815428Y-71473142D01*
X41672571Y-71544571D01*
X41529714Y-71544571D01*
X41386857Y-71473142D01*
X41315428Y-71401714D01*
X41244000Y-71258857D01*
X41172571Y-70973142D01*
X41172571Y-70616000D01*
X41244000Y-70330285D01*
X41315428Y-70187428D01*
X41386857Y-70116000D01*
X41529714Y-70044571D01*
X42672571Y-71544571D02*
X42672571Y-70044571D01*
X42672571Y-70758857D02*
X43529714Y-70758857D01*
X43529714Y-71544571D02*
X43529714Y-70044571D01*
X44101142Y-70544571D02*
X44886857Y-70544571D01*
X44101142Y-71544571D01*
X44886857Y-71544571D01*
X46386857Y-70544571D02*
X46958285Y-70544571D01*
X46601142Y-70044571D02*
X46601142Y-71330285D01*
X46672571Y-71473142D01*
X46815428Y-71544571D01*
X46958285Y-71544571D01*
X47672571Y-71544571D02*
X47529714Y-71473142D01*
X47458285Y-71401714D01*
X47386857Y-71258857D01*
X47386857Y-70830285D01*
X47458285Y-70687428D01*
X47529714Y-70616000D01*
X47672571Y-70544571D01*
X47886857Y-70544571D01*
X48029714Y-70616000D01*
X48101142Y-70687428D01*
X48172571Y-70830285D01*
X48172571Y-71258857D01*
X48101142Y-71401714D01*
X48029714Y-71473142D01*
X47886857Y-71544571D01*
X47672571Y-71544571D01*
X50744000Y-71544571D02*
X49886857Y-71544571D01*
X50315428Y-71544571D02*
X50315428Y-70044571D01*
X50172571Y-70258857D01*
X50029714Y-70401714D01*
X49886857Y-70473142D01*
X51672571Y-70044571D02*
X51815428Y-70044571D01*
X51958285Y-70116000D01*
X52029714Y-70187428D01*
X52101142Y-70330285D01*
X52172571Y-70616000D01*
X52172571Y-70973142D01*
X52101142Y-71258857D01*
X52029714Y-71401714D01*
X51958285Y-71473142D01*
X51815428Y-71544571D01*
X51672571Y-71544571D01*
X51529714Y-71473142D01*
X51458285Y-71401714D01*
X51386857Y-71258857D01*
X51315428Y-70973142D01*
X51315428Y-70616000D01*
X51386857Y-70330285D01*
X51458285Y-70187428D01*
X51529714Y-70116000D01*
X51672571Y-70044571D01*
X52815428Y-71544571D02*
X52815428Y-70044571D01*
X52958285Y-70973142D02*
X53386857Y-71544571D01*
X53386857Y-70544571D02*
X52815428Y-71116000D01*
X54029714Y-71544571D02*
X54029714Y-70044571D01*
X54029714Y-70758857D02*
X54886857Y-70758857D01*
X54886857Y-71544571D02*
X54886857Y-70044571D01*
X55458285Y-70544571D02*
X56244000Y-70544571D01*
X55458285Y-71544571D01*
X56244000Y-71544571D01*
X120193714Y-77477000D02*
X120050857Y-77405571D01*
X119836571Y-77405571D01*
X119622285Y-77477000D01*
X119479428Y-77619857D01*
X119408000Y-77762714D01*
X119336571Y-78048428D01*
X119336571Y-78262714D01*
X119408000Y-78548428D01*
X119479428Y-78691285D01*
X119622285Y-78834142D01*
X119836571Y-78905571D01*
X119979428Y-78905571D01*
X120193714Y-78834142D01*
X120265142Y-78762714D01*
X120265142Y-78262714D01*
X119979428Y-78262714D01*
X120908000Y-77905571D02*
X120908000Y-78905571D01*
X120908000Y-78048428D02*
X120979428Y-77977000D01*
X121122285Y-77905571D01*
X121336571Y-77905571D01*
X121479428Y-77977000D01*
X121550857Y-78119857D01*
X121550857Y-78905571D01*
X122908000Y-78905571D02*
X122908000Y-77405571D01*
X122908000Y-78834142D02*
X122765142Y-78905571D01*
X122479428Y-78905571D01*
X122336571Y-78834142D01*
X122265142Y-78762714D01*
X122193714Y-78619857D01*
X122193714Y-78191285D01*
X122265142Y-78048428D01*
X122336571Y-77977000D01*
X122479428Y-77905571D01*
X122765142Y-77905571D01*
X122908000Y-77977000D01*
D11*
X54642857Y-28392380D02*
X54642857Y-27868571D01*
X54595238Y-27773333D01*
X54500000Y-27725714D01*
X54309523Y-27725714D01*
X54214285Y-27773333D01*
X54642857Y-28344761D02*
X54547619Y-28392380D01*
X54309523Y-28392380D01*
X54214285Y-28344761D01*
X54166666Y-28249523D01*
X54166666Y-28154285D01*
X54214285Y-28059047D01*
X54309523Y-28011428D01*
X54547619Y-28011428D01*
X54642857Y-27963809D01*
X55119047Y-28392380D02*
X55119047Y-27392380D01*
X55119047Y-27773333D02*
X55214285Y-27725714D01*
X55404761Y-27725714D01*
X55500000Y-27773333D01*
X55547619Y-27820952D01*
X55595238Y-27916190D01*
X55595238Y-28201904D01*
X55547619Y-28297142D01*
X55500000Y-28344761D01*
X55404761Y-28392380D01*
X55214285Y-28392380D01*
X55119047Y-28344761D01*
X55928571Y-27725714D02*
X56452380Y-27725714D01*
X55928571Y-28392380D01*
X56452380Y-28392380D01*
X56833333Y-28392380D02*
X56833333Y-27725714D01*
X56833333Y-27820952D02*
X56880952Y-27773333D01*
X56976190Y-27725714D01*
X57119047Y-27725714D01*
X57214285Y-27773333D01*
X57261904Y-27868571D01*
X57261904Y-28392380D01*
X57261904Y-27868571D02*
X57309523Y-27773333D01*
X57404761Y-27725714D01*
X57547619Y-27725714D01*
X57642857Y-27773333D01*
X57690476Y-27868571D01*
X57690476Y-28392380D01*
X58595238Y-28392380D02*
X58595238Y-27868571D01*
X58547619Y-27773333D01*
X58452380Y-27725714D01*
X58261904Y-27725714D01*
X58166666Y-27773333D01*
X58595238Y-28344761D02*
X58500000Y-28392380D01*
X58261904Y-28392380D01*
X58166666Y-28344761D01*
X58119047Y-28249523D01*
X58119047Y-28154285D01*
X58166666Y-28059047D01*
X58261904Y-28011428D01*
X58500000Y-28011428D01*
X58595238Y-27963809D01*
X59071428Y-27725714D02*
X59071428Y-28392380D01*
X59071428Y-27820952D02*
X59119047Y-27773333D01*
X59214285Y-27725714D01*
X59357142Y-27725714D01*
X59452380Y-27773333D01*
X59500000Y-27868571D01*
X59500000Y-28392380D01*
X59928571Y-27487619D02*
X59976190Y-27440000D01*
X60071428Y-27392380D01*
X60309523Y-27392380D01*
X60404761Y-27440000D01*
X60452380Y-27487619D01*
X60500000Y-27582857D01*
X60500000Y-27678095D01*
X60452380Y-27820952D01*
X59880952Y-28392380D01*
X60500000Y-28392380D01*
X60928571Y-28392380D02*
X60928571Y-27392380D01*
X61023809Y-28011428D02*
X61309523Y-28392380D01*
X61309523Y-27725714D02*
X60928571Y-28106666D01*
X61738095Y-28297142D02*
X61785714Y-28344761D01*
X61738095Y-28392380D01*
X61690476Y-28344761D01*
X61738095Y-28297142D01*
X61738095Y-28392380D01*
X62119047Y-27725714D02*
X62309523Y-28392380D01*
X62500000Y-27916190D01*
X62690476Y-28392380D01*
X62880952Y-27725714D01*
X63404761Y-28392380D02*
X63309523Y-28344761D01*
X63261904Y-28297142D01*
X63214285Y-28201904D01*
X63214285Y-27916190D01*
X63261904Y-27820952D01*
X63309523Y-27773333D01*
X63404761Y-27725714D01*
X63547619Y-27725714D01*
X63642857Y-27773333D01*
X63690476Y-27820952D01*
X63738095Y-27916190D01*
X63738095Y-28201904D01*
X63690476Y-28297142D01*
X63642857Y-28344761D01*
X63547619Y-28392380D01*
X63404761Y-28392380D01*
X64166666Y-28392380D02*
X64166666Y-27725714D01*
X64166666Y-27916190D02*
X64214285Y-27820952D01*
X64261904Y-27773333D01*
X64357142Y-27725714D01*
X64452380Y-27725714D01*
X65214285Y-28392380D02*
X65214285Y-27392380D01*
X65214285Y-28344761D02*
X65119047Y-28392380D01*
X64928571Y-28392380D01*
X64833333Y-28344761D01*
X64785714Y-28297142D01*
X64738095Y-28201904D01*
X64738095Y-27916190D01*
X64785714Y-27820952D01*
X64833333Y-27773333D01*
X64928571Y-27725714D01*
X65119047Y-27725714D01*
X65214285Y-27773333D01*
X65690476Y-27725714D02*
X65690476Y-28725714D01*
X65690476Y-27773333D02*
X65785714Y-27725714D01*
X65976190Y-27725714D01*
X66071428Y-27773333D01*
X66119047Y-27820952D01*
X66166666Y-27916190D01*
X66166666Y-28201904D01*
X66119047Y-28297142D01*
X66071428Y-28344761D01*
X65976190Y-28392380D01*
X65785714Y-28392380D01*
X65690476Y-28344761D01*
X66595238Y-28392380D02*
X66595238Y-27725714D01*
X66595238Y-27916190D02*
X66642857Y-27820952D01*
X66690476Y-27773333D01*
X66785714Y-27725714D01*
X66880952Y-27725714D01*
X67595238Y-28344761D02*
X67500000Y-28392380D01*
X67309523Y-28392380D01*
X67214285Y-28344761D01*
X67166666Y-28249523D01*
X67166666Y-27868571D01*
X67214285Y-27773333D01*
X67309523Y-27725714D01*
X67500000Y-27725714D01*
X67595238Y-27773333D01*
X67642857Y-27868571D01*
X67642857Y-27963809D01*
X67166666Y-28059047D01*
X68023809Y-28344761D02*
X68119047Y-28392380D01*
X68309523Y-28392380D01*
X68404761Y-28344761D01*
X68452380Y-28249523D01*
X68452380Y-28201904D01*
X68404761Y-28106666D01*
X68309523Y-28059047D01*
X68166666Y-28059047D01*
X68071428Y-28011428D01*
X68023809Y-27916190D01*
X68023809Y-27868571D01*
X68071428Y-27773333D01*
X68166666Y-27725714D01*
X68309523Y-27725714D01*
X68404761Y-27773333D01*
X68833333Y-28344761D02*
X68928571Y-28392380D01*
X69119047Y-28392380D01*
X69214285Y-28344761D01*
X69261904Y-28249523D01*
X69261904Y-28201904D01*
X69214285Y-28106666D01*
X69119047Y-28059047D01*
X68976190Y-28059047D01*
X68880952Y-28011428D01*
X68833333Y-27916190D01*
X68833333Y-27868571D01*
X68880952Y-27773333D01*
X68976190Y-27725714D01*
X69119047Y-27725714D01*
X69214285Y-27773333D01*
X69690476Y-28297142D02*
X69738095Y-28344761D01*
X69690476Y-28392380D01*
X69642857Y-28344761D01*
X69690476Y-28297142D01*
X69690476Y-28392380D01*
X70595238Y-28344761D02*
X70500000Y-28392380D01*
X70309523Y-28392380D01*
X70214285Y-28344761D01*
X70166666Y-28297142D01*
X70119047Y-28201904D01*
X70119047Y-27916190D01*
X70166666Y-27820952D01*
X70214285Y-27773333D01*
X70309523Y-27725714D01*
X70500000Y-27725714D01*
X70595238Y-27773333D01*
X71166666Y-28392380D02*
X71071428Y-28344761D01*
X71023809Y-28297142D01*
X70976190Y-28201904D01*
X70976190Y-27916190D01*
X71023809Y-27820952D01*
X71071428Y-27773333D01*
X71166666Y-27725714D01*
X71309523Y-27725714D01*
X71404761Y-27773333D01*
X71452380Y-27820952D01*
X71500000Y-27916190D01*
X71500000Y-28201904D01*
X71452380Y-28297142D01*
X71404761Y-28344761D01*
X71309523Y-28392380D01*
X71166666Y-28392380D01*
X71928571Y-28392380D02*
X71928571Y-27725714D01*
X71928571Y-27820952D02*
X71976190Y-27773333D01*
X72071428Y-27725714D01*
X72214285Y-27725714D01*
X72309523Y-27773333D01*
X72357142Y-27868571D01*
X72357142Y-28392380D01*
X72357142Y-27868571D02*
X72404761Y-27773333D01*
X72500000Y-27725714D01*
X72642857Y-27725714D01*
X72738095Y-27773333D01*
X72785714Y-27868571D01*
X72785714Y-28392380D01*
D10*
X97980571Y-80625142D02*
X99123428Y-80625142D01*
X98552000Y-81196571D02*
X98552000Y-80053714D01*
X107180285Y-46073142D02*
X107323142Y-46144571D01*
X107608857Y-46144571D01*
X107751714Y-46073142D01*
X107823142Y-45930285D01*
X107823142Y-45858857D01*
X107751714Y-45716000D01*
X107608857Y-45644571D01*
X107394571Y-45644571D01*
X107251714Y-45573142D01*
X107180285Y-45430285D01*
X107180285Y-45358857D01*
X107251714Y-45216000D01*
X107394571Y-45144571D01*
X107608857Y-45144571D01*
X107751714Y-45216000D01*
X109108857Y-46144571D02*
X109108857Y-45358857D01*
X109037428Y-45216000D01*
X108894571Y-45144571D01*
X108608857Y-45144571D01*
X108466000Y-45216000D01*
X109108857Y-46073142D02*
X108966000Y-46144571D01*
X108608857Y-46144571D01*
X108466000Y-46073142D01*
X108394571Y-45930285D01*
X108394571Y-45787428D01*
X108466000Y-45644571D01*
X108608857Y-45573142D01*
X108966000Y-45573142D01*
X109108857Y-45501714D01*
X109680285Y-45144571D02*
X109966000Y-46144571D01*
X110251714Y-45430285D01*
X110537428Y-46144571D01*
X110823142Y-45144571D01*
X44680857Y-69004571D02*
X43823714Y-69004571D01*
X44252285Y-69004571D02*
X44252285Y-67504571D01*
X44109428Y-67718857D01*
X43966571Y-67861714D01*
X43823714Y-67933142D01*
X46252285Y-68004571D02*
X46823714Y-68004571D01*
X46466571Y-67504571D02*
X46466571Y-68790285D01*
X46538000Y-68933142D01*
X46680857Y-69004571D01*
X46823714Y-69004571D01*
X47538000Y-69004571D02*
X47395142Y-68933142D01*
X47323714Y-68861714D01*
X47252285Y-68718857D01*
X47252285Y-68290285D01*
X47323714Y-68147428D01*
X47395142Y-68076000D01*
X47538000Y-68004571D01*
X47752285Y-68004571D01*
X47895142Y-68076000D01*
X47966571Y-68147428D01*
X48038000Y-68290285D01*
X48038000Y-68718857D01*
X47966571Y-68861714D01*
X47895142Y-68933142D01*
X47752285Y-69004571D01*
X47538000Y-69004571D01*
X50609428Y-69004571D02*
X49752285Y-69004571D01*
X50180857Y-69004571D02*
X50180857Y-67504571D01*
X50038000Y-67718857D01*
X49895142Y-67861714D01*
X49752285Y-67933142D01*
X51538000Y-67504571D02*
X51680857Y-67504571D01*
X51823714Y-67576000D01*
X51895142Y-67647428D01*
X51966571Y-67790285D01*
X52038000Y-68076000D01*
X52038000Y-68433142D01*
X51966571Y-68718857D01*
X51895142Y-68861714D01*
X51823714Y-68933142D01*
X51680857Y-69004571D01*
X51538000Y-69004571D01*
X51395142Y-68933142D01*
X51323714Y-68861714D01*
X51252285Y-68718857D01*
X51180857Y-68433142D01*
X51180857Y-68076000D01*
X51252285Y-67790285D01*
X51323714Y-67647428D01*
X51395142Y-67576000D01*
X51538000Y-67504571D01*
X52966571Y-67504571D02*
X53109428Y-67504571D01*
X53252285Y-67576000D01*
X53323714Y-67647428D01*
X53395142Y-67790285D01*
X53466571Y-68076000D01*
X53466571Y-68433142D01*
X53395142Y-68718857D01*
X53323714Y-68861714D01*
X53252285Y-68933142D01*
X53109428Y-69004571D01*
X52966571Y-69004571D01*
X52823714Y-68933142D01*
X52752285Y-68861714D01*
X52680857Y-68718857D01*
X52609428Y-68433142D01*
X52609428Y-68076000D01*
X52680857Y-67790285D01*
X52752285Y-67647428D01*
X52823714Y-67576000D01*
X52966571Y-67504571D01*
X54109428Y-69004571D02*
X54109428Y-67504571D01*
X54109428Y-68218857D02*
X54966571Y-68218857D01*
X54966571Y-69004571D02*
X54966571Y-67504571D01*
X55538000Y-68004571D02*
X56323714Y-68004571D01*
X55538000Y-69004571D01*
X56323714Y-69004571D01*
D11*
X72263333Y-30884761D02*
X72168095Y-30932380D01*
X71977619Y-30932380D01*
X71882380Y-30884761D01*
X71834761Y-30837142D01*
X71787142Y-30741904D01*
X71787142Y-30456190D01*
X71834761Y-30360952D01*
X71882380Y-30313333D01*
X71977619Y-30265714D01*
X72168095Y-30265714D01*
X72263333Y-30313333D01*
X73072857Y-30884761D02*
X72977619Y-30932380D01*
X72787142Y-30932380D01*
X72691904Y-30884761D01*
X72644285Y-30789523D01*
X72644285Y-30408571D01*
X72691904Y-30313333D01*
X72787142Y-30265714D01*
X72977619Y-30265714D01*
X73072857Y-30313333D01*
X73120476Y-30408571D01*
X73120476Y-30503809D01*
X72644285Y-30599047D01*
X73549047Y-30265714D02*
X73549047Y-30932380D01*
X73549047Y-30360952D02*
X73596666Y-30313333D01*
X73691904Y-30265714D01*
X73834761Y-30265714D01*
X73930000Y-30313333D01*
X73977619Y-30408571D01*
X73977619Y-30932380D01*
X74310952Y-30265714D02*
X74691904Y-30265714D01*
X74453809Y-29932380D02*
X74453809Y-30789523D01*
X74501428Y-30884761D01*
X74596666Y-30932380D01*
X74691904Y-30932380D01*
X75406190Y-30884761D02*
X75310952Y-30932380D01*
X75120476Y-30932380D01*
X75025238Y-30884761D01*
X74977619Y-30789523D01*
X74977619Y-30408571D01*
X75025238Y-30313333D01*
X75120476Y-30265714D01*
X75310952Y-30265714D01*
X75406190Y-30313333D01*
X75453809Y-30408571D01*
X75453809Y-30503809D01*
X74977619Y-30599047D01*
X75882380Y-30932380D02*
X75882380Y-30265714D01*
X75882380Y-30456190D02*
X75930000Y-30360952D01*
X75977619Y-30313333D01*
X76072857Y-30265714D01*
X76168095Y-30265714D01*
X77263333Y-30551428D02*
X78025238Y-30551428D01*
X77644285Y-30932380D02*
X77644285Y-30170476D01*
%TO.C,R13*%
X114673142Y-60650380D02*
X114339809Y-60174190D01*
X114101714Y-60650380D02*
X114101714Y-59650380D01*
X114482666Y-59650380D01*
X114577904Y-59698000D01*
X114625523Y-59745619D01*
X114673142Y-59840857D01*
X114673142Y-59983714D01*
X114625523Y-60078952D01*
X114577904Y-60126571D01*
X114482666Y-60174190D01*
X114101714Y-60174190D01*
X115625523Y-60650380D02*
X115054095Y-60650380D01*
X115339809Y-60650380D02*
X115339809Y-59650380D01*
X115244571Y-59793238D01*
X115149333Y-59888476D01*
X115054095Y-59936095D01*
X115958857Y-59650380D02*
X116577904Y-59650380D01*
X116244571Y-60031333D01*
X116387428Y-60031333D01*
X116482666Y-60078952D01*
X116530285Y-60126571D01*
X116577904Y-60221809D01*
X116577904Y-60459904D01*
X116530285Y-60555142D01*
X116482666Y-60602761D01*
X116387428Y-60650380D01*
X116101714Y-60650380D01*
X116006476Y-60602761D01*
X115958857Y-60555142D01*
X114165238Y-58221619D02*
X114212857Y-58174000D01*
X114308095Y-58126380D01*
X114546190Y-58126380D01*
X114641428Y-58174000D01*
X114689047Y-58221619D01*
X114736666Y-58316857D01*
X114736666Y-58412095D01*
X114689047Y-58554952D01*
X114117619Y-59126380D01*
X114736666Y-59126380D01*
X115165238Y-59031142D02*
X115212857Y-59078761D01*
X115165238Y-59126380D01*
X115117619Y-59078761D01*
X115165238Y-59031142D01*
X115165238Y-59126380D01*
X115593809Y-58221619D02*
X115641428Y-58174000D01*
X115736666Y-58126380D01*
X115974761Y-58126380D01*
X116070000Y-58174000D01*
X116117619Y-58221619D01*
X116165238Y-58316857D01*
X116165238Y-58412095D01*
X116117619Y-58554952D01*
X115546190Y-59126380D01*
X116165238Y-59126380D01*
X116593809Y-59126380D02*
X116593809Y-58126380D01*
X116689047Y-58745428D02*
X116974761Y-59126380D01*
X116974761Y-58459714D02*
X116593809Y-58840666D01*
%TO.C,R12*%
X111265142Y-60556380D02*
X110931809Y-60080190D01*
X110693714Y-60556380D02*
X110693714Y-59556380D01*
X111074666Y-59556380D01*
X111169904Y-59604000D01*
X111217523Y-59651619D01*
X111265142Y-59746857D01*
X111265142Y-59889714D01*
X111217523Y-59984952D01*
X111169904Y-60032571D01*
X111074666Y-60080190D01*
X110693714Y-60080190D01*
X112217523Y-60556380D02*
X111646095Y-60556380D01*
X111931809Y-60556380D02*
X111931809Y-59556380D01*
X111836571Y-59699238D01*
X111741333Y-59794476D01*
X111646095Y-59842095D01*
X112598476Y-59651619D02*
X112646095Y-59604000D01*
X112741333Y-59556380D01*
X112979428Y-59556380D01*
X113074666Y-59604000D01*
X113122285Y-59651619D01*
X113169904Y-59746857D01*
X113169904Y-59842095D01*
X113122285Y-59984952D01*
X112550857Y-60556380D01*
X113169904Y-60556380D01*
X110979428Y-57029714D02*
X110979428Y-57696380D01*
X110741333Y-56648761D02*
X110503238Y-57363047D01*
X111122285Y-57363047D01*
X111503238Y-57601142D02*
X111550857Y-57648761D01*
X111503238Y-57696380D01*
X111455619Y-57648761D01*
X111503238Y-57601142D01*
X111503238Y-57696380D01*
X111884190Y-56696380D02*
X112550857Y-56696380D01*
X112122285Y-57696380D01*
X112931809Y-57696380D02*
X112931809Y-56696380D01*
X113027047Y-57315428D02*
X113312761Y-57696380D01*
X113312761Y-57029714D02*
X112931809Y-57410666D01*
%TO.C,R15*%
X118483142Y-70048380D02*
X118149809Y-69572190D01*
X117911714Y-70048380D02*
X117911714Y-69048380D01*
X118292666Y-69048380D01*
X118387904Y-69096000D01*
X118435523Y-69143619D01*
X118483142Y-69238857D01*
X118483142Y-69381714D01*
X118435523Y-69476952D01*
X118387904Y-69524571D01*
X118292666Y-69572190D01*
X117911714Y-69572190D01*
X119435523Y-70048380D02*
X118864095Y-70048380D01*
X119149809Y-70048380D02*
X119149809Y-69048380D01*
X119054571Y-69191238D01*
X118959333Y-69286476D01*
X118864095Y-69334095D01*
X120340285Y-69048380D02*
X119864095Y-69048380D01*
X119816476Y-69524571D01*
X119864095Y-69476952D01*
X119959333Y-69429333D01*
X120197428Y-69429333D01*
X120292666Y-69476952D01*
X120340285Y-69524571D01*
X120387904Y-69619809D01*
X120387904Y-69857904D01*
X120340285Y-69953142D01*
X120292666Y-70000761D01*
X120197428Y-70048380D01*
X119959333Y-70048380D01*
X119864095Y-70000761D01*
X119816476Y-69953142D01*
X118530761Y-71826380D02*
X117959333Y-71826380D01*
X118245047Y-71826380D02*
X118245047Y-70826380D01*
X118149809Y-70969238D01*
X118054571Y-71064476D01*
X117959333Y-71112095D01*
X119149809Y-70826380D02*
X119245047Y-70826380D01*
X119340285Y-70874000D01*
X119387904Y-70921619D01*
X119435523Y-71016857D01*
X119483142Y-71207333D01*
X119483142Y-71445428D01*
X119435523Y-71635904D01*
X119387904Y-71731142D01*
X119340285Y-71778761D01*
X119245047Y-71826380D01*
X119149809Y-71826380D01*
X119054571Y-71778761D01*
X119006952Y-71731142D01*
X118959333Y-71635904D01*
X118911714Y-71445428D01*
X118911714Y-71207333D01*
X118959333Y-71016857D01*
X119006952Y-70921619D01*
X119054571Y-70874000D01*
X119149809Y-70826380D01*
X119911714Y-71826380D02*
X119911714Y-70826380D01*
X120006952Y-71445428D02*
X120292666Y-71826380D01*
X120292666Y-71159714D02*
X119911714Y-71540666D01*
%TO.C,C2*%
X96399142Y-32932666D02*
X96446761Y-32980285D01*
X96494380Y-33123142D01*
X96494380Y-33218380D01*
X96446761Y-33361238D01*
X96351523Y-33456476D01*
X96256285Y-33504095D01*
X96065809Y-33551714D01*
X95922952Y-33551714D01*
X95732476Y-33504095D01*
X95637238Y-33456476D01*
X95542000Y-33361238D01*
X95494380Y-33218380D01*
X95494380Y-33123142D01*
X95542000Y-32980285D01*
X95589619Y-32932666D01*
X95589619Y-32551714D02*
X95542000Y-32504095D01*
X95494380Y-32408857D01*
X95494380Y-32170761D01*
X95542000Y-32075523D01*
X95589619Y-32027904D01*
X95684857Y-31980285D01*
X95780095Y-31980285D01*
X95922952Y-32027904D01*
X96494380Y-32599333D01*
X96494380Y-31980285D01*
X90489619Y-34885047D02*
X90442000Y-34837428D01*
X90394380Y-34742190D01*
X90394380Y-34504095D01*
X90442000Y-34408857D01*
X90489619Y-34361238D01*
X90584857Y-34313619D01*
X90680095Y-34313619D01*
X90822952Y-34361238D01*
X91394380Y-34932666D01*
X91394380Y-34313619D01*
X90489619Y-33932666D02*
X90442000Y-33885047D01*
X90394380Y-33789809D01*
X90394380Y-33551714D01*
X90442000Y-33456476D01*
X90489619Y-33408857D01*
X90584857Y-33361238D01*
X90680095Y-33361238D01*
X90822952Y-33408857D01*
X91394380Y-33980285D01*
X91394380Y-33361238D01*
X90394380Y-32742190D02*
X90394380Y-32646952D01*
X90442000Y-32551714D01*
X90489619Y-32504095D01*
X90584857Y-32456476D01*
X90775333Y-32408857D01*
X91013428Y-32408857D01*
X91203904Y-32456476D01*
X91299142Y-32504095D01*
X91346761Y-32551714D01*
X91394380Y-32646952D01*
X91394380Y-32742190D01*
X91346761Y-32837428D01*
X91299142Y-32885047D01*
X91203904Y-32932666D01*
X91013428Y-32980285D01*
X90775333Y-32980285D01*
X90584857Y-32932666D01*
X90489619Y-32885047D01*
X90442000Y-32837428D01*
X90394380Y-32742190D01*
X90727714Y-31551714D02*
X91394380Y-31551714D01*
X90727714Y-31980285D02*
X91251523Y-31980285D01*
X91346761Y-31932666D01*
X91394380Y-31837428D01*
X91394380Y-31694571D01*
X91346761Y-31599333D01*
X91299142Y-31551714D01*
X90870571Y-30742190D02*
X90870571Y-31075523D01*
X91394380Y-31075523D02*
X90394380Y-31075523D01*
X90394380Y-30599333D01*
%TO.C,S1*%
X58933095Y-75871761D02*
X59075952Y-75919380D01*
X59314047Y-75919380D01*
X59409285Y-75871761D01*
X59456904Y-75824142D01*
X59504523Y-75728904D01*
X59504523Y-75633666D01*
X59456904Y-75538428D01*
X59409285Y-75490809D01*
X59314047Y-75443190D01*
X59123571Y-75395571D01*
X59028333Y-75347952D01*
X58980714Y-75300333D01*
X58933095Y-75205095D01*
X58933095Y-75109857D01*
X58980714Y-75014619D01*
X59028333Y-74967000D01*
X59123571Y-74919380D01*
X59361666Y-74919380D01*
X59504523Y-74967000D01*
X60456904Y-75919380D02*
X59885476Y-75919380D01*
X60171190Y-75919380D02*
X60171190Y-74919380D01*
X60075952Y-75062238D01*
X59980714Y-75157476D01*
X59885476Y-75205095D01*
%TO.C,Q3*%
X107748761Y-61761619D02*
X107653523Y-61714000D01*
X107558285Y-61618761D01*
X107415428Y-61475904D01*
X107320190Y-61428285D01*
X107224952Y-61428285D01*
X107272571Y-61666380D02*
X107177333Y-61618761D01*
X107082095Y-61523523D01*
X107034476Y-61333047D01*
X107034476Y-60999714D01*
X107082095Y-60809238D01*
X107177333Y-60714000D01*
X107272571Y-60666380D01*
X107463047Y-60666380D01*
X107558285Y-60714000D01*
X107653523Y-60809238D01*
X107701142Y-60999714D01*
X107701142Y-61333047D01*
X107653523Y-61523523D01*
X107558285Y-61618761D01*
X107463047Y-61666380D01*
X107272571Y-61666380D01*
X108034476Y-60666380D02*
X108653523Y-60666380D01*
X108320190Y-61047333D01*
X108463047Y-61047333D01*
X108558285Y-61094952D01*
X108605904Y-61142571D01*
X108653523Y-61237809D01*
X108653523Y-61475904D01*
X108605904Y-61571142D01*
X108558285Y-61618761D01*
X108463047Y-61666380D01*
X108177333Y-61666380D01*
X108082095Y-61618761D01*
X108034476Y-61571142D01*
X112827619Y-66214285D02*
X112780000Y-66166666D01*
X112732380Y-66071428D01*
X112732380Y-65833333D01*
X112780000Y-65738095D01*
X112827619Y-65690476D01*
X112922857Y-65642857D01*
X113018095Y-65642857D01*
X113160952Y-65690476D01*
X113732380Y-66261904D01*
X113732380Y-65642857D01*
X113732380Y-65214285D02*
X112732380Y-65214285D01*
X113732380Y-64642857D01*
X112732380Y-64642857D01*
X112732380Y-64261904D02*
X112732380Y-63642857D01*
X113113333Y-63976190D01*
X113113333Y-63833333D01*
X113160952Y-63738095D01*
X113208571Y-63690476D01*
X113303809Y-63642857D01*
X113541904Y-63642857D01*
X113637142Y-63690476D01*
X113684761Y-63738095D01*
X113732380Y-63833333D01*
X113732380Y-64119047D01*
X113684761Y-64214285D01*
X113637142Y-64261904D01*
X113732380Y-63166666D02*
X113732380Y-62976190D01*
X113684761Y-62880952D01*
X113637142Y-62833333D01*
X113494285Y-62738095D01*
X113303809Y-62690476D01*
X112922857Y-62690476D01*
X112827619Y-62738095D01*
X112780000Y-62785714D01*
X112732380Y-62880952D01*
X112732380Y-63071428D01*
X112780000Y-63166666D01*
X112827619Y-63214285D01*
X112922857Y-63261904D01*
X113160952Y-63261904D01*
X113256190Y-63214285D01*
X113303809Y-63166666D01*
X113351428Y-63071428D01*
X113351428Y-62880952D01*
X113303809Y-62785714D01*
X113256190Y-62738095D01*
X113160952Y-62690476D01*
X112732380Y-62071428D02*
X112732380Y-61976190D01*
X112780000Y-61880952D01*
X112827619Y-61833333D01*
X112922857Y-61785714D01*
X113113333Y-61738095D01*
X113351428Y-61738095D01*
X113541904Y-61785714D01*
X113637142Y-61833333D01*
X113684761Y-61880952D01*
X113732380Y-61976190D01*
X113732380Y-62071428D01*
X113684761Y-62166666D01*
X113637142Y-62214285D01*
X113541904Y-62261904D01*
X113351428Y-62309523D01*
X113113333Y-62309523D01*
X112922857Y-62261904D01*
X112827619Y-62214285D01*
X112780000Y-62166666D01*
X112732380Y-62071428D01*
X113065714Y-60880952D02*
X113732380Y-60880952D01*
X112684761Y-61119047D02*
X113399047Y-61357142D01*
X113399047Y-60738095D01*
%TO.C,R7*%
X68921333Y-54808380D02*
X68588000Y-54332190D01*
X68349904Y-54808380D02*
X68349904Y-53808380D01*
X68730857Y-53808380D01*
X68826095Y-53856000D01*
X68873714Y-53903619D01*
X68921333Y-53998857D01*
X68921333Y-54141714D01*
X68873714Y-54236952D01*
X68826095Y-54284571D01*
X68730857Y-54332190D01*
X68349904Y-54332190D01*
X69254666Y-53808380D02*
X69921333Y-53808380D01*
X69492761Y-54808380D01*
X67921333Y-56697619D02*
X67968952Y-56650000D01*
X68064190Y-56602380D01*
X68302285Y-56602380D01*
X68397523Y-56650000D01*
X68445142Y-56697619D01*
X68492761Y-56792857D01*
X68492761Y-56888095D01*
X68445142Y-57030952D01*
X67873714Y-57602380D01*
X68492761Y-57602380D01*
X68826095Y-56602380D02*
X69492761Y-56602380D01*
X69064190Y-57602380D01*
X69873714Y-57602380D02*
X69873714Y-56602380D01*
X69968952Y-57221428D02*
X70254666Y-57602380D01*
X70254666Y-56935714D02*
X69873714Y-57316666D01*
%TO.C,C7*%
X69429333Y-64375142D02*
X69381714Y-64422761D01*
X69238857Y-64470380D01*
X69143619Y-64470380D01*
X69000761Y-64422761D01*
X68905523Y-64327523D01*
X68857904Y-64232285D01*
X68810285Y-64041809D01*
X68810285Y-63898952D01*
X68857904Y-63708476D01*
X68905523Y-63613238D01*
X69000761Y-63518000D01*
X69143619Y-63470380D01*
X69238857Y-63470380D01*
X69381714Y-63518000D01*
X69429333Y-63565619D01*
X69762666Y-63470380D02*
X70429333Y-63470380D01*
X70000761Y-64470380D01*
X68048380Y-59370380D02*
X67476952Y-59370380D01*
X67762666Y-59370380D02*
X67762666Y-58370380D01*
X67667428Y-58513238D01*
X67572190Y-58608476D01*
X67476952Y-58656095D01*
X68667428Y-58370380D02*
X68762666Y-58370380D01*
X68857904Y-58418000D01*
X68905523Y-58465619D01*
X68953142Y-58560857D01*
X69000761Y-58751333D01*
X69000761Y-58989428D01*
X68953142Y-59179904D01*
X68905523Y-59275142D01*
X68857904Y-59322761D01*
X68762666Y-59370380D01*
X68667428Y-59370380D01*
X68572190Y-59322761D01*
X68524571Y-59275142D01*
X68476952Y-59179904D01*
X68429333Y-58989428D01*
X68429333Y-58751333D01*
X68476952Y-58560857D01*
X68524571Y-58465619D01*
X68572190Y-58418000D01*
X68667428Y-58370380D01*
X69619809Y-58370380D02*
X69715047Y-58370380D01*
X69810285Y-58418000D01*
X69857904Y-58465619D01*
X69905523Y-58560857D01*
X69953142Y-58751333D01*
X69953142Y-58989428D01*
X69905523Y-59179904D01*
X69857904Y-59275142D01*
X69810285Y-59322761D01*
X69715047Y-59370380D01*
X69619809Y-59370380D01*
X69524571Y-59322761D01*
X69476952Y-59275142D01*
X69429333Y-59179904D01*
X69381714Y-58989428D01*
X69381714Y-58751333D01*
X69429333Y-58560857D01*
X69476952Y-58465619D01*
X69524571Y-58418000D01*
X69619809Y-58370380D01*
X70810285Y-58703714D02*
X70810285Y-59370380D01*
X70381714Y-58703714D02*
X70381714Y-59227523D01*
X70429333Y-59322761D01*
X70524571Y-59370380D01*
X70667428Y-59370380D01*
X70762666Y-59322761D01*
X70810285Y-59275142D01*
X71619809Y-58846571D02*
X71286476Y-58846571D01*
X71286476Y-59370380D02*
X71286476Y-58370380D01*
X71762666Y-58370380D01*
%TO.C,R5*%
X90257333Y-77320380D02*
X89924000Y-76844190D01*
X89685904Y-77320380D02*
X89685904Y-76320380D01*
X90066857Y-76320380D01*
X90162095Y-76368000D01*
X90209714Y-76415619D01*
X90257333Y-76510857D01*
X90257333Y-76653714D01*
X90209714Y-76748952D01*
X90162095Y-76796571D01*
X90066857Y-76844190D01*
X89685904Y-76844190D01*
X91162095Y-76320380D02*
X90685904Y-76320380D01*
X90638285Y-76796571D01*
X90685904Y-76748952D01*
X90781142Y-76701333D01*
X91019238Y-76701333D01*
X91114476Y-76748952D01*
X91162095Y-76796571D01*
X91209714Y-76891809D01*
X91209714Y-77129904D01*
X91162095Y-77225142D01*
X91114476Y-77272761D01*
X91019238Y-77320380D01*
X90781142Y-77320380D01*
X90685904Y-77272761D01*
X90638285Y-77225142D01*
X90304952Y-74460380D02*
X89733523Y-74460380D01*
X90019238Y-74460380D02*
X90019238Y-73460380D01*
X89924000Y-73603238D01*
X89828761Y-73698476D01*
X89733523Y-73746095D01*
X90733523Y-74460380D02*
X90733523Y-73460380D01*
X90828761Y-74079428D02*
X91114476Y-74460380D01*
X91114476Y-73793714D02*
X90733523Y-74174666D01*
%TO.C,VR4*%
X117931476Y-43902380D02*
X118264809Y-44902380D01*
X118598142Y-43902380D01*
X119502904Y-44902380D02*
X119169571Y-44426190D01*
X118931476Y-44902380D02*
X118931476Y-43902380D01*
X119312428Y-43902380D01*
X119407666Y-43950000D01*
X119455285Y-43997619D01*
X119502904Y-44092857D01*
X119502904Y-44235714D01*
X119455285Y-44330952D01*
X119407666Y-44378571D01*
X119312428Y-44426190D01*
X118931476Y-44426190D01*
X120360047Y-44235714D02*
X120360047Y-44902380D01*
X120121952Y-43854761D02*
X119883857Y-44569047D01*
X120502904Y-44569047D01*
X112597857Y-41552761D02*
X112693095Y-41600380D01*
X112883571Y-41600380D01*
X112978809Y-41552761D01*
X113026428Y-41457523D01*
X113026428Y-41409904D01*
X112978809Y-41314666D01*
X112883571Y-41267047D01*
X112740714Y-41267047D01*
X112645476Y-41219428D01*
X112597857Y-41124190D01*
X112597857Y-41076571D01*
X112645476Y-40981333D01*
X112740714Y-40933714D01*
X112883571Y-40933714D01*
X112978809Y-40981333D01*
X113455000Y-41600380D02*
X113455000Y-40933714D01*
X113455000Y-40600380D02*
X113407380Y-40648000D01*
X113455000Y-40695619D01*
X113502619Y-40648000D01*
X113455000Y-40600380D01*
X113455000Y-40695619D01*
X113931190Y-40933714D02*
X113931190Y-41600380D01*
X113931190Y-41028952D02*
X113978809Y-40981333D01*
X114074047Y-40933714D01*
X114216904Y-40933714D01*
X114312142Y-40981333D01*
X114359761Y-41076571D01*
X114359761Y-41600380D01*
X116026428Y-41600380D02*
X116026428Y-41076571D01*
X115978809Y-40981333D01*
X115883571Y-40933714D01*
X115693095Y-40933714D01*
X115597857Y-40981333D01*
X116026428Y-41552761D02*
X115931190Y-41600380D01*
X115693095Y-41600380D01*
X115597857Y-41552761D01*
X115550238Y-41457523D01*
X115550238Y-41362285D01*
X115597857Y-41267047D01*
X115693095Y-41219428D01*
X115931190Y-41219428D01*
X116026428Y-41171809D01*
X116931190Y-41600380D02*
X116931190Y-40600380D01*
X116931190Y-41552761D02*
X116835952Y-41600380D01*
X116645476Y-41600380D01*
X116550238Y-41552761D01*
X116502619Y-41505142D01*
X116455000Y-41409904D01*
X116455000Y-41124190D01*
X116502619Y-41028952D01*
X116550238Y-40981333D01*
X116645476Y-40933714D01*
X116835952Y-40933714D01*
X116931190Y-40981333D01*
X117407380Y-40933714D02*
X117407380Y-41790857D01*
X117359761Y-41886095D01*
X117264523Y-41933714D01*
X117216904Y-41933714D01*
X117407380Y-40600380D02*
X117359761Y-40648000D01*
X117407380Y-40695619D01*
X117455000Y-40648000D01*
X117407380Y-40600380D01*
X117407380Y-40695619D01*
X118931190Y-41981333D02*
X118883571Y-41933714D01*
X118788333Y-41790857D01*
X118740714Y-41695619D01*
X118693095Y-41552761D01*
X118645476Y-41314666D01*
X118645476Y-41124190D01*
X118693095Y-40886095D01*
X118740714Y-40743238D01*
X118788333Y-40648000D01*
X118883571Y-40505142D01*
X118931190Y-40457523D01*
X119835952Y-41600380D02*
X119264523Y-41600380D01*
X119550238Y-41600380D02*
X119550238Y-40600380D01*
X119455000Y-40743238D01*
X119359761Y-40838476D01*
X119264523Y-40886095D01*
X120264523Y-41600380D02*
X120264523Y-40600380D01*
X120359761Y-41219428D02*
X120645476Y-41600380D01*
X120645476Y-40933714D02*
X120264523Y-41314666D01*
X120978809Y-41981333D02*
X121026428Y-41933714D01*
X121121666Y-41790857D01*
X121169285Y-41695619D01*
X121216904Y-41552761D01*
X121264523Y-41314666D01*
X121264523Y-41124190D01*
X121216904Y-40886095D01*
X121169285Y-40743238D01*
X121121666Y-40648000D01*
X121026428Y-40505142D01*
X120978809Y-40457523D01*
%TO.C,R8*%
X65556333Y-54648380D02*
X65223000Y-54172190D01*
X64984904Y-54648380D02*
X64984904Y-53648380D01*
X65365857Y-53648380D01*
X65461095Y-53696000D01*
X65508714Y-53743619D01*
X65556333Y-53838857D01*
X65556333Y-53981714D01*
X65508714Y-54076952D01*
X65461095Y-54124571D01*
X65365857Y-54172190D01*
X64984904Y-54172190D01*
X66127761Y-54076952D02*
X66032523Y-54029333D01*
X65984904Y-53981714D01*
X65937285Y-53886476D01*
X65937285Y-53838857D01*
X65984904Y-53743619D01*
X66032523Y-53696000D01*
X66127761Y-53648380D01*
X66318238Y-53648380D01*
X66413476Y-53696000D01*
X66461095Y-53743619D01*
X66508714Y-53838857D01*
X66508714Y-53886476D01*
X66461095Y-53981714D01*
X66413476Y-54029333D01*
X66318238Y-54076952D01*
X66127761Y-54076952D01*
X66032523Y-54124571D01*
X65984904Y-54172190D01*
X65937285Y-54267428D01*
X65937285Y-54457904D01*
X65984904Y-54553142D01*
X66032523Y-54600761D01*
X66127761Y-54648380D01*
X66318238Y-54648380D01*
X66413476Y-54600761D01*
X66461095Y-54553142D01*
X66508714Y-54457904D01*
X66508714Y-54267428D01*
X66461095Y-54172190D01*
X66413476Y-54124571D01*
X66318238Y-54076952D01*
X64318238Y-56603619D02*
X64365857Y-56556000D01*
X64461095Y-56508380D01*
X64699190Y-56508380D01*
X64794428Y-56556000D01*
X64842047Y-56603619D01*
X64889666Y-56698857D01*
X64889666Y-56794095D01*
X64842047Y-56936952D01*
X64270619Y-57508380D01*
X64889666Y-57508380D01*
X65318238Y-57413142D02*
X65365857Y-57460761D01*
X65318238Y-57508380D01*
X65270619Y-57460761D01*
X65318238Y-57413142D01*
X65318238Y-57508380D01*
X65746809Y-56603619D02*
X65794428Y-56556000D01*
X65889666Y-56508380D01*
X66127761Y-56508380D01*
X66223000Y-56556000D01*
X66270619Y-56603619D01*
X66318238Y-56698857D01*
X66318238Y-56794095D01*
X66270619Y-56936952D01*
X65699190Y-57508380D01*
X66318238Y-57508380D01*
X66746809Y-57508380D02*
X66746809Y-56508380D01*
X66842047Y-57127428D02*
X67127761Y-57508380D01*
X67127761Y-56841714D02*
X66746809Y-57222666D01*
%TO.C,C5*%
X64075333Y-74779142D02*
X64027714Y-74826761D01*
X63884857Y-74874380D01*
X63789619Y-74874380D01*
X63646761Y-74826761D01*
X63551523Y-74731523D01*
X63503904Y-74636285D01*
X63456285Y-74445809D01*
X63456285Y-74302952D01*
X63503904Y-74112476D01*
X63551523Y-74017238D01*
X63646761Y-73922000D01*
X63789619Y-73874380D01*
X63884857Y-73874380D01*
X64027714Y-73922000D01*
X64075333Y-73969619D01*
X64980095Y-73874380D02*
X64503904Y-73874380D01*
X64456285Y-74350571D01*
X64503904Y-74302952D01*
X64599142Y-74255333D01*
X64837238Y-74255333D01*
X64932476Y-74302952D01*
X64980095Y-74350571D01*
X65027714Y-74445809D01*
X65027714Y-74683904D01*
X64980095Y-74779142D01*
X64932476Y-74826761D01*
X64837238Y-74874380D01*
X64599142Y-74874380D01*
X64503904Y-74826761D01*
X64456285Y-74779142D01*
X70536761Y-73874380D02*
X70632000Y-73874380D01*
X70727238Y-73922000D01*
X70774857Y-73969619D01*
X70822476Y-74064857D01*
X70870095Y-74255333D01*
X70870095Y-74493428D01*
X70822476Y-74683904D01*
X70774857Y-74779142D01*
X70727238Y-74826761D01*
X70632000Y-74874380D01*
X70536761Y-74874380D01*
X70441523Y-74826761D01*
X70393904Y-74779142D01*
X70346285Y-74683904D01*
X70298666Y-74493428D01*
X70298666Y-74255333D01*
X70346285Y-74064857D01*
X70393904Y-73969619D01*
X70441523Y-73922000D01*
X70536761Y-73874380D01*
X71298666Y-74779142D02*
X71346285Y-74826761D01*
X71298666Y-74874380D01*
X71251047Y-74826761D01*
X71298666Y-74779142D01*
X71298666Y-74874380D01*
X71965333Y-73874380D02*
X72060571Y-73874380D01*
X72155809Y-73922000D01*
X72203428Y-73969619D01*
X72251047Y-74064857D01*
X72298666Y-74255333D01*
X72298666Y-74493428D01*
X72251047Y-74683904D01*
X72203428Y-74779142D01*
X72155809Y-74826761D01*
X72060571Y-74874380D01*
X71965333Y-74874380D01*
X71870095Y-74826761D01*
X71822476Y-74779142D01*
X71774857Y-74683904D01*
X71727238Y-74493428D01*
X71727238Y-74255333D01*
X71774857Y-74064857D01*
X71822476Y-73969619D01*
X71870095Y-73922000D01*
X71965333Y-73874380D01*
X72917714Y-73874380D02*
X73012952Y-73874380D01*
X73108190Y-73922000D01*
X73155809Y-73969619D01*
X73203428Y-74064857D01*
X73251047Y-74255333D01*
X73251047Y-74493428D01*
X73203428Y-74683904D01*
X73155809Y-74779142D01*
X73108190Y-74826761D01*
X73012952Y-74874380D01*
X72917714Y-74874380D01*
X72822476Y-74826761D01*
X72774857Y-74779142D01*
X72727238Y-74683904D01*
X72679619Y-74493428D01*
X72679619Y-74255333D01*
X72727238Y-74064857D01*
X72774857Y-73969619D01*
X72822476Y-73922000D01*
X72917714Y-73874380D01*
X74203428Y-74874380D02*
X73632000Y-74874380D01*
X73917714Y-74874380D02*
X73917714Y-73874380D01*
X73822476Y-74017238D01*
X73727238Y-74112476D01*
X73632000Y-74160095D01*
X75060571Y-74207714D02*
X75060571Y-74874380D01*
X74632000Y-74207714D02*
X74632000Y-74731523D01*
X74679619Y-74826761D01*
X74774857Y-74874380D01*
X74917714Y-74874380D01*
X75012952Y-74826761D01*
X75060571Y-74779142D01*
X75870095Y-74350571D02*
X75536761Y-74350571D01*
X75536761Y-74874380D02*
X75536761Y-73874380D01*
X76012952Y-73874380D01*
%TO.C,VR1*%
X80732476Y-44156380D02*
X81065809Y-45156380D01*
X81399142Y-44156380D01*
X82303904Y-45156380D02*
X81970571Y-44680190D01*
X81732476Y-45156380D02*
X81732476Y-44156380D01*
X82113428Y-44156380D01*
X82208666Y-44204000D01*
X82256285Y-44251619D01*
X82303904Y-44346857D01*
X82303904Y-44489714D01*
X82256285Y-44584952D01*
X82208666Y-44632571D01*
X82113428Y-44680190D01*
X81732476Y-44680190D01*
X83256285Y-45156380D02*
X82684857Y-45156380D01*
X82970571Y-45156380D02*
X82970571Y-44156380D01*
X82875333Y-44299238D01*
X82780095Y-44394476D01*
X82684857Y-44442095D01*
X71764095Y-41552761D02*
X71859333Y-41600380D01*
X72049809Y-41600380D01*
X72145047Y-41552761D01*
X72192666Y-41457523D01*
X72192666Y-41409904D01*
X72145047Y-41314666D01*
X72049809Y-41267047D01*
X71906952Y-41267047D01*
X71811714Y-41219428D01*
X71764095Y-41124190D01*
X71764095Y-41076571D01*
X71811714Y-40981333D01*
X71906952Y-40933714D01*
X72049809Y-40933714D01*
X72145047Y-40981333D01*
X73002190Y-41552761D02*
X72906952Y-41600380D01*
X72716476Y-41600380D01*
X72621238Y-41552761D01*
X72573619Y-41457523D01*
X72573619Y-41076571D01*
X72621238Y-40981333D01*
X72716476Y-40933714D01*
X72906952Y-40933714D01*
X73002190Y-40981333D01*
X73049809Y-41076571D01*
X73049809Y-41171809D01*
X72573619Y-41267047D01*
X73335523Y-40933714D02*
X73716476Y-40933714D01*
X73478380Y-40600380D02*
X73478380Y-41457523D01*
X73526000Y-41552761D01*
X73621238Y-41600380D01*
X73716476Y-41600380D01*
X75335523Y-41600380D02*
X74764095Y-41600380D01*
X75049809Y-41600380D02*
X75049809Y-40600380D01*
X74954571Y-40743238D01*
X74859333Y-40838476D01*
X74764095Y-40886095D01*
X75668857Y-40933714D02*
X75906952Y-41600380D01*
X76145047Y-40933714D01*
X77859333Y-41600380D02*
X77526000Y-41124190D01*
X77287904Y-41600380D02*
X77287904Y-40600380D01*
X77668857Y-40600380D01*
X77764095Y-40648000D01*
X77811714Y-40695619D01*
X77859333Y-40790857D01*
X77859333Y-40933714D01*
X77811714Y-41028952D01*
X77764095Y-41076571D01*
X77668857Y-41124190D01*
X77287904Y-41124190D01*
X78287904Y-41600380D02*
X78287904Y-40600380D01*
X78621238Y-41314666D01*
X78954571Y-40600380D01*
X78954571Y-41600380D01*
X79383142Y-41552761D02*
X79526000Y-41600380D01*
X79764095Y-41600380D01*
X79859333Y-41552761D01*
X79906952Y-41505142D01*
X79954571Y-41409904D01*
X79954571Y-41314666D01*
X79906952Y-41219428D01*
X79859333Y-41171809D01*
X79764095Y-41124190D01*
X79573619Y-41076571D01*
X79478380Y-41028952D01*
X79430761Y-40981333D01*
X79383142Y-40886095D01*
X79383142Y-40790857D01*
X79430761Y-40695619D01*
X79478380Y-40648000D01*
X79573619Y-40600380D01*
X79811714Y-40600380D01*
X79954571Y-40648000D01*
X81287904Y-41600380D02*
X81192666Y-41552761D01*
X81145047Y-41505142D01*
X81097428Y-41409904D01*
X81097428Y-41124190D01*
X81145047Y-41028952D01*
X81192666Y-40981333D01*
X81287904Y-40933714D01*
X81430761Y-40933714D01*
X81526000Y-40981333D01*
X81573619Y-41028952D01*
X81621238Y-41124190D01*
X81621238Y-41409904D01*
X81573619Y-41505142D01*
X81526000Y-41552761D01*
X81430761Y-41600380D01*
X81287904Y-41600380D01*
X82478380Y-40933714D02*
X82478380Y-41600380D01*
X82049809Y-40933714D02*
X82049809Y-41457523D01*
X82097428Y-41552761D01*
X82192666Y-41600380D01*
X82335523Y-41600380D01*
X82430761Y-41552761D01*
X82478380Y-41505142D01*
X82811714Y-40933714D02*
X83192666Y-40933714D01*
X82954571Y-40600380D02*
X82954571Y-41457523D01*
X83002190Y-41552761D01*
X83097428Y-41600380D01*
X83192666Y-41600380D01*
X83526000Y-40933714D02*
X83526000Y-41933714D01*
X83526000Y-40981333D02*
X83621238Y-40933714D01*
X83811714Y-40933714D01*
X83906952Y-40981333D01*
X83954571Y-41028952D01*
X84002190Y-41124190D01*
X84002190Y-41409904D01*
X83954571Y-41505142D01*
X83906952Y-41552761D01*
X83811714Y-41600380D01*
X83621238Y-41600380D01*
X83526000Y-41552761D01*
X84859333Y-40933714D02*
X84859333Y-41600380D01*
X84430761Y-40933714D02*
X84430761Y-41457523D01*
X84478380Y-41552761D01*
X84573619Y-41600380D01*
X84716476Y-41600380D01*
X84811714Y-41552761D01*
X84859333Y-41505142D01*
X85192666Y-40933714D02*
X85573619Y-40933714D01*
X85335523Y-40600380D02*
X85335523Y-41457523D01*
X85383142Y-41552761D01*
X85478380Y-41600380D01*
X85573619Y-41600380D01*
X86954571Y-41981333D02*
X86906952Y-41933714D01*
X86811714Y-41790857D01*
X86764095Y-41695619D01*
X86716476Y-41552761D01*
X86668857Y-41314666D01*
X86668857Y-41124190D01*
X86716476Y-40886095D01*
X86764095Y-40743238D01*
X86811714Y-40648000D01*
X86906952Y-40505142D01*
X86954571Y-40457523D01*
X87287904Y-40695619D02*
X87335523Y-40648000D01*
X87430761Y-40600380D01*
X87668857Y-40600380D01*
X87764095Y-40648000D01*
X87811714Y-40695619D01*
X87859333Y-40790857D01*
X87859333Y-40886095D01*
X87811714Y-41028952D01*
X87240285Y-41600380D01*
X87859333Y-41600380D01*
X88764095Y-40600380D02*
X88287904Y-40600380D01*
X88240285Y-41076571D01*
X88287904Y-41028952D01*
X88383142Y-40981333D01*
X88621238Y-40981333D01*
X88716476Y-41028952D01*
X88764095Y-41076571D01*
X88811714Y-41171809D01*
X88811714Y-41409904D01*
X88764095Y-41505142D01*
X88716476Y-41552761D01*
X88621238Y-41600380D01*
X88383142Y-41600380D01*
X88287904Y-41552761D01*
X88240285Y-41505142D01*
X89240285Y-41600380D02*
X89240285Y-40600380D01*
X89335523Y-41219428D02*
X89621238Y-41600380D01*
X89621238Y-40933714D02*
X89240285Y-41314666D01*
X89954571Y-41981333D02*
X90002190Y-41933714D01*
X90097428Y-41790857D01*
X90145047Y-41695619D01*
X90192666Y-41552761D01*
X90240285Y-41314666D01*
X90240285Y-41124190D01*
X90192666Y-40886095D01*
X90145047Y-40743238D01*
X90097428Y-40648000D01*
X90002190Y-40505142D01*
X89954571Y-40457523D01*
%TO.C,VR2*%
X89114476Y-59904380D02*
X89447809Y-60904380D01*
X89781142Y-59904380D01*
X90685904Y-60904380D02*
X90352571Y-60428190D01*
X90114476Y-60904380D02*
X90114476Y-59904380D01*
X90495428Y-59904380D01*
X90590666Y-59952000D01*
X90638285Y-59999619D01*
X90685904Y-60094857D01*
X90685904Y-60237714D01*
X90638285Y-60332952D01*
X90590666Y-60380571D01*
X90495428Y-60428190D01*
X90114476Y-60428190D01*
X91066857Y-59999619D02*
X91114476Y-59952000D01*
X91209714Y-59904380D01*
X91447809Y-59904380D01*
X91543047Y-59952000D01*
X91590666Y-59999619D01*
X91638285Y-60094857D01*
X91638285Y-60190095D01*
X91590666Y-60332952D01*
X91019238Y-60904380D01*
X91638285Y-60904380D01*
X79645714Y-69556380D02*
X79836190Y-69556380D01*
X79931428Y-69604000D01*
X80026666Y-69699238D01*
X80074285Y-69889714D01*
X80074285Y-70223047D01*
X80026666Y-70413523D01*
X79931428Y-70508761D01*
X79836190Y-70556380D01*
X79645714Y-70556380D01*
X79550476Y-70508761D01*
X79455238Y-70413523D01*
X79407619Y-70223047D01*
X79407619Y-69889714D01*
X79455238Y-69699238D01*
X79550476Y-69604000D01*
X79645714Y-69556380D01*
X80931428Y-69889714D02*
X80931428Y-70556380D01*
X80502857Y-69889714D02*
X80502857Y-70413523D01*
X80550476Y-70508761D01*
X80645714Y-70556380D01*
X80788571Y-70556380D01*
X80883809Y-70508761D01*
X80931428Y-70461142D01*
X81264761Y-69889714D02*
X81645714Y-69889714D01*
X81407619Y-69556380D02*
X81407619Y-70413523D01*
X81455238Y-70508761D01*
X81550476Y-70556380D01*
X81645714Y-70556380D01*
X81979047Y-69889714D02*
X81979047Y-70889714D01*
X81979047Y-69937333D02*
X82074285Y-69889714D01*
X82264761Y-69889714D01*
X82360000Y-69937333D01*
X82407619Y-69984952D01*
X82455238Y-70080190D01*
X82455238Y-70365904D01*
X82407619Y-70461142D01*
X82360000Y-70508761D01*
X82264761Y-70556380D01*
X82074285Y-70556380D01*
X81979047Y-70508761D01*
X83312380Y-69889714D02*
X83312380Y-70556380D01*
X82883809Y-69889714D02*
X82883809Y-70413523D01*
X82931428Y-70508761D01*
X83026666Y-70556380D01*
X83169523Y-70556380D01*
X83264761Y-70508761D01*
X83312380Y-70461142D01*
X83645714Y-69889714D02*
X84026666Y-69889714D01*
X83788571Y-69556380D02*
X83788571Y-70413523D01*
X83836190Y-70508761D01*
X83931428Y-70556380D01*
X84026666Y-70556380D01*
X85598095Y-70556380D02*
X85121904Y-70556380D01*
X85121904Y-69556380D01*
X86312380Y-70508761D02*
X86217142Y-70556380D01*
X86026666Y-70556380D01*
X85931428Y-70508761D01*
X85883809Y-70413523D01*
X85883809Y-70032571D01*
X85931428Y-69937333D01*
X86026666Y-69889714D01*
X86217142Y-69889714D01*
X86312380Y-69937333D01*
X86360000Y-70032571D01*
X86360000Y-70127809D01*
X85883809Y-70223047D01*
X86693333Y-69889714D02*
X86931428Y-70556380D01*
X87169523Y-69889714D01*
X87931428Y-70508761D02*
X87836190Y-70556380D01*
X87645714Y-70556380D01*
X87550476Y-70508761D01*
X87502857Y-70413523D01*
X87502857Y-70032571D01*
X87550476Y-69937333D01*
X87645714Y-69889714D01*
X87836190Y-69889714D01*
X87931428Y-69937333D01*
X87979047Y-70032571D01*
X87979047Y-70127809D01*
X87502857Y-70223047D01*
X88550476Y-70556380D02*
X88455238Y-70508761D01*
X88407619Y-70413523D01*
X88407619Y-69556380D01*
X89979047Y-70937333D02*
X89931428Y-70889714D01*
X89836190Y-70746857D01*
X89788571Y-70651619D01*
X89740952Y-70508761D01*
X89693333Y-70270666D01*
X89693333Y-70080190D01*
X89740952Y-69842095D01*
X89788571Y-69699238D01*
X89836190Y-69604000D01*
X89931428Y-69461142D01*
X89979047Y-69413523D01*
X90883809Y-70556380D02*
X90312380Y-70556380D01*
X90598095Y-70556380D02*
X90598095Y-69556380D01*
X90502857Y-69699238D01*
X90407619Y-69794476D01*
X90312380Y-69842095D01*
X91502857Y-69556380D02*
X91598095Y-69556380D01*
X91693333Y-69604000D01*
X91740952Y-69651619D01*
X91788571Y-69746857D01*
X91836190Y-69937333D01*
X91836190Y-70175428D01*
X91788571Y-70365904D01*
X91740952Y-70461142D01*
X91693333Y-70508761D01*
X91598095Y-70556380D01*
X91502857Y-70556380D01*
X91407619Y-70508761D01*
X91360000Y-70461142D01*
X91312380Y-70365904D01*
X91264761Y-70175428D01*
X91264761Y-69937333D01*
X91312380Y-69746857D01*
X91360000Y-69651619D01*
X91407619Y-69604000D01*
X91502857Y-69556380D01*
X92264761Y-70556380D02*
X92264761Y-69556380D01*
X92360000Y-70175428D02*
X92645714Y-70556380D01*
X92645714Y-69889714D02*
X92264761Y-70270666D01*
X92979047Y-70937333D02*
X93026666Y-70889714D01*
X93121904Y-70746857D01*
X93169523Y-70651619D01*
X93217142Y-70508761D01*
X93264761Y-70270666D01*
X93264761Y-70080190D01*
X93217142Y-69842095D01*
X93169523Y-69699238D01*
X93121904Y-69604000D01*
X93026666Y-69461142D01*
X92979047Y-69413523D01*
%TO.C,R2*%
X75017333Y-62428380D02*
X74684000Y-61952190D01*
X74445904Y-62428380D02*
X74445904Y-61428380D01*
X74826857Y-61428380D01*
X74922095Y-61476000D01*
X74969714Y-61523619D01*
X75017333Y-61618857D01*
X75017333Y-61761714D01*
X74969714Y-61856952D01*
X74922095Y-61904571D01*
X74826857Y-61952190D01*
X74445904Y-61952190D01*
X75398285Y-61523619D02*
X75445904Y-61476000D01*
X75541142Y-61428380D01*
X75779238Y-61428380D01*
X75874476Y-61476000D01*
X75922095Y-61523619D01*
X75969714Y-61618857D01*
X75969714Y-61714095D01*
X75922095Y-61856952D01*
X75350666Y-62428380D01*
X75969714Y-62428380D01*
X73747428Y-59983714D02*
X73747428Y-60650380D01*
X73509333Y-59602761D02*
X73271238Y-60317047D01*
X73890285Y-60317047D01*
X74271238Y-60555142D02*
X74318857Y-60602761D01*
X74271238Y-60650380D01*
X74223619Y-60602761D01*
X74271238Y-60555142D01*
X74271238Y-60650380D01*
X74652190Y-59650380D02*
X75318857Y-59650380D01*
X74890285Y-60650380D01*
X75699809Y-60650380D02*
X75699809Y-59650380D01*
X75795047Y-60269428D02*
X76080761Y-60650380D01*
X76080761Y-59983714D02*
X75699809Y-60364666D01*
%TO.C,R9*%
X60285333Y-51506380D02*
X59952000Y-51030190D01*
X59713904Y-51506380D02*
X59713904Y-50506380D01*
X60094857Y-50506380D01*
X60190095Y-50554000D01*
X60237714Y-50601619D01*
X60285333Y-50696857D01*
X60285333Y-50839714D01*
X60237714Y-50934952D01*
X60190095Y-50982571D01*
X60094857Y-51030190D01*
X59713904Y-51030190D01*
X60761523Y-51506380D02*
X60952000Y-51506380D01*
X61047238Y-51458761D01*
X61094857Y-51411142D01*
X61190095Y-51268285D01*
X61237714Y-51077809D01*
X61237714Y-50696857D01*
X61190095Y-50601619D01*
X61142476Y-50554000D01*
X61047238Y-50506380D01*
X60856761Y-50506380D01*
X60761523Y-50554000D01*
X60713904Y-50601619D01*
X60666285Y-50696857D01*
X60666285Y-50934952D01*
X60713904Y-51030190D01*
X60761523Y-51077809D01*
X60856761Y-51125428D01*
X61047238Y-51125428D01*
X61142476Y-51077809D01*
X61190095Y-51030190D01*
X61237714Y-50934952D01*
X60555333Y-48569619D02*
X60602952Y-48522000D01*
X60698190Y-48474380D01*
X60936285Y-48474380D01*
X61031523Y-48522000D01*
X61079142Y-48569619D01*
X61126761Y-48664857D01*
X61126761Y-48760095D01*
X61079142Y-48902952D01*
X60507714Y-49474380D01*
X61126761Y-49474380D01*
X61460095Y-48474380D02*
X62126761Y-48474380D01*
X61698190Y-49474380D01*
X62507714Y-49474380D02*
X62507714Y-48474380D01*
X62602952Y-49093428D02*
X62888666Y-49474380D01*
X62888666Y-48807714D02*
X62507714Y-49188666D01*
%TO.C,Q4*%
X113696761Y-71921619D02*
X113601523Y-71874000D01*
X113506285Y-71778761D01*
X113363428Y-71635904D01*
X113268190Y-71588285D01*
X113172952Y-71588285D01*
X113220571Y-71826380D02*
X113125333Y-71778761D01*
X113030095Y-71683523D01*
X112982476Y-71493047D01*
X112982476Y-71159714D01*
X113030095Y-70969238D01*
X113125333Y-70874000D01*
X113220571Y-70826380D01*
X113411047Y-70826380D01*
X113506285Y-70874000D01*
X113601523Y-70969238D01*
X113649142Y-71159714D01*
X113649142Y-71493047D01*
X113601523Y-71683523D01*
X113506285Y-71778761D01*
X113411047Y-71826380D01*
X113220571Y-71826380D01*
X114506285Y-71159714D02*
X114506285Y-71826380D01*
X114268190Y-70778761D02*
X114030095Y-71493047D01*
X114649142Y-71493047D01*
X107903619Y-76374285D02*
X107856000Y-76326666D01*
X107808380Y-76231428D01*
X107808380Y-75993333D01*
X107856000Y-75898095D01*
X107903619Y-75850476D01*
X107998857Y-75802857D01*
X108094095Y-75802857D01*
X108236952Y-75850476D01*
X108808380Y-76421904D01*
X108808380Y-75802857D01*
X108808380Y-75374285D02*
X107808380Y-75374285D01*
X108808380Y-74802857D01*
X107808380Y-74802857D01*
X107808380Y-74421904D02*
X107808380Y-73802857D01*
X108189333Y-74136190D01*
X108189333Y-73993333D01*
X108236952Y-73898095D01*
X108284571Y-73850476D01*
X108379809Y-73802857D01*
X108617904Y-73802857D01*
X108713142Y-73850476D01*
X108760761Y-73898095D01*
X108808380Y-73993333D01*
X108808380Y-74279047D01*
X108760761Y-74374285D01*
X108713142Y-74421904D01*
X108808380Y-73326666D02*
X108808380Y-73136190D01*
X108760761Y-73040952D01*
X108713142Y-72993333D01*
X108570285Y-72898095D01*
X108379809Y-72850476D01*
X107998857Y-72850476D01*
X107903619Y-72898095D01*
X107856000Y-72945714D01*
X107808380Y-73040952D01*
X107808380Y-73231428D01*
X107856000Y-73326666D01*
X107903619Y-73374285D01*
X107998857Y-73421904D01*
X108236952Y-73421904D01*
X108332190Y-73374285D01*
X108379809Y-73326666D01*
X108427428Y-73231428D01*
X108427428Y-73040952D01*
X108379809Y-72945714D01*
X108332190Y-72898095D01*
X108236952Y-72850476D01*
X107808380Y-72231428D02*
X107808380Y-72136190D01*
X107856000Y-72040952D01*
X107903619Y-71993333D01*
X107998857Y-71945714D01*
X108189333Y-71898095D01*
X108427428Y-71898095D01*
X108617904Y-71945714D01*
X108713142Y-71993333D01*
X108760761Y-72040952D01*
X108808380Y-72136190D01*
X108808380Y-72231428D01*
X108760761Y-72326666D01*
X108713142Y-72374285D01*
X108617904Y-72421904D01*
X108427428Y-72469523D01*
X108189333Y-72469523D01*
X107998857Y-72421904D01*
X107903619Y-72374285D01*
X107856000Y-72326666D01*
X107808380Y-72231428D01*
X108141714Y-71040952D02*
X108808380Y-71040952D01*
X107760761Y-71279047D02*
X108475047Y-71517142D01*
X108475047Y-70898095D01*
%TO.C,IC2*%
X97829809Y-55272380D02*
X97829809Y-54272380D01*
X98877428Y-55177142D02*
X98829809Y-55224761D01*
X98686952Y-55272380D01*
X98591714Y-55272380D01*
X98448857Y-55224761D01*
X98353619Y-55129523D01*
X98306000Y-55034285D01*
X98258380Y-54843809D01*
X98258380Y-54700952D01*
X98306000Y-54510476D01*
X98353619Y-54415238D01*
X98448857Y-54320000D01*
X98591714Y-54272380D01*
X98686952Y-54272380D01*
X98829809Y-54320000D01*
X98877428Y-54367619D01*
X99258380Y-54367619D02*
X99306000Y-54320000D01*
X99401238Y-54272380D01*
X99639333Y-54272380D01*
X99734571Y-54320000D01*
X99782190Y-54367619D01*
X99829809Y-54462857D01*
X99829809Y-54558095D01*
X99782190Y-54700952D01*
X99210761Y-55272380D01*
X99829809Y-55272380D01*
X94020285Y-76712380D02*
X94686952Y-77712380D01*
X94686952Y-76712380D02*
X94020285Y-77712380D01*
X95639333Y-77712380D02*
X95306000Y-77236190D01*
X95067904Y-77712380D02*
X95067904Y-76712380D01*
X95448857Y-76712380D01*
X95544095Y-76760000D01*
X95591714Y-76807619D01*
X95639333Y-76902857D01*
X95639333Y-77045714D01*
X95591714Y-77140952D01*
X95544095Y-77188571D01*
X95448857Y-77236190D01*
X95067904Y-77236190D01*
X96020285Y-76807619D02*
X96067904Y-76760000D01*
X96163142Y-76712380D01*
X96401238Y-76712380D01*
X96496476Y-76760000D01*
X96544095Y-76807619D01*
X96591714Y-76902857D01*
X96591714Y-76998095D01*
X96544095Y-77140952D01*
X95972666Y-77712380D01*
X96591714Y-77712380D01*
X96972666Y-76807619D02*
X97020285Y-76760000D01*
X97115523Y-76712380D01*
X97353619Y-76712380D01*
X97448857Y-76760000D01*
X97496476Y-76807619D01*
X97544095Y-76902857D01*
X97544095Y-76998095D01*
X97496476Y-77140952D01*
X96925047Y-77712380D01*
X97544095Y-77712380D01*
X98163142Y-76712380D02*
X98258380Y-76712380D01*
X98353619Y-76760000D01*
X98401238Y-76807619D01*
X98448857Y-76902857D01*
X98496476Y-77093333D01*
X98496476Y-77331428D01*
X98448857Y-77521904D01*
X98401238Y-77617142D01*
X98353619Y-77664761D01*
X98258380Y-77712380D01*
X98163142Y-77712380D01*
X98067904Y-77664761D01*
X98020285Y-77617142D01*
X97972666Y-77521904D01*
X97925047Y-77331428D01*
X97925047Y-77093333D01*
X97972666Y-76902857D01*
X98020285Y-76807619D01*
X98067904Y-76760000D01*
X98163142Y-76712380D01*
X99353619Y-76712380D02*
X99163142Y-76712380D01*
X99067904Y-76760000D01*
X99020285Y-76807619D01*
X98925047Y-76950476D01*
X98877428Y-77140952D01*
X98877428Y-77521904D01*
X98925047Y-77617142D01*
X98972666Y-77664761D01*
X99067904Y-77712380D01*
X99258380Y-77712380D01*
X99353619Y-77664761D01*
X99401238Y-77617142D01*
X99448857Y-77521904D01*
X99448857Y-77283809D01*
X99401238Y-77188571D01*
X99353619Y-77140952D01*
X99258380Y-77093333D01*
X99067904Y-77093333D01*
X98972666Y-77140952D01*
X98925047Y-77188571D01*
X98877428Y-77283809D01*
X100448857Y-77617142D02*
X100401238Y-77664761D01*
X100258380Y-77712380D01*
X100163142Y-77712380D01*
X100020285Y-77664761D01*
X99925047Y-77569523D01*
X99877428Y-77474285D01*
X99829809Y-77283809D01*
X99829809Y-77140952D01*
X99877428Y-76950476D01*
X99925047Y-76855238D01*
X100020285Y-76760000D01*
X100163142Y-76712380D01*
X100258380Y-76712380D01*
X100401238Y-76760000D01*
X100448857Y-76807619D01*
X100877428Y-77712380D02*
X100877428Y-76712380D01*
X101258380Y-76712380D01*
X101353619Y-76760000D01*
X101401238Y-76807619D01*
X101448857Y-76902857D01*
X101448857Y-77045714D01*
X101401238Y-77140952D01*
X101353619Y-77188571D01*
X101258380Y-77236190D01*
X100877428Y-77236190D01*
X101877428Y-77331428D02*
X102639333Y-77331428D01*
X103448857Y-77188571D02*
X103115523Y-77188571D01*
X103115523Y-77712380D02*
X103115523Y-76712380D01*
X103591714Y-76712380D01*
%TO.C,C3*%
X79589333Y-58269142D02*
X79541714Y-58316761D01*
X79398857Y-58364380D01*
X79303619Y-58364380D01*
X79160761Y-58316761D01*
X79065523Y-58221523D01*
X79017904Y-58126285D01*
X78970285Y-57935809D01*
X78970285Y-57792952D01*
X79017904Y-57602476D01*
X79065523Y-57507238D01*
X79160761Y-57412000D01*
X79303619Y-57364380D01*
X79398857Y-57364380D01*
X79541714Y-57412000D01*
X79589333Y-57459619D01*
X79922666Y-57364380D02*
X80541714Y-57364380D01*
X80208380Y-57745333D01*
X80351238Y-57745333D01*
X80446476Y-57792952D01*
X80494095Y-57840571D01*
X80541714Y-57935809D01*
X80541714Y-58173904D01*
X80494095Y-58269142D01*
X80446476Y-58316761D01*
X80351238Y-58364380D01*
X80065523Y-58364380D01*
X79970285Y-58316761D01*
X79922666Y-58269142D01*
X78208380Y-59888380D02*
X77636952Y-59888380D01*
X77922666Y-59888380D02*
X77922666Y-58888380D01*
X77827428Y-59031238D01*
X77732190Y-59126476D01*
X77636952Y-59174095D01*
X78827428Y-58888380D02*
X78922666Y-58888380D01*
X79017904Y-58936000D01*
X79065523Y-58983619D01*
X79113142Y-59078857D01*
X79160761Y-59269333D01*
X79160761Y-59507428D01*
X79113142Y-59697904D01*
X79065523Y-59793142D01*
X79017904Y-59840761D01*
X78922666Y-59888380D01*
X78827428Y-59888380D01*
X78732190Y-59840761D01*
X78684571Y-59793142D01*
X78636952Y-59697904D01*
X78589333Y-59507428D01*
X78589333Y-59269333D01*
X78636952Y-59078857D01*
X78684571Y-58983619D01*
X78732190Y-58936000D01*
X78827428Y-58888380D01*
X79779809Y-58888380D02*
X79875047Y-58888380D01*
X79970285Y-58936000D01*
X80017904Y-58983619D01*
X80065523Y-59078857D01*
X80113142Y-59269333D01*
X80113142Y-59507428D01*
X80065523Y-59697904D01*
X80017904Y-59793142D01*
X79970285Y-59840761D01*
X79875047Y-59888380D01*
X79779809Y-59888380D01*
X79684571Y-59840761D01*
X79636952Y-59793142D01*
X79589333Y-59697904D01*
X79541714Y-59507428D01*
X79541714Y-59269333D01*
X79589333Y-59078857D01*
X79636952Y-58983619D01*
X79684571Y-58936000D01*
X79779809Y-58888380D01*
X80970285Y-59221714D02*
X80970285Y-59888380D01*
X80541714Y-59221714D02*
X80541714Y-59745523D01*
X80589333Y-59840761D01*
X80684571Y-59888380D01*
X80827428Y-59888380D01*
X80922666Y-59840761D01*
X80970285Y-59793142D01*
X81779809Y-59364571D02*
X81446476Y-59364571D01*
X81446476Y-59888380D02*
X81446476Y-58888380D01*
X81922666Y-58888380D01*
%TO.C,S2*%
X104394095Y-43555761D02*
X104536952Y-43603380D01*
X104775047Y-43603380D01*
X104870285Y-43555761D01*
X104917904Y-43508142D01*
X104965523Y-43412904D01*
X104965523Y-43317666D01*
X104917904Y-43222428D01*
X104870285Y-43174809D01*
X104775047Y-43127190D01*
X104584571Y-43079571D01*
X104489333Y-43031952D01*
X104441714Y-42984333D01*
X104394095Y-42889095D01*
X104394095Y-42793857D01*
X104441714Y-42698619D01*
X104489333Y-42651000D01*
X104584571Y-42603380D01*
X104822666Y-42603380D01*
X104965523Y-42651000D01*
X105346476Y-42698619D02*
X105394095Y-42651000D01*
X105489333Y-42603380D01*
X105727428Y-42603380D01*
X105822666Y-42651000D01*
X105870285Y-42698619D01*
X105917904Y-42793857D01*
X105917904Y-42889095D01*
X105870285Y-43031952D01*
X105298857Y-43603380D01*
X105917904Y-43603380D01*
%TO.C,R4*%
X92289333Y-55570380D02*
X91956000Y-55094190D01*
X91717904Y-55570380D02*
X91717904Y-54570380D01*
X92098857Y-54570380D01*
X92194095Y-54618000D01*
X92241714Y-54665619D01*
X92289333Y-54760857D01*
X92289333Y-54903714D01*
X92241714Y-54998952D01*
X92194095Y-55046571D01*
X92098857Y-55094190D01*
X91717904Y-55094190D01*
X93146476Y-54903714D02*
X93146476Y-55570380D01*
X92908380Y-54522761D02*
X92670285Y-55237047D01*
X93289333Y-55237047D01*
X90527333Y-53141619D02*
X90574952Y-53094000D01*
X90670190Y-53046380D01*
X90908285Y-53046380D01*
X91003523Y-53094000D01*
X91051142Y-53141619D01*
X91098761Y-53236857D01*
X91098761Y-53332095D01*
X91051142Y-53474952D01*
X90479714Y-54046380D01*
X91098761Y-54046380D01*
X91432095Y-53046380D02*
X92098761Y-53046380D01*
X91670190Y-54046380D01*
X92479714Y-54046380D02*
X92479714Y-53046380D01*
X92574952Y-53665428D02*
X92860666Y-54046380D01*
X92860666Y-53379714D02*
X92479714Y-53760666D01*
%TO.C,C6*%
X64329333Y-67667142D02*
X64281714Y-67714761D01*
X64138857Y-67762380D01*
X64043619Y-67762380D01*
X63900761Y-67714761D01*
X63805523Y-67619523D01*
X63757904Y-67524285D01*
X63710285Y-67333809D01*
X63710285Y-67190952D01*
X63757904Y-67000476D01*
X63805523Y-66905238D01*
X63900761Y-66810000D01*
X64043619Y-66762380D01*
X64138857Y-66762380D01*
X64281714Y-66810000D01*
X64329333Y-66857619D01*
X65186476Y-66762380D02*
X64996000Y-66762380D01*
X64900761Y-66810000D01*
X64853142Y-66857619D01*
X64757904Y-67000476D01*
X64710285Y-67190952D01*
X64710285Y-67571904D01*
X64757904Y-67667142D01*
X64805523Y-67714761D01*
X64900761Y-67762380D01*
X65091238Y-67762380D01*
X65186476Y-67714761D01*
X65234095Y-67667142D01*
X65281714Y-67571904D01*
X65281714Y-67333809D01*
X65234095Y-67238571D01*
X65186476Y-67190952D01*
X65091238Y-67143333D01*
X64900761Y-67143333D01*
X64805523Y-67190952D01*
X64757904Y-67238571D01*
X64710285Y-67333809D01*
X71044571Y-68016380D02*
X70473142Y-68016380D01*
X70758857Y-68016380D02*
X70758857Y-67016380D01*
X70663619Y-67159238D01*
X70568380Y-67254476D01*
X70473142Y-67302095D01*
X71663619Y-67016380D02*
X71758857Y-67016380D01*
X71854095Y-67064000D01*
X71901714Y-67111619D01*
X71949333Y-67206857D01*
X71996952Y-67397333D01*
X71996952Y-67635428D01*
X71949333Y-67825904D01*
X71901714Y-67921142D01*
X71854095Y-67968761D01*
X71758857Y-68016380D01*
X71663619Y-68016380D01*
X71568380Y-67968761D01*
X71520761Y-67921142D01*
X71473142Y-67825904D01*
X71425523Y-67635428D01*
X71425523Y-67397333D01*
X71473142Y-67206857D01*
X71520761Y-67111619D01*
X71568380Y-67064000D01*
X71663619Y-67016380D01*
X72854095Y-67349714D02*
X72854095Y-68016380D01*
X72425523Y-67349714D02*
X72425523Y-67873523D01*
X72473142Y-67968761D01*
X72568380Y-68016380D01*
X72711238Y-68016380D01*
X72806476Y-67968761D01*
X72854095Y-67921142D01*
X73663619Y-67492571D02*
X73330285Y-67492571D01*
X73330285Y-68016380D02*
X73330285Y-67016380D01*
X73806476Y-67016380D01*
%TO.C,C9*%
X66127333Y-70969142D02*
X66079714Y-71016761D01*
X65936857Y-71064380D01*
X65841619Y-71064380D01*
X65698761Y-71016761D01*
X65603523Y-70921523D01*
X65555904Y-70826285D01*
X65508285Y-70635809D01*
X65508285Y-70492952D01*
X65555904Y-70302476D01*
X65603523Y-70207238D01*
X65698761Y-70112000D01*
X65841619Y-70064380D01*
X65936857Y-70064380D01*
X66079714Y-70112000D01*
X66127333Y-70159619D01*
X66603523Y-71064380D02*
X66794000Y-71064380D01*
X66889238Y-71016761D01*
X66936857Y-70969142D01*
X67032095Y-70826285D01*
X67079714Y-70635809D01*
X67079714Y-70254857D01*
X67032095Y-70159619D01*
X66984476Y-70112000D01*
X66889238Y-70064380D01*
X66698761Y-70064380D01*
X66603523Y-70112000D01*
X66555904Y-70159619D01*
X66508285Y-70254857D01*
X66508285Y-70492952D01*
X66555904Y-70588190D01*
X66603523Y-70635809D01*
X66698761Y-70683428D01*
X66889238Y-70683428D01*
X66984476Y-70635809D01*
X67032095Y-70588190D01*
X67079714Y-70492952D01*
X71001142Y-70064380D02*
X71096380Y-70064380D01*
X71191619Y-70112000D01*
X71239238Y-70159619D01*
X71286857Y-70254857D01*
X71334476Y-70445333D01*
X71334476Y-70683428D01*
X71286857Y-70873904D01*
X71239238Y-70969142D01*
X71191619Y-71016761D01*
X71096380Y-71064380D01*
X71001142Y-71064380D01*
X70905904Y-71016761D01*
X70858285Y-70969142D01*
X70810666Y-70873904D01*
X70763047Y-70683428D01*
X70763047Y-70445333D01*
X70810666Y-70254857D01*
X70858285Y-70159619D01*
X70905904Y-70112000D01*
X71001142Y-70064380D01*
X71763047Y-70969142D02*
X71810666Y-71016761D01*
X71763047Y-71064380D01*
X71715428Y-71016761D01*
X71763047Y-70969142D01*
X71763047Y-71064380D01*
X72763047Y-71064380D02*
X72191619Y-71064380D01*
X72477333Y-71064380D02*
X72477333Y-70064380D01*
X72382095Y-70207238D01*
X72286857Y-70302476D01*
X72191619Y-70350095D01*
X73620190Y-70397714D02*
X73620190Y-71064380D01*
X73191619Y-70397714D02*
X73191619Y-70921523D01*
X73239238Y-71016761D01*
X73334476Y-71064380D01*
X73477333Y-71064380D01*
X73572571Y-71016761D01*
X73620190Y-70969142D01*
X74429714Y-70540571D02*
X74096380Y-70540571D01*
X74096380Y-71064380D02*
X74096380Y-70064380D01*
X74572571Y-70064380D01*
%TO.C,C4*%
X97623333Y-79605142D02*
X97575714Y-79652761D01*
X97432857Y-79700380D01*
X97337619Y-79700380D01*
X97194761Y-79652761D01*
X97099523Y-79557523D01*
X97051904Y-79462285D01*
X97004285Y-79271809D01*
X97004285Y-79128952D01*
X97051904Y-78938476D01*
X97099523Y-78843238D01*
X97194761Y-78748000D01*
X97337619Y-78700380D01*
X97432857Y-78700380D01*
X97575714Y-78748000D01*
X97623333Y-78795619D01*
X98480476Y-79033714D02*
X98480476Y-79700380D01*
X98242380Y-78652761D02*
X98004285Y-79367047D01*
X98623333Y-79367047D01*
X99465047Y-82107619D02*
X99512666Y-82060000D01*
X99607904Y-82012380D01*
X99846000Y-82012380D01*
X99941238Y-82060000D01*
X99988857Y-82107619D01*
X100036476Y-82202857D01*
X100036476Y-82298095D01*
X99988857Y-82440952D01*
X99417428Y-83012380D01*
X100036476Y-83012380D01*
X100465047Y-82917142D02*
X100512666Y-82964761D01*
X100465047Y-83012380D01*
X100417428Y-82964761D01*
X100465047Y-82917142D01*
X100465047Y-83012380D01*
X100893619Y-82107619D02*
X100941238Y-82060000D01*
X101036476Y-82012380D01*
X101274571Y-82012380D01*
X101369809Y-82060000D01*
X101417428Y-82107619D01*
X101465047Y-82202857D01*
X101465047Y-82298095D01*
X101417428Y-82440952D01*
X100846000Y-83012380D01*
X101465047Y-83012380D01*
X102322190Y-82345714D02*
X102322190Y-83012380D01*
X101893619Y-82345714D02*
X101893619Y-82869523D01*
X101941238Y-82964761D01*
X102036476Y-83012380D01*
X102179333Y-83012380D01*
X102274571Y-82964761D01*
X102322190Y-82917142D01*
X103131714Y-82488571D02*
X102798380Y-82488571D01*
X102798380Y-83012380D02*
X102798380Y-82012380D01*
X103274571Y-82012380D01*
%TO.C,J1*%
X83232666Y-26376380D02*
X83232666Y-27090666D01*
X83185047Y-27233523D01*
X83089809Y-27328761D01*
X82946952Y-27376380D01*
X82851714Y-27376380D01*
X84232666Y-27376380D02*
X83661238Y-27376380D01*
X83946952Y-27376380D02*
X83946952Y-26376380D01*
X83851714Y-26519238D01*
X83756476Y-26614476D01*
X83661238Y-26662095D01*
%TO.C,R3*%
X84923333Y-55570380D02*
X84590000Y-55094190D01*
X84351904Y-55570380D02*
X84351904Y-54570380D01*
X84732857Y-54570380D01*
X84828095Y-54618000D01*
X84875714Y-54665619D01*
X84923333Y-54760857D01*
X84923333Y-54903714D01*
X84875714Y-54998952D01*
X84828095Y-55046571D01*
X84732857Y-55094190D01*
X84351904Y-55094190D01*
X85256666Y-54570380D02*
X85875714Y-54570380D01*
X85542380Y-54951333D01*
X85685238Y-54951333D01*
X85780476Y-54998952D01*
X85828095Y-55046571D01*
X85875714Y-55141809D01*
X85875714Y-55379904D01*
X85828095Y-55475142D01*
X85780476Y-55522761D01*
X85685238Y-55570380D01*
X85399523Y-55570380D01*
X85304285Y-55522761D01*
X85256666Y-55475142D01*
X85193333Y-56189619D02*
X85240952Y-56142000D01*
X85336190Y-56094380D01*
X85574285Y-56094380D01*
X85669523Y-56142000D01*
X85717142Y-56189619D01*
X85764761Y-56284857D01*
X85764761Y-56380095D01*
X85717142Y-56522952D01*
X85145714Y-57094380D01*
X85764761Y-57094380D01*
X86098095Y-56094380D02*
X86764761Y-56094380D01*
X86336190Y-57094380D01*
X87145714Y-57094380D02*
X87145714Y-56094380D01*
X87240952Y-56713428D02*
X87526666Y-57094380D01*
X87526666Y-56427714D02*
X87145714Y-56808666D01*
%TO.C,VR3*%
X84288476Y-73874380D02*
X84621809Y-74874380D01*
X84955142Y-73874380D01*
X85859904Y-74874380D02*
X85526571Y-74398190D01*
X85288476Y-74874380D02*
X85288476Y-73874380D01*
X85669428Y-73874380D01*
X85764666Y-73922000D01*
X85812285Y-73969619D01*
X85859904Y-74064857D01*
X85859904Y-74207714D01*
X85812285Y-74302952D01*
X85764666Y-74350571D01*
X85669428Y-74398190D01*
X85288476Y-74398190D01*
X86193238Y-73874380D02*
X86812285Y-73874380D01*
X86478952Y-74255333D01*
X86621809Y-74255333D01*
X86717047Y-74302952D01*
X86764666Y-74350571D01*
X86812285Y-74445809D01*
X86812285Y-74683904D01*
X86764666Y-74779142D01*
X86717047Y-74826761D01*
X86621809Y-74874380D01*
X86336095Y-74874380D01*
X86240857Y-74826761D01*
X86193238Y-74779142D01*
X77010380Y-83778714D02*
X77391333Y-83778714D01*
X77153238Y-84445380D02*
X77153238Y-83588238D01*
X77200857Y-83493000D01*
X77296095Y-83445380D01*
X77391333Y-83445380D01*
X77724666Y-84445380D02*
X77724666Y-83778714D01*
X77724666Y-83969190D02*
X77772285Y-83873952D01*
X77819904Y-83826333D01*
X77915142Y-83778714D01*
X78010380Y-83778714D01*
X78724666Y-84397761D02*
X78629428Y-84445380D01*
X78438952Y-84445380D01*
X78343714Y-84397761D01*
X78296095Y-84302523D01*
X78296095Y-83921571D01*
X78343714Y-83826333D01*
X78438952Y-83778714D01*
X78629428Y-83778714D01*
X78724666Y-83826333D01*
X78772285Y-83921571D01*
X78772285Y-84016809D01*
X78296095Y-84112047D01*
X79629428Y-83778714D02*
X79629428Y-84778714D01*
X79629428Y-84397761D02*
X79534190Y-84445380D01*
X79343714Y-84445380D01*
X79248476Y-84397761D01*
X79200857Y-84350142D01*
X79153238Y-84254904D01*
X79153238Y-83969190D01*
X79200857Y-83873952D01*
X79248476Y-83826333D01*
X79343714Y-83778714D01*
X79534190Y-83778714D01*
X79629428Y-83826333D01*
X80724666Y-83778714D02*
X81105619Y-83778714D01*
X80867523Y-84445380D02*
X80867523Y-83588238D01*
X80915142Y-83493000D01*
X81010380Y-83445380D01*
X81105619Y-83445380D01*
X81438952Y-84445380D02*
X81438952Y-83778714D01*
X81438952Y-83445380D02*
X81391333Y-83493000D01*
X81438952Y-83540619D01*
X81486571Y-83493000D01*
X81438952Y-83445380D01*
X81438952Y-83540619D01*
X81915142Y-83778714D02*
X81915142Y-84445380D01*
X81915142Y-83873952D02*
X81962761Y-83826333D01*
X82058000Y-83778714D01*
X82200857Y-83778714D01*
X82296095Y-83826333D01*
X82343714Y-83921571D01*
X82343714Y-84445380D01*
X83200857Y-84397761D02*
X83105619Y-84445380D01*
X82915142Y-84445380D01*
X82819904Y-84397761D01*
X82772285Y-84302523D01*
X82772285Y-83921571D01*
X82819904Y-83826333D01*
X82915142Y-83778714D01*
X83105619Y-83778714D01*
X83200857Y-83826333D01*
X83248476Y-83921571D01*
X83248476Y-84016809D01*
X82772285Y-84112047D01*
X84724666Y-84826333D02*
X84677047Y-84778714D01*
X84581809Y-84635857D01*
X84534190Y-84540619D01*
X84486571Y-84397761D01*
X84438952Y-84159666D01*
X84438952Y-83969190D01*
X84486571Y-83731095D01*
X84534190Y-83588238D01*
X84581809Y-83493000D01*
X84677047Y-83350142D01*
X84724666Y-83302523D01*
X85629428Y-84445380D02*
X85058000Y-84445380D01*
X85343714Y-84445380D02*
X85343714Y-83445380D01*
X85248476Y-83588238D01*
X85153238Y-83683476D01*
X85058000Y-83731095D01*
X86248476Y-83445380D02*
X86343714Y-83445380D01*
X86438952Y-83493000D01*
X86486571Y-83540619D01*
X86534190Y-83635857D01*
X86581809Y-83826333D01*
X86581809Y-84064428D01*
X86534190Y-84254904D01*
X86486571Y-84350142D01*
X86438952Y-84397761D01*
X86343714Y-84445380D01*
X86248476Y-84445380D01*
X86153238Y-84397761D01*
X86105619Y-84350142D01*
X86058000Y-84254904D01*
X86010380Y-84064428D01*
X86010380Y-83826333D01*
X86058000Y-83635857D01*
X86105619Y-83540619D01*
X86153238Y-83493000D01*
X86248476Y-83445380D01*
X87200857Y-83445380D02*
X87296095Y-83445380D01*
X87391333Y-83493000D01*
X87438952Y-83540619D01*
X87486571Y-83635857D01*
X87534190Y-83826333D01*
X87534190Y-84064428D01*
X87486571Y-84254904D01*
X87438952Y-84350142D01*
X87391333Y-84397761D01*
X87296095Y-84445380D01*
X87200857Y-84445380D01*
X87105619Y-84397761D01*
X87058000Y-84350142D01*
X87010380Y-84254904D01*
X86962761Y-84064428D01*
X86962761Y-83826333D01*
X87010380Y-83635857D01*
X87058000Y-83540619D01*
X87105619Y-83493000D01*
X87200857Y-83445380D01*
X87962761Y-84445380D02*
X87962761Y-83445380D01*
X88058000Y-84064428D02*
X88343714Y-84445380D01*
X88343714Y-83778714D02*
X87962761Y-84159666D01*
X88677047Y-84826333D02*
X88724666Y-84778714D01*
X88819904Y-84635857D01*
X88867523Y-84540619D01*
X88915142Y-84397761D01*
X88962761Y-84159666D01*
X88962761Y-83969190D01*
X88915142Y-83731095D01*
X88867523Y-83588238D01*
X88819904Y-83493000D01*
X88724666Y-83350142D01*
X88677047Y-83302523D01*
%TO.C,VR5*%
X93178476Y-43648380D02*
X93511809Y-44648380D01*
X93845142Y-43648380D01*
X94749904Y-44648380D02*
X94416571Y-44172190D01*
X94178476Y-44648380D02*
X94178476Y-43648380D01*
X94559428Y-43648380D01*
X94654666Y-43696000D01*
X94702285Y-43743619D01*
X94749904Y-43838857D01*
X94749904Y-43981714D01*
X94702285Y-44076952D01*
X94654666Y-44124571D01*
X94559428Y-44172190D01*
X94178476Y-44172190D01*
X95654666Y-43648380D02*
X95178476Y-43648380D01*
X95130857Y-44124571D01*
X95178476Y-44076952D01*
X95273714Y-44029333D01*
X95511809Y-44029333D01*
X95607047Y-44076952D01*
X95654666Y-44124571D01*
X95702285Y-44219809D01*
X95702285Y-44457904D01*
X95654666Y-44553142D01*
X95607047Y-44600761D01*
X95511809Y-44648380D01*
X95273714Y-44648380D01*
X95178476Y-44600761D01*
X95130857Y-44553142D01*
X92512380Y-41600380D02*
X92512380Y-40933714D01*
X92512380Y-41028952D02*
X92560000Y-40981333D01*
X92655238Y-40933714D01*
X92798095Y-40933714D01*
X92893333Y-40981333D01*
X92940952Y-41076571D01*
X92940952Y-41600380D01*
X92940952Y-41076571D02*
X92988571Y-40981333D01*
X93083809Y-40933714D01*
X93226666Y-40933714D01*
X93321904Y-40981333D01*
X93369523Y-41076571D01*
X93369523Y-41600380D01*
X94274285Y-41600380D02*
X94274285Y-41076571D01*
X94226666Y-40981333D01*
X94131428Y-40933714D01*
X93940952Y-40933714D01*
X93845714Y-40981333D01*
X94274285Y-41552761D02*
X94179047Y-41600380D01*
X93940952Y-41600380D01*
X93845714Y-41552761D01*
X93798095Y-41457523D01*
X93798095Y-41362285D01*
X93845714Y-41267047D01*
X93940952Y-41219428D01*
X94179047Y-41219428D01*
X94274285Y-41171809D01*
X94750476Y-41600380D02*
X94750476Y-40933714D01*
X94750476Y-41124190D02*
X94798095Y-41028952D01*
X94845714Y-40981333D01*
X94940952Y-40933714D01*
X95036190Y-40933714D01*
X95369523Y-41600380D02*
X95369523Y-40600380D01*
X95464761Y-41219428D02*
X95750476Y-41600380D01*
X95750476Y-40933714D02*
X95369523Y-41314666D01*
X96893333Y-41552761D02*
X96988571Y-41600380D01*
X97179047Y-41600380D01*
X97274285Y-41552761D01*
X97321904Y-41457523D01*
X97321904Y-41409904D01*
X97274285Y-41314666D01*
X97179047Y-41267047D01*
X97036190Y-41267047D01*
X96940952Y-41219428D01*
X96893333Y-41124190D01*
X96893333Y-41076571D01*
X96940952Y-40981333D01*
X97036190Y-40933714D01*
X97179047Y-40933714D01*
X97274285Y-40981333D01*
X97750476Y-40933714D02*
X97750476Y-41933714D01*
X97750476Y-40981333D02*
X97845714Y-40933714D01*
X98036190Y-40933714D01*
X98131428Y-40981333D01*
X98179047Y-41028952D01*
X98226666Y-41124190D01*
X98226666Y-41409904D01*
X98179047Y-41505142D01*
X98131428Y-41552761D01*
X98036190Y-41600380D01*
X97845714Y-41600380D01*
X97750476Y-41552761D01*
X99083809Y-41600380D02*
X99083809Y-41076571D01*
X99036190Y-40981333D01*
X98940952Y-40933714D01*
X98750476Y-40933714D01*
X98655238Y-40981333D01*
X99083809Y-41552761D02*
X98988571Y-41600380D01*
X98750476Y-41600380D01*
X98655238Y-41552761D01*
X98607619Y-41457523D01*
X98607619Y-41362285D01*
X98655238Y-41267047D01*
X98750476Y-41219428D01*
X98988571Y-41219428D01*
X99083809Y-41171809D01*
X99988571Y-41552761D02*
X99893333Y-41600380D01*
X99702857Y-41600380D01*
X99607619Y-41552761D01*
X99560000Y-41505142D01*
X99512380Y-41409904D01*
X99512380Y-41124190D01*
X99560000Y-41028952D01*
X99607619Y-40981333D01*
X99702857Y-40933714D01*
X99893333Y-40933714D01*
X99988571Y-40981333D01*
X100798095Y-41552761D02*
X100702857Y-41600380D01*
X100512380Y-41600380D01*
X100417142Y-41552761D01*
X100369523Y-41457523D01*
X100369523Y-41076571D01*
X100417142Y-40981333D01*
X100512380Y-40933714D01*
X100702857Y-40933714D01*
X100798095Y-40981333D01*
X100845714Y-41076571D01*
X100845714Y-41171809D01*
X100369523Y-41267047D01*
X102321904Y-41981333D02*
X102274285Y-41933714D01*
X102179047Y-41790857D01*
X102131428Y-41695619D01*
X102083809Y-41552761D01*
X102036190Y-41314666D01*
X102036190Y-41124190D01*
X102083809Y-40886095D01*
X102131428Y-40743238D01*
X102179047Y-40648000D01*
X102274285Y-40505142D01*
X102321904Y-40457523D01*
X102655238Y-40695619D02*
X102702857Y-40648000D01*
X102798095Y-40600380D01*
X103036190Y-40600380D01*
X103131428Y-40648000D01*
X103179047Y-40695619D01*
X103226666Y-40790857D01*
X103226666Y-40886095D01*
X103179047Y-41028952D01*
X102607619Y-41600380D01*
X103226666Y-41600380D01*
X104131428Y-40600380D02*
X103655238Y-40600380D01*
X103607619Y-41076571D01*
X103655238Y-41028952D01*
X103750476Y-40981333D01*
X103988571Y-40981333D01*
X104083809Y-41028952D01*
X104131428Y-41076571D01*
X104179047Y-41171809D01*
X104179047Y-41409904D01*
X104131428Y-41505142D01*
X104083809Y-41552761D01*
X103988571Y-41600380D01*
X103750476Y-41600380D01*
X103655238Y-41552761D01*
X103607619Y-41505142D01*
X104607619Y-41600380D02*
X104607619Y-40600380D01*
X104702857Y-41219428D02*
X104988571Y-41600380D01*
X104988571Y-40933714D02*
X104607619Y-41314666D01*
X105321904Y-41981333D02*
X105369523Y-41933714D01*
X105464761Y-41790857D01*
X105512380Y-41695619D01*
X105560000Y-41552761D01*
X105607619Y-41314666D01*
X105607619Y-41124190D01*
X105560000Y-40886095D01*
X105512380Y-40743238D01*
X105464761Y-40648000D01*
X105369523Y-40505142D01*
X105321904Y-40457523D01*
%TO.C,IC4*%
X105100380Y-89886190D02*
X104100380Y-89886190D01*
X105005142Y-88838571D02*
X105052761Y-88886190D01*
X105100380Y-89029047D01*
X105100380Y-89124285D01*
X105052761Y-89267142D01*
X104957523Y-89362380D01*
X104862285Y-89410000D01*
X104671809Y-89457619D01*
X104528952Y-89457619D01*
X104338476Y-89410000D01*
X104243238Y-89362380D01*
X104148000Y-89267142D01*
X104100380Y-89124285D01*
X104100380Y-89029047D01*
X104148000Y-88886190D01*
X104195619Y-88838571D01*
X104433714Y-87981428D02*
X105100380Y-87981428D01*
X104052761Y-88219523D02*
X104767047Y-88457619D01*
X104767047Y-87838571D01*
X107339142Y-82764380D02*
X108005809Y-82764380D01*
X107577238Y-83764380D01*
X108815333Y-83097714D02*
X108815333Y-83764380D01*
X108577238Y-82716761D02*
X108339142Y-83431047D01*
X108958190Y-83431047D01*
X109815333Y-83764380D02*
X109339142Y-83764380D01*
X109339142Y-82764380D01*
X110101047Y-83716761D02*
X110243904Y-83764380D01*
X110482000Y-83764380D01*
X110577238Y-83716761D01*
X110624857Y-83669142D01*
X110672476Y-83573904D01*
X110672476Y-83478666D01*
X110624857Y-83383428D01*
X110577238Y-83335809D01*
X110482000Y-83288190D01*
X110291523Y-83240571D01*
X110196285Y-83192952D01*
X110148666Y-83145333D01*
X110101047Y-83050095D01*
X110101047Y-82954857D01*
X110148666Y-82859619D01*
X110196285Y-82812000D01*
X110291523Y-82764380D01*
X110529619Y-82764380D01*
X110672476Y-82812000D01*
X111624857Y-83764380D02*
X111053428Y-83764380D01*
X111339142Y-83764380D02*
X111339142Y-82764380D01*
X111243904Y-82907238D01*
X111148666Y-83002476D01*
X111053428Y-83050095D01*
X111958190Y-82764380D02*
X112577238Y-82764380D01*
X112243904Y-83145333D01*
X112386761Y-83145333D01*
X112482000Y-83192952D01*
X112529619Y-83240571D01*
X112577238Y-83335809D01*
X112577238Y-83573904D01*
X112529619Y-83669142D01*
X112482000Y-83716761D01*
X112386761Y-83764380D01*
X112101047Y-83764380D01*
X112005809Y-83716761D01*
X111958190Y-83669142D01*
%TO.C,C8*%
X61809333Y-41759142D02*
X61761714Y-41806761D01*
X61618857Y-41854380D01*
X61523619Y-41854380D01*
X61380761Y-41806761D01*
X61285523Y-41711523D01*
X61237904Y-41616285D01*
X61190285Y-41425809D01*
X61190285Y-41282952D01*
X61237904Y-41092476D01*
X61285523Y-40997238D01*
X61380761Y-40902000D01*
X61523619Y-40854380D01*
X61618857Y-40854380D01*
X61761714Y-40902000D01*
X61809333Y-40949619D01*
X62380761Y-41282952D02*
X62285523Y-41235333D01*
X62237904Y-41187714D01*
X62190285Y-41092476D01*
X62190285Y-41044857D01*
X62237904Y-40949619D01*
X62285523Y-40902000D01*
X62380761Y-40854380D01*
X62571238Y-40854380D01*
X62666476Y-40902000D01*
X62714095Y-40949619D01*
X62761714Y-41044857D01*
X62761714Y-41092476D01*
X62714095Y-41187714D01*
X62666476Y-41235333D01*
X62571238Y-41282952D01*
X62380761Y-41282952D01*
X62285523Y-41330571D01*
X62237904Y-41378190D01*
X62190285Y-41473428D01*
X62190285Y-41663904D01*
X62237904Y-41759142D01*
X62285523Y-41806761D01*
X62380761Y-41854380D01*
X62571238Y-41854380D01*
X62666476Y-41806761D01*
X62714095Y-41759142D01*
X62761714Y-41663904D01*
X62761714Y-41473428D01*
X62714095Y-41378190D01*
X62666476Y-41330571D01*
X62571238Y-41282952D01*
X59952190Y-43114380D02*
X59380761Y-43114380D01*
X59666476Y-43114380D02*
X59666476Y-42114380D01*
X59571238Y-42257238D01*
X59476000Y-42352476D01*
X59380761Y-42400095D01*
X60571238Y-42114380D02*
X60666476Y-42114380D01*
X60761714Y-42162000D01*
X60809333Y-42209619D01*
X60856952Y-42304857D01*
X60904571Y-42495333D01*
X60904571Y-42733428D01*
X60856952Y-42923904D01*
X60809333Y-43019142D01*
X60761714Y-43066761D01*
X60666476Y-43114380D01*
X60571238Y-43114380D01*
X60476000Y-43066761D01*
X60428380Y-43019142D01*
X60380761Y-42923904D01*
X60333142Y-42733428D01*
X60333142Y-42495333D01*
X60380761Y-42304857D01*
X60428380Y-42209619D01*
X60476000Y-42162000D01*
X60571238Y-42114380D01*
X61523619Y-42114380D02*
X61618857Y-42114380D01*
X61714095Y-42162000D01*
X61761714Y-42209619D01*
X61809333Y-42304857D01*
X61856952Y-42495333D01*
X61856952Y-42733428D01*
X61809333Y-42923904D01*
X61761714Y-43019142D01*
X61714095Y-43066761D01*
X61618857Y-43114380D01*
X61523619Y-43114380D01*
X61428380Y-43066761D01*
X61380761Y-43019142D01*
X61333142Y-42923904D01*
X61285523Y-42733428D01*
X61285523Y-42495333D01*
X61333142Y-42304857D01*
X61380761Y-42209619D01*
X61428380Y-42162000D01*
X61523619Y-42114380D01*
X62476000Y-42114380D02*
X62571238Y-42114380D01*
X62666476Y-42162000D01*
X62714095Y-42209619D01*
X62761714Y-42304857D01*
X62809333Y-42495333D01*
X62809333Y-42733428D01*
X62761714Y-42923904D01*
X62714095Y-43019142D01*
X62666476Y-43066761D01*
X62571238Y-43114380D01*
X62476000Y-43114380D01*
X62380761Y-43066761D01*
X62333142Y-43019142D01*
X62285523Y-42923904D01*
X62237904Y-42733428D01*
X62237904Y-42495333D01*
X62285523Y-42304857D01*
X62333142Y-42209619D01*
X62380761Y-42162000D01*
X62476000Y-42114380D01*
X63666476Y-42447714D02*
X63666476Y-43114380D01*
X63237904Y-42447714D02*
X63237904Y-42971523D01*
X63285523Y-43066761D01*
X63380761Y-43114380D01*
X63523619Y-43114380D01*
X63618857Y-43066761D01*
X63666476Y-43019142D01*
X64476000Y-42590571D02*
X64142666Y-42590571D01*
X64142666Y-43114380D02*
X64142666Y-42114380D01*
X64618857Y-42114380D01*
%TO.C,U1*%
X102108095Y-37734380D02*
X102108095Y-38543904D01*
X102155714Y-38639142D01*
X102203333Y-38686761D01*
X102298571Y-38734380D01*
X102489047Y-38734380D01*
X102584285Y-38686761D01*
X102631904Y-38639142D01*
X102679523Y-38543904D01*
X102679523Y-37734380D01*
X103679523Y-38734380D02*
X103108095Y-38734380D01*
X103393809Y-38734380D02*
X103393809Y-37734380D01*
X103298571Y-37877238D01*
X103203333Y-37972476D01*
X103108095Y-38020095D01*
X98441428Y-29448666D02*
X98917619Y-29448666D01*
X98346190Y-29734380D02*
X98679523Y-28734380D01*
X99012857Y-29734380D01*
X99250952Y-28734380D02*
X99917619Y-28734380D01*
X99250952Y-29734380D01*
X99917619Y-29734380D01*
X100822380Y-29734380D02*
X100250952Y-29734380D01*
X100536666Y-29734380D02*
X100536666Y-28734380D01*
X100441428Y-28877238D01*
X100346190Y-28972476D01*
X100250952Y-29020095D01*
X101774761Y-29734380D02*
X101203333Y-29734380D01*
X101489047Y-29734380D02*
X101489047Y-28734380D01*
X101393809Y-28877238D01*
X101298571Y-28972476D01*
X101203333Y-29020095D01*
X102727142Y-29734380D02*
X102155714Y-29734380D01*
X102441428Y-29734380D02*
X102441428Y-28734380D01*
X102346190Y-28877238D01*
X102250952Y-28972476D01*
X102155714Y-29020095D01*
X103060476Y-28734380D02*
X103727142Y-28734380D01*
X103298571Y-29734380D01*
X104108095Y-29353428D02*
X104870000Y-29353428D01*
X105822380Y-28734380D02*
X105346190Y-28734380D01*
X105298571Y-29210571D01*
X105346190Y-29162952D01*
X105441428Y-29115333D01*
X105679523Y-29115333D01*
X105774761Y-29162952D01*
X105822380Y-29210571D01*
X105870000Y-29305809D01*
X105870000Y-29543904D01*
X105822380Y-29639142D01*
X105774761Y-29686761D01*
X105679523Y-29734380D01*
X105441428Y-29734380D01*
X105346190Y-29686761D01*
X105298571Y-29639142D01*
X106298571Y-29639142D02*
X106346190Y-29686761D01*
X106298571Y-29734380D01*
X106250952Y-29686761D01*
X106298571Y-29639142D01*
X106298571Y-29734380D01*
X106965238Y-28734380D02*
X107060476Y-28734380D01*
X107155714Y-28782000D01*
X107203333Y-28829619D01*
X107250952Y-28924857D01*
X107298571Y-29115333D01*
X107298571Y-29353428D01*
X107250952Y-29543904D01*
X107203333Y-29639142D01*
X107155714Y-29686761D01*
X107060476Y-29734380D01*
X106965238Y-29734380D01*
X106870000Y-29686761D01*
X106822380Y-29639142D01*
X106774761Y-29543904D01*
X106727142Y-29353428D01*
X106727142Y-29115333D01*
X106774761Y-28924857D01*
X106822380Y-28829619D01*
X106870000Y-28782000D01*
X106965238Y-28734380D01*
%TO.C,C10*%
X115683142Y-35694857D02*
X115730761Y-35742476D01*
X115778380Y-35885333D01*
X115778380Y-35980571D01*
X115730761Y-36123428D01*
X115635523Y-36218666D01*
X115540285Y-36266285D01*
X115349809Y-36313904D01*
X115206952Y-36313904D01*
X115016476Y-36266285D01*
X114921238Y-36218666D01*
X114826000Y-36123428D01*
X114778380Y-35980571D01*
X114778380Y-35885333D01*
X114826000Y-35742476D01*
X114873619Y-35694857D01*
X115778380Y-34742476D02*
X115778380Y-35313904D01*
X115778380Y-35028190D02*
X114778380Y-35028190D01*
X114921238Y-35123428D01*
X115016476Y-35218666D01*
X115064095Y-35313904D01*
X114778380Y-34123428D02*
X114778380Y-34028190D01*
X114826000Y-33932952D01*
X114873619Y-33885333D01*
X114968857Y-33837714D01*
X115159333Y-33790095D01*
X115397428Y-33790095D01*
X115587904Y-33837714D01*
X115683142Y-33885333D01*
X115730761Y-33932952D01*
X115778380Y-34028190D01*
X115778380Y-34123428D01*
X115730761Y-34218666D01*
X115683142Y-34266285D01*
X115587904Y-34313904D01*
X115397428Y-34361523D01*
X115159333Y-34361523D01*
X114968857Y-34313904D01*
X114873619Y-34266285D01*
X114826000Y-34218666D01*
X114778380Y-34123428D01*
X110011714Y-36694857D02*
X110678380Y-36694857D01*
X109630761Y-36932952D02*
X110345047Y-37171047D01*
X110345047Y-36552000D01*
X109678380Y-36266285D02*
X109678380Y-35599619D01*
X110678380Y-36028190D01*
X109678380Y-35028190D02*
X109678380Y-34932952D01*
X109726000Y-34837714D01*
X109773619Y-34790095D01*
X109868857Y-34742476D01*
X110059333Y-34694857D01*
X110297428Y-34694857D01*
X110487904Y-34742476D01*
X110583142Y-34790095D01*
X110630761Y-34837714D01*
X110678380Y-34932952D01*
X110678380Y-35028190D01*
X110630761Y-35123428D01*
X110583142Y-35171047D01*
X110487904Y-35218666D01*
X110297428Y-35266285D01*
X110059333Y-35266285D01*
X109868857Y-35218666D01*
X109773619Y-35171047D01*
X109726000Y-35123428D01*
X109678380Y-35028190D01*
X110011714Y-33837714D02*
X110678380Y-33837714D01*
X110011714Y-34266285D02*
X110535523Y-34266285D01*
X110630761Y-34218666D01*
X110678380Y-34123428D01*
X110678380Y-33980571D01*
X110630761Y-33885333D01*
X110583142Y-33837714D01*
X110154571Y-33028190D02*
X110154571Y-33361523D01*
X110678380Y-33361523D02*
X109678380Y-33361523D01*
X109678380Y-32885333D01*
%TO.C,R1*%
X79589333Y-67000380D02*
X79256000Y-66524190D01*
X79017904Y-67000380D02*
X79017904Y-66000380D01*
X79398857Y-66000380D01*
X79494095Y-66048000D01*
X79541714Y-66095619D01*
X79589333Y-66190857D01*
X79589333Y-66333714D01*
X79541714Y-66428952D01*
X79494095Y-66476571D01*
X79398857Y-66524190D01*
X79017904Y-66524190D01*
X80541714Y-67000380D02*
X79970285Y-67000380D01*
X80256000Y-67000380D02*
X80256000Y-66000380D01*
X80160761Y-66143238D01*
X80065523Y-66238476D01*
X79970285Y-66286095D01*
X79335428Y-67857714D02*
X79335428Y-68524380D01*
X79097333Y-67476761D02*
X78859238Y-68191047D01*
X79478285Y-68191047D01*
X79859238Y-68429142D02*
X79906857Y-68476761D01*
X79859238Y-68524380D01*
X79811619Y-68476761D01*
X79859238Y-68429142D01*
X79859238Y-68524380D01*
X80240190Y-67524380D02*
X80906857Y-67524380D01*
X80478285Y-68524380D01*
X81287809Y-68524380D02*
X81287809Y-67524380D01*
X81383047Y-68143428D02*
X81668761Y-68524380D01*
X81668761Y-67857714D02*
X81287809Y-68238666D01*
%TO.C,R11*%
X55491142Y-50236380D02*
X55157809Y-49760190D01*
X54919714Y-50236380D02*
X54919714Y-49236380D01*
X55300666Y-49236380D01*
X55395904Y-49284000D01*
X55443523Y-49331619D01*
X55491142Y-49426857D01*
X55491142Y-49569714D01*
X55443523Y-49664952D01*
X55395904Y-49712571D01*
X55300666Y-49760190D01*
X54919714Y-49760190D01*
X56443523Y-50236380D02*
X55872095Y-50236380D01*
X56157809Y-50236380D02*
X56157809Y-49236380D01*
X56062571Y-49379238D01*
X55967333Y-49474476D01*
X55872095Y-49522095D01*
X57395904Y-50236380D02*
X56824476Y-50236380D01*
X57110190Y-50236380D02*
X57110190Y-49236380D01*
X57014952Y-49379238D01*
X56919714Y-49474476D01*
X56824476Y-49522095D01*
X54554571Y-48458380D02*
X53983142Y-48458380D01*
X54268857Y-48458380D02*
X54268857Y-47458380D01*
X54173619Y-47601238D01*
X54078380Y-47696476D01*
X53983142Y-47744095D01*
X55173619Y-47458380D02*
X55268857Y-47458380D01*
X55364095Y-47506000D01*
X55411714Y-47553619D01*
X55459333Y-47648857D01*
X55506952Y-47839333D01*
X55506952Y-48077428D01*
X55459333Y-48267904D01*
X55411714Y-48363142D01*
X55364095Y-48410761D01*
X55268857Y-48458380D01*
X55173619Y-48458380D01*
X55078380Y-48410761D01*
X55030761Y-48363142D01*
X54983142Y-48267904D01*
X54935523Y-48077428D01*
X54935523Y-47839333D01*
X54983142Y-47648857D01*
X55030761Y-47553619D01*
X55078380Y-47506000D01*
X55173619Y-47458380D01*
X56126000Y-47458380D02*
X56221238Y-47458380D01*
X56316476Y-47506000D01*
X56364095Y-47553619D01*
X56411714Y-47648857D01*
X56459333Y-47839333D01*
X56459333Y-48077428D01*
X56411714Y-48267904D01*
X56364095Y-48363142D01*
X56316476Y-48410761D01*
X56221238Y-48458380D01*
X56126000Y-48458380D01*
X56030761Y-48410761D01*
X55983142Y-48363142D01*
X55935523Y-48267904D01*
X55887904Y-48077428D01*
X55887904Y-47839333D01*
X55935523Y-47648857D01*
X55983142Y-47553619D01*
X56030761Y-47506000D01*
X56126000Y-47458380D01*
X56887904Y-48458380D02*
X56887904Y-47458380D01*
X56983142Y-48077428D02*
X57268857Y-48458380D01*
X57268857Y-47791714D02*
X56887904Y-48172666D01*
%TO.C,Q1*%
X72294761Y-50077619D02*
X72199523Y-50030000D01*
X72104285Y-49934761D01*
X71961428Y-49791904D01*
X71866190Y-49744285D01*
X71770952Y-49744285D01*
X71818571Y-49982380D02*
X71723333Y-49934761D01*
X71628095Y-49839523D01*
X71580476Y-49649047D01*
X71580476Y-49315714D01*
X71628095Y-49125238D01*
X71723333Y-49030000D01*
X71818571Y-48982380D01*
X72009047Y-48982380D01*
X72104285Y-49030000D01*
X72199523Y-49125238D01*
X72247142Y-49315714D01*
X72247142Y-49649047D01*
X72199523Y-49839523D01*
X72104285Y-49934761D01*
X72009047Y-49982380D01*
X71818571Y-49982380D01*
X73199523Y-49982380D02*
X72628095Y-49982380D01*
X72913809Y-49982380D02*
X72913809Y-48982380D01*
X72818571Y-49125238D01*
X72723333Y-49220476D01*
X72628095Y-49268095D01*
X77373619Y-54530285D02*
X77326000Y-54482666D01*
X77278380Y-54387428D01*
X77278380Y-54149333D01*
X77326000Y-54054095D01*
X77373619Y-54006476D01*
X77468857Y-53958857D01*
X77564095Y-53958857D01*
X77706952Y-54006476D01*
X78278380Y-54577904D01*
X78278380Y-53958857D01*
X78278380Y-53530285D02*
X77278380Y-53530285D01*
X78278380Y-52958857D01*
X77278380Y-52958857D01*
X77278380Y-52577904D02*
X77278380Y-51958857D01*
X77659333Y-52292190D01*
X77659333Y-52149333D01*
X77706952Y-52054095D01*
X77754571Y-52006476D01*
X77849809Y-51958857D01*
X78087904Y-51958857D01*
X78183142Y-52006476D01*
X78230761Y-52054095D01*
X78278380Y-52149333D01*
X78278380Y-52435047D01*
X78230761Y-52530285D01*
X78183142Y-52577904D01*
X78278380Y-51482666D02*
X78278380Y-51292190D01*
X78230761Y-51196952D01*
X78183142Y-51149333D01*
X78040285Y-51054095D01*
X77849809Y-51006476D01*
X77468857Y-51006476D01*
X77373619Y-51054095D01*
X77326000Y-51101714D01*
X77278380Y-51196952D01*
X77278380Y-51387428D01*
X77326000Y-51482666D01*
X77373619Y-51530285D01*
X77468857Y-51577904D01*
X77706952Y-51577904D01*
X77802190Y-51530285D01*
X77849809Y-51482666D01*
X77897428Y-51387428D01*
X77897428Y-51196952D01*
X77849809Y-51101714D01*
X77802190Y-51054095D01*
X77706952Y-51006476D01*
X77278380Y-50387428D02*
X77278380Y-50292190D01*
X77326000Y-50196952D01*
X77373619Y-50149333D01*
X77468857Y-50101714D01*
X77659333Y-50054095D01*
X77897428Y-50054095D01*
X78087904Y-50101714D01*
X78183142Y-50149333D01*
X78230761Y-50196952D01*
X78278380Y-50292190D01*
X78278380Y-50387428D01*
X78230761Y-50482666D01*
X78183142Y-50530285D01*
X78087904Y-50577904D01*
X77897428Y-50625523D01*
X77659333Y-50625523D01*
X77468857Y-50577904D01*
X77373619Y-50530285D01*
X77326000Y-50482666D01*
X77278380Y-50387428D01*
X77278380Y-49196952D02*
X77278380Y-49387428D01*
X77326000Y-49482666D01*
X77373619Y-49530285D01*
X77516476Y-49625523D01*
X77706952Y-49673142D01*
X78087904Y-49673142D01*
X78183142Y-49625523D01*
X78230761Y-49577904D01*
X78278380Y-49482666D01*
X78278380Y-49292190D01*
X78230761Y-49196952D01*
X78183142Y-49149333D01*
X78087904Y-49101714D01*
X77849809Y-49101714D01*
X77754571Y-49149333D01*
X77706952Y-49196952D01*
X77659333Y-49292190D01*
X77659333Y-49482666D01*
X77706952Y-49577904D01*
X77754571Y-49625523D01*
X77849809Y-49673142D01*
%TO.C,D1*%
X110915904Y-68270380D02*
X110915904Y-67270380D01*
X111154000Y-67270380D01*
X111296857Y-67318000D01*
X111392095Y-67413238D01*
X111439714Y-67508476D01*
X111487333Y-67698952D01*
X111487333Y-67841809D01*
X111439714Y-68032285D01*
X111392095Y-68127523D01*
X111296857Y-68222761D01*
X111154000Y-68270380D01*
X110915904Y-68270380D01*
X112439714Y-68270380D02*
X111868285Y-68270380D01*
X112154000Y-68270380D02*
X112154000Y-67270380D01*
X112058761Y-67413238D01*
X111963523Y-67508476D01*
X111868285Y-67556095D01*
X109257142Y-70390380D02*
X108685714Y-70390380D01*
X108971428Y-70390380D02*
X108971428Y-69390380D01*
X108876190Y-69533238D01*
X108780952Y-69628476D01*
X108685714Y-69676095D01*
X109685714Y-70390380D02*
X109685714Y-69390380D01*
X110257142Y-70390380D01*
X110257142Y-69390380D01*
X111161904Y-69723714D02*
X111161904Y-70390380D01*
X110923809Y-69342761D02*
X110685714Y-70057047D01*
X111304761Y-70057047D01*
X112209523Y-70390380D02*
X111638095Y-70390380D01*
X111923809Y-70390380D02*
X111923809Y-69390380D01*
X111828571Y-69533238D01*
X111733333Y-69628476D01*
X111638095Y-69676095D01*
X113066666Y-69723714D02*
X113066666Y-70390380D01*
X112828571Y-69342761D02*
X112590476Y-70057047D01*
X113209523Y-70057047D01*
X113733333Y-69818952D02*
X113638095Y-69771333D01*
X113590476Y-69723714D01*
X113542857Y-69628476D01*
X113542857Y-69580857D01*
X113590476Y-69485619D01*
X113638095Y-69438000D01*
X113733333Y-69390380D01*
X113923809Y-69390380D01*
X114019047Y-69438000D01*
X114066666Y-69485619D01*
X114114285Y-69580857D01*
X114114285Y-69628476D01*
X114066666Y-69723714D01*
X114019047Y-69771333D01*
X113923809Y-69818952D01*
X113733333Y-69818952D01*
X113638095Y-69866571D01*
X113590476Y-69914190D01*
X113542857Y-70009428D01*
X113542857Y-70199904D01*
X113590476Y-70295142D01*
X113638095Y-70342761D01*
X113733333Y-70390380D01*
X113923809Y-70390380D01*
X114019047Y-70342761D01*
X114066666Y-70295142D01*
X114114285Y-70199904D01*
X114114285Y-70009428D01*
X114066666Y-69914190D01*
X114019047Y-69866571D01*
X113923809Y-69818952D01*
X107328095Y-66470380D02*
X107328095Y-65470380D01*
X107899523Y-66470380D02*
X107470952Y-65898952D01*
X107899523Y-65470380D02*
X107328095Y-66041809D01*
%TO.C,R10*%
X72001142Y-55824380D02*
X71667809Y-55348190D01*
X71429714Y-55824380D02*
X71429714Y-54824380D01*
X71810666Y-54824380D01*
X71905904Y-54872000D01*
X71953523Y-54919619D01*
X72001142Y-55014857D01*
X72001142Y-55157714D01*
X71953523Y-55252952D01*
X71905904Y-55300571D01*
X71810666Y-55348190D01*
X71429714Y-55348190D01*
X72953523Y-55824380D02*
X72382095Y-55824380D01*
X72667809Y-55824380D02*
X72667809Y-54824380D01*
X72572571Y-54967238D01*
X72477333Y-55062476D01*
X72382095Y-55110095D01*
X73572571Y-54824380D02*
X73667809Y-54824380D01*
X73763047Y-54872000D01*
X73810666Y-54919619D01*
X73858285Y-55014857D01*
X73905904Y-55205333D01*
X73905904Y-55443428D01*
X73858285Y-55633904D01*
X73810666Y-55729142D01*
X73763047Y-55776761D01*
X73667809Y-55824380D01*
X73572571Y-55824380D01*
X73477333Y-55776761D01*
X73429714Y-55729142D01*
X73382095Y-55633904D01*
X73334476Y-55443428D01*
X73334476Y-55205333D01*
X73382095Y-55014857D01*
X73429714Y-54919619D01*
X73477333Y-54872000D01*
X73572571Y-54824380D01*
X71191619Y-56602380D02*
X71810666Y-56602380D01*
X71477333Y-56983333D01*
X71620190Y-56983333D01*
X71715428Y-57030952D01*
X71763047Y-57078571D01*
X71810666Y-57173809D01*
X71810666Y-57411904D01*
X71763047Y-57507142D01*
X71715428Y-57554761D01*
X71620190Y-57602380D01*
X71334476Y-57602380D01*
X71239238Y-57554761D01*
X71191619Y-57507142D01*
X72239238Y-57507142D02*
X72286857Y-57554761D01*
X72239238Y-57602380D01*
X72191619Y-57554761D01*
X72239238Y-57507142D01*
X72239238Y-57602380D01*
X72620190Y-56602380D02*
X73239238Y-56602380D01*
X72905904Y-56983333D01*
X73048761Y-56983333D01*
X73144000Y-57030952D01*
X73191619Y-57078571D01*
X73239238Y-57173809D01*
X73239238Y-57411904D01*
X73191619Y-57507142D01*
X73144000Y-57554761D01*
X73048761Y-57602380D01*
X72763047Y-57602380D01*
X72667809Y-57554761D01*
X72620190Y-57507142D01*
X73667809Y-57602380D02*
X73667809Y-56602380D01*
X73763047Y-57221428D02*
X74048761Y-57602380D01*
X74048761Y-56935714D02*
X73667809Y-57316666D01*
%TO.C,R14*%
X117975142Y-64300380D02*
X117641809Y-63824190D01*
X117403714Y-64300380D02*
X117403714Y-63300380D01*
X117784666Y-63300380D01*
X117879904Y-63348000D01*
X117927523Y-63395619D01*
X117975142Y-63490857D01*
X117975142Y-63633714D01*
X117927523Y-63728952D01*
X117879904Y-63776571D01*
X117784666Y-63824190D01*
X117403714Y-63824190D01*
X118927523Y-64300380D02*
X118356095Y-64300380D01*
X118641809Y-64300380D02*
X118641809Y-63300380D01*
X118546571Y-63443238D01*
X118451333Y-63538476D01*
X118356095Y-63586095D01*
X119784666Y-63633714D02*
X119784666Y-64300380D01*
X119546571Y-63252761D02*
X119308476Y-63967047D01*
X119927523Y-63967047D01*
X118078285Y-66587714D02*
X118078285Y-67254380D01*
X117840190Y-66206761D02*
X117602095Y-66921047D01*
X118221142Y-66921047D01*
X118506857Y-66254380D02*
X119173523Y-66254380D01*
X118744952Y-67254380D01*
%TO.C,R6*%
X106513333Y-58872380D02*
X106180000Y-58396190D01*
X105941904Y-58872380D02*
X105941904Y-57872380D01*
X106322857Y-57872380D01*
X106418095Y-57920000D01*
X106465714Y-57967619D01*
X106513333Y-58062857D01*
X106513333Y-58205714D01*
X106465714Y-58300952D01*
X106418095Y-58348571D01*
X106322857Y-58396190D01*
X105941904Y-58396190D01*
X107370476Y-57872380D02*
X107180000Y-57872380D01*
X107084761Y-57920000D01*
X107037142Y-57967619D01*
X106941904Y-58110476D01*
X106894285Y-58300952D01*
X106894285Y-58681904D01*
X106941904Y-58777142D01*
X106989523Y-58824761D01*
X107084761Y-58872380D01*
X107275238Y-58872380D01*
X107370476Y-58824761D01*
X107418095Y-58777142D01*
X107465714Y-58681904D01*
X107465714Y-58443809D01*
X107418095Y-58348571D01*
X107370476Y-58300952D01*
X107275238Y-58253333D01*
X107084761Y-58253333D01*
X106989523Y-58300952D01*
X106941904Y-58348571D01*
X106894285Y-58443809D01*
X104782952Y-56586380D02*
X104211523Y-56586380D01*
X104497238Y-56586380D02*
X104497238Y-55586380D01*
X104402000Y-55729238D01*
X104306761Y-55824476D01*
X104211523Y-55872095D01*
X105211523Y-56586380D02*
X105211523Y-55586380D01*
X105306761Y-56205428D02*
X105592476Y-56586380D01*
X105592476Y-55919714D02*
X105211523Y-56300666D01*
%TO.C,C1*%
X92035333Y-89765142D02*
X91987714Y-89812761D01*
X91844857Y-89860380D01*
X91749619Y-89860380D01*
X91606761Y-89812761D01*
X91511523Y-89717523D01*
X91463904Y-89622285D01*
X91416285Y-89431809D01*
X91416285Y-89288952D01*
X91463904Y-89098476D01*
X91511523Y-89003238D01*
X91606761Y-88908000D01*
X91749619Y-88860380D01*
X91844857Y-88860380D01*
X91987714Y-88908000D01*
X92035333Y-88955619D01*
X92987714Y-89860380D02*
X92416285Y-89860380D01*
X92702000Y-89860380D02*
X92702000Y-88860380D01*
X92606761Y-89003238D01*
X92511523Y-89098476D01*
X92416285Y-89146095D01*
X89543142Y-87336380D02*
X89638380Y-87336380D01*
X89733619Y-87384000D01*
X89781238Y-87431619D01*
X89828857Y-87526857D01*
X89876476Y-87717333D01*
X89876476Y-87955428D01*
X89828857Y-88145904D01*
X89781238Y-88241142D01*
X89733619Y-88288761D01*
X89638380Y-88336380D01*
X89543142Y-88336380D01*
X89447904Y-88288761D01*
X89400285Y-88241142D01*
X89352666Y-88145904D01*
X89305047Y-87955428D01*
X89305047Y-87717333D01*
X89352666Y-87526857D01*
X89400285Y-87431619D01*
X89447904Y-87384000D01*
X89543142Y-87336380D01*
X90305047Y-88241142D02*
X90352666Y-88288761D01*
X90305047Y-88336380D01*
X90257428Y-88288761D01*
X90305047Y-88241142D01*
X90305047Y-88336380D01*
X91305047Y-88336380D02*
X90733619Y-88336380D01*
X91019333Y-88336380D02*
X91019333Y-87336380D01*
X90924095Y-87479238D01*
X90828857Y-87574476D01*
X90733619Y-87622095D01*
X92162190Y-87669714D02*
X92162190Y-88336380D01*
X91733619Y-87669714D02*
X91733619Y-88193523D01*
X91781238Y-88288761D01*
X91876476Y-88336380D01*
X92019333Y-88336380D01*
X92114571Y-88288761D01*
X92162190Y-88241142D01*
X92971714Y-87812571D02*
X92638380Y-87812571D01*
X92638380Y-88336380D02*
X92638380Y-87336380D01*
X93114571Y-87336380D01*
%TO.C,R16*%
X108323142Y-78430380D02*
X107989809Y-77954190D01*
X107751714Y-78430380D02*
X107751714Y-77430380D01*
X108132666Y-77430380D01*
X108227904Y-77478000D01*
X108275523Y-77525619D01*
X108323142Y-77620857D01*
X108323142Y-77763714D01*
X108275523Y-77858952D01*
X108227904Y-77906571D01*
X108132666Y-77954190D01*
X107751714Y-77954190D01*
X109275523Y-78430380D02*
X108704095Y-78430380D01*
X108989809Y-78430380D02*
X108989809Y-77430380D01*
X108894571Y-77573238D01*
X108799333Y-77668476D01*
X108704095Y-77716095D01*
X110132666Y-77430380D02*
X109942190Y-77430380D01*
X109846952Y-77478000D01*
X109799333Y-77525619D01*
X109704095Y-77668476D01*
X109656476Y-77858952D01*
X109656476Y-78239904D01*
X109704095Y-78335142D01*
X109751714Y-78382761D01*
X109846952Y-78430380D01*
X110037428Y-78430380D01*
X110132666Y-78382761D01*
X110180285Y-78335142D01*
X110227904Y-78239904D01*
X110227904Y-78001809D01*
X110180285Y-77906571D01*
X110132666Y-77858952D01*
X110037428Y-77811333D01*
X109846952Y-77811333D01*
X109751714Y-77858952D01*
X109704095Y-77906571D01*
X109656476Y-78001809D01*
X109100952Y-77160380D02*
X108529523Y-77160380D01*
X108815238Y-77160380D02*
X108815238Y-76160380D01*
X108720000Y-76303238D01*
X108624761Y-76398476D01*
X108529523Y-76446095D01*
X109529523Y-77160380D02*
X109529523Y-76160380D01*
X109624761Y-76779428D02*
X109910476Y-77160380D01*
X109910476Y-76493714D02*
X109529523Y-76874666D01*
%TO.C,Q2*%
X64166761Y-48807619D02*
X64071523Y-48760000D01*
X63976285Y-48664761D01*
X63833428Y-48521904D01*
X63738190Y-48474285D01*
X63642952Y-48474285D01*
X63690571Y-48712380D02*
X63595333Y-48664761D01*
X63500095Y-48569523D01*
X63452476Y-48379047D01*
X63452476Y-48045714D01*
X63500095Y-47855238D01*
X63595333Y-47760000D01*
X63690571Y-47712380D01*
X63881047Y-47712380D01*
X63976285Y-47760000D01*
X64071523Y-47855238D01*
X64119142Y-48045714D01*
X64119142Y-48379047D01*
X64071523Y-48569523D01*
X63976285Y-48664761D01*
X63881047Y-48712380D01*
X63690571Y-48712380D01*
X64500095Y-47807619D02*
X64547714Y-47760000D01*
X64642952Y-47712380D01*
X64881047Y-47712380D01*
X64976285Y-47760000D01*
X65023904Y-47807619D01*
X65071523Y-47902857D01*
X65071523Y-47998095D01*
X65023904Y-48140952D01*
X64452476Y-48712380D01*
X65071523Y-48712380D01*
X69499619Y-53260285D02*
X69452000Y-53212666D01*
X69404380Y-53117428D01*
X69404380Y-52879333D01*
X69452000Y-52784095D01*
X69499619Y-52736476D01*
X69594857Y-52688857D01*
X69690095Y-52688857D01*
X69832952Y-52736476D01*
X70404380Y-53307904D01*
X70404380Y-52688857D01*
X70404380Y-52260285D02*
X69404380Y-52260285D01*
X70404380Y-51688857D01*
X69404380Y-51688857D01*
X69404380Y-51307904D02*
X69404380Y-50688857D01*
X69785333Y-51022190D01*
X69785333Y-50879333D01*
X69832952Y-50784095D01*
X69880571Y-50736476D01*
X69975809Y-50688857D01*
X70213904Y-50688857D01*
X70309142Y-50736476D01*
X70356761Y-50784095D01*
X70404380Y-50879333D01*
X70404380Y-51165047D01*
X70356761Y-51260285D01*
X70309142Y-51307904D01*
X70404380Y-50212666D02*
X70404380Y-50022190D01*
X70356761Y-49926952D01*
X70309142Y-49879333D01*
X70166285Y-49784095D01*
X69975809Y-49736476D01*
X69594857Y-49736476D01*
X69499619Y-49784095D01*
X69452000Y-49831714D01*
X69404380Y-49926952D01*
X69404380Y-50117428D01*
X69452000Y-50212666D01*
X69499619Y-50260285D01*
X69594857Y-50307904D01*
X69832952Y-50307904D01*
X69928190Y-50260285D01*
X69975809Y-50212666D01*
X70023428Y-50117428D01*
X70023428Y-49926952D01*
X69975809Y-49831714D01*
X69928190Y-49784095D01*
X69832952Y-49736476D01*
X69404380Y-49117428D02*
X69404380Y-49022190D01*
X69452000Y-48926952D01*
X69499619Y-48879333D01*
X69594857Y-48831714D01*
X69785333Y-48784095D01*
X70023428Y-48784095D01*
X70213904Y-48831714D01*
X70309142Y-48879333D01*
X70356761Y-48926952D01*
X70404380Y-49022190D01*
X70404380Y-49117428D01*
X70356761Y-49212666D01*
X70309142Y-49260285D01*
X70213904Y-49307904D01*
X70023428Y-49355523D01*
X69785333Y-49355523D01*
X69594857Y-49307904D01*
X69499619Y-49260285D01*
X69452000Y-49212666D01*
X69404380Y-49117428D01*
X69737714Y-47926952D02*
X70404380Y-47926952D01*
X69356761Y-48165047D02*
X70071047Y-48403142D01*
X70071047Y-47784095D01*
%TO.C,G\u002A\u002A\u002A*%
G36*
X49625645Y-27219591D02*
G01*
X49701680Y-27219906D01*
X49762901Y-27220478D01*
X49810582Y-27221346D01*
X49845996Y-27222548D01*
X49870416Y-27224123D01*
X49885117Y-27226110D01*
X49891371Y-27228546D01*
X49891538Y-27230346D01*
X49883493Y-27242492D01*
X49868563Y-27264321D01*
X49849843Y-27291311D01*
X49848108Y-27293796D01*
X49804358Y-27362943D01*
X49762861Y-27440439D01*
X49728255Y-27517436D01*
X49720936Y-27536343D01*
X49708563Y-27572061D01*
X49695692Y-27613303D01*
X49683504Y-27655759D01*
X49673180Y-27695119D01*
X49665900Y-27727073D01*
X49662844Y-27747311D01*
X49662816Y-27748532D01*
X49656796Y-27758052D01*
X49639674Y-27778154D01*
X49612862Y-27807439D01*
X49577772Y-27844505D01*
X49535813Y-27887954D01*
X49488396Y-27936385D01*
X49436934Y-27988400D01*
X49382836Y-28042597D01*
X49327513Y-28097578D01*
X49272377Y-28151943D01*
X49218838Y-28204292D01*
X49168307Y-28253225D01*
X49122196Y-28297343D01*
X49081914Y-28335246D01*
X49048874Y-28365534D01*
X49024485Y-28386807D01*
X49010159Y-28397666D01*
X49007373Y-28398782D01*
X48985774Y-28396805D01*
X48964013Y-28394464D01*
X48886079Y-28385458D01*
X48822492Y-28378164D01*
X48770357Y-28372261D01*
X48726779Y-28367427D01*
X48688864Y-28363340D01*
X48653716Y-28359678D01*
X48625462Y-28356820D01*
X48582797Y-28352417D01*
X48543165Y-28348088D01*
X48511816Y-28344419D01*
X48497420Y-28342529D01*
X48464867Y-28337791D01*
X48464867Y-27550891D01*
X48497420Y-27546152D01*
X48519651Y-27543318D01*
X48553914Y-27539415D01*
X48594954Y-27535027D01*
X48625462Y-27531925D01*
X48677369Y-27526532D01*
X48737018Y-27519977D01*
X48794929Y-27513313D01*
X48820780Y-27510207D01*
X48870838Y-27504408D01*
X48924312Y-27498754D01*
X48973277Y-27494060D01*
X48997320Y-27492034D01*
X49033289Y-27488244D01*
X49060435Y-27483417D01*
X49075136Y-27478264D01*
X49076677Y-27476493D01*
X49084428Y-27450768D01*
X49096049Y-27414974D01*
X49109895Y-27373887D01*
X49124318Y-27332284D01*
X49137674Y-27294942D01*
X49148315Y-27266637D01*
X49152531Y-27256388D01*
X49168824Y-27219495D01*
X49533523Y-27219495D01*
X49625645Y-27219591D01*
G37*
G36*
X50102492Y-28865189D02*
G01*
X50124321Y-28880119D01*
X50151311Y-28898838D01*
X50153796Y-28900574D01*
X50222943Y-28944323D01*
X50300439Y-28985821D01*
X50377436Y-29020426D01*
X50396343Y-29027745D01*
X50432061Y-29040119D01*
X50473303Y-29052990D01*
X50515759Y-29065177D01*
X50555119Y-29075502D01*
X50587073Y-29082782D01*
X50607311Y-29085837D01*
X50608532Y-29085865D01*
X50617124Y-29091842D01*
X50636736Y-29109008D01*
X50666174Y-29136216D01*
X50704240Y-29172318D01*
X50749740Y-29216168D01*
X50801477Y-29266618D01*
X50858255Y-29322520D01*
X50918880Y-29382728D01*
X50941620Y-29405441D01*
X51261108Y-29725016D01*
X51255761Y-29772204D01*
X51252565Y-29800214D01*
X51248018Y-29839812D01*
X51242772Y-29885338D01*
X51238354Y-29923562D01*
X51232285Y-29977271D01*
X51225764Y-30037060D01*
X51219756Y-30093977D01*
X51216782Y-30123220D01*
X51212394Y-30165885D01*
X51208078Y-30205518D01*
X51204417Y-30236867D01*
X51202529Y-30251261D01*
X51197791Y-30283814D01*
X50410891Y-30283814D01*
X50406152Y-30251261D01*
X50403318Y-30229030D01*
X50399415Y-30194768D01*
X50395027Y-30153727D01*
X50391925Y-30123220D01*
X50386532Y-30071312D01*
X50379977Y-30011664D01*
X50373313Y-29953753D01*
X50370207Y-29927902D01*
X50364408Y-29877843D01*
X50358754Y-29824369D01*
X50354060Y-29775404D01*
X50352034Y-29751362D01*
X50348244Y-29715393D01*
X50343417Y-29688247D01*
X50338264Y-29673545D01*
X50336493Y-29672004D01*
X50310768Y-29664254D01*
X50274974Y-29652632D01*
X50233887Y-29638787D01*
X50192284Y-29624363D01*
X50154942Y-29611008D01*
X50126637Y-29600367D01*
X50116388Y-29596151D01*
X50079495Y-29579858D01*
X50079495Y-29215158D01*
X50079591Y-29123036D01*
X50079906Y-29047002D01*
X50080478Y-28985781D01*
X50081346Y-28938100D01*
X50082548Y-28902686D01*
X50084123Y-28878265D01*
X50086110Y-28863565D01*
X50088546Y-28857310D01*
X50090346Y-28857143D01*
X50102492Y-28865189D01*
G37*
G36*
X52628143Y-27492576D02*
G01*
X52657968Y-27495882D01*
X52699141Y-27500542D01*
X52745770Y-27505885D01*
X52783562Y-27510261D01*
X52837268Y-27516358D01*
X52897055Y-27522902D01*
X52953969Y-27528922D01*
X52983220Y-27531900D01*
X53025885Y-27536287D01*
X53065518Y-27540603D01*
X53096867Y-27544265D01*
X53111261Y-27546152D01*
X53143814Y-27550891D01*
X53143814Y-28337791D01*
X53111261Y-28342529D01*
X53089030Y-28345364D01*
X53054768Y-28349266D01*
X53013727Y-28353654D01*
X52983220Y-28356757D01*
X52931312Y-28362149D01*
X52871664Y-28368705D01*
X52813753Y-28375369D01*
X52787902Y-28378475D01*
X52737843Y-28384273D01*
X52684369Y-28389928D01*
X52635404Y-28394622D01*
X52611362Y-28396648D01*
X52575411Y-28400436D01*
X52548259Y-28405262D01*
X52533536Y-28410413D01*
X52531983Y-28412188D01*
X52522236Y-28444643D01*
X52508543Y-28486966D01*
X52493054Y-28532770D01*
X52477917Y-28575666D01*
X52468156Y-28601911D01*
X52445603Y-28660506D01*
X52082884Y-28660506D01*
X52005427Y-28660415D01*
X51933625Y-28660156D01*
X51869278Y-28659748D01*
X51814183Y-28659211D01*
X51770137Y-28658563D01*
X51738940Y-28657825D01*
X51722387Y-28657016D01*
X51720164Y-28656582D01*
X51724786Y-28648113D01*
X51737032Y-28629212D01*
X51754474Y-28603602D01*
X51758742Y-28597471D01*
X51804905Y-28524605D01*
X51847866Y-28444100D01*
X51883020Y-28364711D01*
X51887745Y-28352338D01*
X51901314Y-28313143D01*
X51914879Y-28269289D01*
X51927274Y-28225114D01*
X51937337Y-28184955D01*
X51943903Y-28153149D01*
X51945865Y-28135809D01*
X51952001Y-28124983D01*
X51970443Y-28102569D01*
X52001242Y-28068513D01*
X52044450Y-28022761D01*
X52100118Y-27965258D01*
X52168298Y-27895950D01*
X52249041Y-27814783D01*
X52261379Y-27802442D01*
X52576894Y-27487016D01*
X52628143Y-27492576D01*
G37*
G36*
X49652335Y-28086527D02*
G01*
X49657414Y-28105466D01*
X49658458Y-28111446D01*
X49686590Y-28243415D01*
X49728231Y-28369660D01*
X49782255Y-28487138D01*
X49824190Y-28558462D01*
X49862475Y-28617644D01*
X49862475Y-29526787D01*
X49833834Y-29551558D01*
X49808552Y-29572902D01*
X49779804Y-29596459D01*
X49770898Y-29603595D01*
X49753701Y-29617331D01*
X49725625Y-29639827D01*
X49689317Y-29668961D01*
X49647424Y-29702607D01*
X49602593Y-29738643D01*
X49593370Y-29746060D01*
X49550303Y-29780679D01*
X49511548Y-29811793D01*
X49479245Y-29837690D01*
X49455529Y-29856657D01*
X49442539Y-29866981D01*
X49441026Y-29868157D01*
X49432847Y-29863764D01*
X49413372Y-29847643D01*
X49383388Y-29820534D01*
X49343678Y-29783179D01*
X49295026Y-29736320D01*
X49238218Y-29680697D01*
X49174038Y-29617053D01*
X49152344Y-29595386D01*
X48872774Y-29315717D01*
X48995082Y-29163898D01*
X49031335Y-29118922D01*
X49064636Y-29077653D01*
X49093196Y-29042306D01*
X49115226Y-29015094D01*
X49128936Y-28998231D01*
X49131850Y-28994686D01*
X49143433Y-28980508D01*
X49162666Y-28956712D01*
X49186363Y-28927248D01*
X49200473Y-28909647D01*
X49254637Y-28842000D01*
X49216355Y-28766444D01*
X49196361Y-28726217D01*
X49176356Y-28684696D01*
X49159746Y-28648989D01*
X49155364Y-28639176D01*
X49132653Y-28587463D01*
X49386829Y-28333178D01*
X49441554Y-28278573D01*
X49492531Y-28227987D01*
X49538445Y-28182702D01*
X49577985Y-28143999D01*
X49609836Y-28113163D01*
X49632687Y-28091474D01*
X49645224Y-28080216D01*
X49647177Y-28078893D01*
X49652335Y-28086527D01*
G37*
G36*
X51202529Y-25637420D02*
G01*
X51205364Y-25659651D01*
X51209266Y-25693914D01*
X51213654Y-25734954D01*
X51216757Y-25765462D01*
X51222149Y-25817369D01*
X51228705Y-25877018D01*
X51235369Y-25934929D01*
X51238475Y-25960780D01*
X51244273Y-26010838D01*
X51249928Y-26064312D01*
X51254622Y-26113277D01*
X51256648Y-26137320D01*
X51260438Y-26173289D01*
X51265264Y-26200435D01*
X51270418Y-26215136D01*
X51272188Y-26216677D01*
X51297913Y-26224428D01*
X51333708Y-26236049D01*
X51374794Y-26249895D01*
X51416397Y-26264318D01*
X51453739Y-26277674D01*
X51482044Y-26288315D01*
X51492294Y-26292531D01*
X51529187Y-26308824D01*
X51529187Y-26673011D01*
X51529137Y-26750622D01*
X51528994Y-26822574D01*
X51528770Y-26887074D01*
X51528473Y-26942329D01*
X51528117Y-26986546D01*
X51527710Y-27017930D01*
X51527264Y-27034690D01*
X51527017Y-27037030D01*
X51519435Y-27032347D01*
X51500792Y-27019881D01*
X51474270Y-27001776D01*
X51455400Y-26988755D01*
X51339310Y-26918675D01*
X51213706Y-26862275D01*
X51080993Y-26820608D01*
X51060424Y-26815648D01*
X50995318Y-26800563D01*
X50671944Y-26478359D01*
X50348569Y-26156154D01*
X50353419Y-26112722D01*
X50356397Y-26086377D01*
X50360754Y-26048232D01*
X50365868Y-26003732D01*
X50370327Y-25965120D01*
X50376396Y-25911411D01*
X50382918Y-25851621D01*
X50388925Y-25794705D01*
X50391900Y-25765462D01*
X50396287Y-25722796D01*
X50400603Y-25683163D01*
X50404265Y-25651815D01*
X50406152Y-25637420D01*
X50410891Y-25604867D01*
X51197791Y-25604867D01*
X51202529Y-25637420D01*
G37*
G36*
X49486039Y-26054436D02*
G01*
X49507745Y-26071380D01*
X49539924Y-26096852D01*
X49579637Y-26128493D01*
X49623947Y-26163943D01*
X49669915Y-26200845D01*
X49714603Y-26236837D01*
X49755074Y-26269561D01*
X49788389Y-26296657D01*
X49811609Y-26315766D01*
X49814660Y-26318318D01*
X49831377Y-26331992D01*
X49855250Y-26351099D01*
X49870881Y-26363454D01*
X49909670Y-26393942D01*
X49970710Y-26360960D01*
X50010563Y-26340444D01*
X50056624Y-26318224D01*
X50098994Y-26299075D01*
X50099406Y-26298898D01*
X50167062Y-26269817D01*
X50422765Y-26525411D01*
X50477525Y-26580287D01*
X50528271Y-26631411D01*
X50573723Y-26677474D01*
X50612603Y-26717168D01*
X50643632Y-26749185D01*
X50665533Y-26772216D01*
X50677025Y-26784953D01*
X50678469Y-26787038D01*
X50670716Y-26791601D01*
X50650983Y-26796453D01*
X50637235Y-26798664D01*
X50601307Y-26805141D01*
X50554734Y-26815772D01*
X50503279Y-26829030D01*
X50452702Y-26843387D01*
X50408765Y-26857316D01*
X50388640Y-26864578D01*
X50336897Y-26886823D01*
X50279151Y-26915198D01*
X50223039Y-26945761D01*
X50178425Y-26973083D01*
X50134123Y-27002475D01*
X49213412Y-27002475D01*
X49199990Y-26981991D01*
X49185597Y-26962040D01*
X49174957Y-26949438D01*
X49165649Y-26938665D01*
X49147724Y-26917006D01*
X49123383Y-26887155D01*
X49094828Y-26851803D01*
X49079895Y-26833199D01*
X49046581Y-26791657D01*
X49013064Y-26749937D01*
X48982702Y-26712214D01*
X48958853Y-26682662D01*
X48953627Y-26676208D01*
X48930144Y-26646827D01*
X48908527Y-26619078D01*
X48893185Y-26598627D01*
X48892374Y-26597494D01*
X48873937Y-26571602D01*
X49432775Y-26013540D01*
X49486039Y-26054436D01*
G37*
G36*
X51938051Y-28877937D02*
G01*
X52384245Y-28878347D01*
X52423309Y-28927643D01*
X52444961Y-28954886D01*
X52464167Y-28978910D01*
X52476763Y-28994508D01*
X52487877Y-29008210D01*
X52507148Y-29032100D01*
X52532640Y-29063769D01*
X52562418Y-29100806D01*
X52594547Y-29140801D01*
X52627093Y-29181344D01*
X52658121Y-29220025D01*
X52685696Y-29254434D01*
X52707883Y-29282160D01*
X52722746Y-29300794D01*
X52728157Y-29307656D01*
X52723764Y-29315835D01*
X52707643Y-29335309D01*
X52680534Y-29365294D01*
X52643179Y-29405004D01*
X52596320Y-29453655D01*
X52540697Y-29510463D01*
X52477053Y-29574643D01*
X52455386Y-29596337D01*
X52175717Y-29875908D01*
X52023898Y-29753599D01*
X51978922Y-29717347D01*
X51937653Y-29684046D01*
X51902306Y-29655486D01*
X51875094Y-29633456D01*
X51858231Y-29619745D01*
X51854686Y-29616832D01*
X51840508Y-29605249D01*
X51816712Y-29586016D01*
X51787248Y-29562318D01*
X51769647Y-29548208D01*
X51702000Y-29494045D01*
X51626444Y-29532326D01*
X51586514Y-29552184D01*
X51545580Y-29571928D01*
X51510601Y-29588220D01*
X51500820Y-29592591D01*
X51450751Y-29614575D01*
X51194007Y-29358269D01*
X51139277Y-29303448D01*
X51088722Y-29252451D01*
X51043595Y-29206568D01*
X51005146Y-29167090D01*
X50974630Y-29135304D01*
X50953297Y-29112503D01*
X50942402Y-29099976D01*
X50941269Y-29097957D01*
X50951287Y-29094624D01*
X50973511Y-29089860D01*
X51000679Y-29085102D01*
X51129993Y-29055751D01*
X51257178Y-29009530D01*
X51381033Y-28946905D01*
X51425885Y-28919601D01*
X51491858Y-28877526D01*
X51938051Y-28877937D01*
G37*
G36*
X52455386Y-26292344D02*
G01*
X52521412Y-26358691D01*
X52579650Y-26417914D01*
X52629359Y-26469228D01*
X52669798Y-26511850D01*
X52700226Y-26544993D01*
X52719901Y-26567875D01*
X52728081Y-26579709D01*
X52728157Y-26581026D01*
X52720559Y-26590655D01*
X52704029Y-26611371D01*
X52680523Y-26640735D01*
X52651999Y-26676313D01*
X52620413Y-26715668D01*
X52587723Y-26756363D01*
X52555885Y-26795962D01*
X52526857Y-26832029D01*
X52502595Y-26862128D01*
X52485056Y-26883821D01*
X52476763Y-26893995D01*
X52465205Y-26908179D01*
X52445996Y-26931974D01*
X52422322Y-26961426D01*
X52408303Y-26978917D01*
X52354234Y-27046447D01*
X52400728Y-27139481D01*
X52420311Y-27179476D01*
X52438017Y-27217103D01*
X52451741Y-27247804D01*
X52458810Y-27265341D01*
X52470397Y-27298166D01*
X52219038Y-27549637D01*
X52164643Y-27603923D01*
X52114023Y-27654185D01*
X52068496Y-27699133D01*
X52029381Y-27737478D01*
X51997993Y-27767931D01*
X51975652Y-27789202D01*
X51963674Y-27800003D01*
X51962041Y-27801108D01*
X51954518Y-27794224D01*
X51951134Y-27787376D01*
X51946758Y-27767365D01*
X51945865Y-27754288D01*
X51943187Y-27732138D01*
X51935934Y-27697975D01*
X51925275Y-27656170D01*
X51912381Y-27611092D01*
X51898420Y-27567113D01*
X51887529Y-27536343D01*
X51857099Y-27462207D01*
X51823524Y-27395571D01*
X51783988Y-27329904D01*
X51746207Y-27271038D01*
X51746207Y-26361895D01*
X51774847Y-26337123D01*
X51800112Y-26315779D01*
X51828846Y-26292197D01*
X51837783Y-26285018D01*
X51854658Y-26271504D01*
X51882517Y-26249119D01*
X51918834Y-26219896D01*
X51961081Y-26185870D01*
X52006733Y-26149073D01*
X52023898Y-26135230D01*
X52175717Y-26012774D01*
X52455386Y-26292344D01*
G37*
G36*
X50285479Y-27617170D02*
G01*
X50330915Y-27538627D01*
X50390703Y-27464349D01*
X50409365Y-27444742D01*
X50482627Y-27379793D01*
X50560991Y-27329972D01*
X50648082Y-27293108D01*
X50678393Y-27283691D01*
X50716888Y-27273276D01*
X50748279Y-27266919D01*
X50778898Y-27263961D01*
X50815080Y-27263736D01*
X50855094Y-27265209D01*
X50931080Y-27272002D01*
X50996180Y-27285862D01*
X51056005Y-27308449D01*
X51116167Y-27341419D01*
X51119036Y-27343214D01*
X51184465Y-27394327D01*
X51240304Y-27458467D01*
X51284966Y-27533253D01*
X51316860Y-27616304D01*
X51326162Y-27653534D01*
X51332673Y-27696089D01*
X51336166Y-27744630D01*
X51336775Y-27794999D01*
X51334633Y-27843038D01*
X51329876Y-27884590D01*
X51322636Y-27915497D01*
X51317355Y-27926905D01*
X51303086Y-27948681D01*
X50504853Y-27948681D01*
X50505158Y-27985575D01*
X50513673Y-28068333D01*
X50537001Y-28145712D01*
X50573917Y-28215660D01*
X50623197Y-28276123D01*
X50683617Y-28325049D01*
X50719920Y-28345690D01*
X50748396Y-28359478D01*
X50770778Y-28368715D01*
X50791826Y-28374312D01*
X50816302Y-28377181D01*
X50848966Y-28378233D01*
X50890685Y-28378380D01*
X50936502Y-28378056D01*
X50969514Y-28376620D01*
X50994274Y-28373375D01*
X51015332Y-28367626D01*
X51037242Y-28358676D01*
X51046023Y-28354626D01*
X51082029Y-28334771D01*
X51123747Y-28307265D01*
X51165452Y-28276290D01*
X51201418Y-28246027D01*
X51220194Y-28227417D01*
X51237853Y-28213128D01*
X51256374Y-28211219D01*
X51279019Y-28222277D01*
X51304209Y-28242542D01*
X51341888Y-28275979D01*
X51311836Y-28325656D01*
X51253496Y-28406246D01*
X51184021Y-28474289D01*
X51104735Y-28528702D01*
X51016965Y-28568405D01*
X51012349Y-28569994D01*
X50976336Y-28581109D01*
X50942676Y-28588480D01*
X50905496Y-28592992D01*
X50858925Y-28595533D01*
X50839064Y-28596126D01*
X50793101Y-28596519D01*
X50748701Y-28595520D01*
X50711441Y-28593331D01*
X50689948Y-28590755D01*
X50618983Y-28572088D01*
X50545402Y-28542187D01*
X50476505Y-28504074D01*
X50469732Y-28499647D01*
X50400831Y-28443628D01*
X50342071Y-28374762D01*
X50294009Y-28294683D01*
X50257204Y-28205020D01*
X50232215Y-28107408D01*
X50219601Y-28003477D01*
X50219920Y-27894859D01*
X50230605Y-27801108D01*
X50232564Y-27792427D01*
X50504523Y-27792427D01*
X50741240Y-27792378D01*
X50807461Y-27792044D01*
X50868483Y-27791122D01*
X50921809Y-27789695D01*
X50964943Y-27787846D01*
X50995387Y-27785656D01*
X51009617Y-27783536D01*
X51041190Y-27768391D01*
X51061398Y-27742702D01*
X51071229Y-27704768D01*
X51072557Y-27675236D01*
X51063583Y-27613517D01*
X51038921Y-27556158D01*
X51000132Y-27505575D01*
X50948782Y-27464184D01*
X50928402Y-27452458D01*
X50883130Y-27436932D01*
X50829764Y-27431305D01*
X50774386Y-27435451D01*
X50723078Y-27449245D01*
X50705764Y-27457067D01*
X50648567Y-27495970D01*
X50598713Y-27548330D01*
X50558478Y-27610999D01*
X50530141Y-27680827D01*
X50522611Y-27710233D01*
X50516280Y-27739636D01*
X50510773Y-27764802D01*
X50508962Y-27772895D01*
X50504523Y-27792427D01*
X50232564Y-27792427D01*
X50252630Y-27703491D01*
X50285479Y-27617170D01*
G37*
D12*
%TO.C,R13*%
X115809500Y-62721258D02*
X115809500Y-62246742D01*
X116854500Y-62721258D02*
X116854500Y-62246742D01*
%TO.C,R12*%
X112145258Y-59196500D02*
X111670742Y-59196500D01*
X112145258Y-58151500D02*
X111670742Y-58151500D01*
%TO.C,R15*%
X116317500Y-71103258D02*
X116317500Y-70628742D01*
X117362500Y-71103258D02*
X117362500Y-70628742D01*
%TO.C,C2*%
X94912000Y-34786000D02*
X94287000Y-34786000D01*
X92697000Y-30746000D02*
X92072000Y-30746000D01*
X94912000Y-30746000D02*
X94287000Y-30746000D01*
X92697000Y-34786000D02*
X92072000Y-34786000D01*
X94912000Y-30746000D02*
X94912000Y-34786000D01*
X92072000Y-30746000D02*
X92072000Y-34786000D01*
%TO.C,S1*%
X62295000Y-71867000D02*
X59695000Y-71867000D01*
X62295000Y-66727000D02*
X57095000Y-66727000D01*
X59695000Y-74467000D02*
X57095000Y-74467000D01*
X62295000Y-73137000D02*
X62295000Y-74467000D01*
X62295000Y-71867000D02*
X62295000Y-66727000D01*
X62295000Y-74467000D02*
X60965000Y-74467000D01*
X57095000Y-74467000D02*
X57095000Y-66727000D01*
X59695000Y-71867000D02*
X59695000Y-74467000D01*
%TO.C,Q3*%
X112340000Y-65300000D02*
X112340000Y-61700000D01*
X107889999Y-63500000D02*
G75*
G03*
X112328478Y-65338478I2600001J0D01*
G01*
X112328478Y-61661522D02*
G75*
G03*
X107890000Y-63500000I-1838478J-1838478D01*
G01*
%TO.C,J5*%
X59884000Y-56891000D02*
X62544000Y-56891000D01*
X59884000Y-56891000D02*
X59884000Y-59491000D01*
X59884000Y-59491000D02*
X62544000Y-59491000D01*
X62544000Y-56891000D02*
X62544000Y-59491000D01*
X59884000Y-55621000D02*
X59884000Y-54291000D01*
X59884000Y-54291000D02*
X61214000Y-54291000D01*
%TO.C,R7*%
X69325258Y-55103500D02*
X68850742Y-55103500D01*
X69325258Y-56148500D02*
X68850742Y-56148500D01*
%TO.C,C7*%
X67576000Y-60673000D02*
X67576000Y-60048000D01*
X67576000Y-62888000D02*
X67576000Y-62263000D01*
X71616000Y-60048000D02*
X67576000Y-60048000D01*
X71616000Y-62888000D02*
X71616000Y-62263000D01*
X71616000Y-62888000D02*
X67576000Y-62888000D01*
X71616000Y-60673000D02*
X71616000Y-60048000D01*
%TO.C,R5*%
X90661258Y-75960500D02*
X90186742Y-75960500D01*
X90661258Y-74915500D02*
X90186742Y-74915500D01*
%TO.C,VR4*%
X111562000Y-52637000D02*
X121332000Y-52637000D01*
X121332000Y-42867000D02*
X121332000Y-52637000D01*
X111562000Y-42867000D02*
X121332000Y-42867000D01*
X111562000Y-42867000D02*
X111562000Y-52637000D01*
%TO.C,R8*%
X65485742Y-56148500D02*
X65960258Y-56148500D01*
X65485742Y-55103500D02*
X65960258Y-55103500D01*
%TO.C,C5*%
X69838000Y-75588000D02*
X69838000Y-74963000D01*
X65798000Y-73373000D02*
X65798000Y-72748000D01*
X69838000Y-72748000D02*
X65798000Y-72748000D01*
X69838000Y-75588000D02*
X65798000Y-75588000D01*
X65798000Y-75588000D02*
X65798000Y-74963000D01*
X69838000Y-73373000D02*
X69838000Y-72748000D01*
%TO.C,G\u002A\u002A\u002A*%
G36*
X119984442Y-29152882D02*
G01*
X120020102Y-29163112D01*
X120027972Y-29166819D01*
X120062855Y-29189184D01*
X120088806Y-29217025D01*
X120107344Y-29249697D01*
X120111470Y-29259130D01*
X120114745Y-29268541D01*
X120117289Y-29279486D01*
X120119218Y-29293524D01*
X120120651Y-29312211D01*
X120121704Y-29337104D01*
X120122497Y-29369759D01*
X120123146Y-29411735D01*
X120123770Y-29464587D01*
X120123799Y-29467199D01*
X120125853Y-29653443D01*
X120073787Y-29651619D01*
X120021720Y-29649796D01*
X120018595Y-29481004D01*
X120017575Y-29429895D01*
X120016549Y-29389741D01*
X120015394Y-29358997D01*
X120013989Y-29336116D01*
X120012209Y-29319551D01*
X120009933Y-29307755D01*
X120007038Y-29299182D01*
X120003681Y-29292742D01*
X119983871Y-29269841D01*
X119957501Y-29256765D01*
X119925109Y-29252823D01*
X119891441Y-29256614D01*
X119865657Y-29268786D01*
X119845404Y-29290537D01*
X119842592Y-29294869D01*
X119838193Y-29302343D01*
X119834752Y-29309994D01*
X119832127Y-29319420D01*
X119830179Y-29332222D01*
X119828768Y-29350000D01*
X119827755Y-29374355D01*
X119826999Y-29406886D01*
X119826361Y-29449193D01*
X119825906Y-29485693D01*
X119823890Y-29652921D01*
X119724772Y-29652921D01*
X119724772Y-29152798D01*
X119824797Y-29152798D01*
X119824797Y-29177804D01*
X119826096Y-29195629D01*
X119830851Y-29201696D01*
X119840349Y-29196500D01*
X119849655Y-29187339D01*
X119875534Y-29168183D01*
X119908838Y-29155800D01*
X119946247Y-29150572D01*
X119984442Y-29152882D01*
G37*
G36*
X120638993Y-29150866D02*
G01*
X120674637Y-29156275D01*
X120707668Y-29163958D01*
X120730464Y-29171902D01*
X120754117Y-29183462D01*
X120775322Y-29195807D01*
X120791357Y-29207151D01*
X120799498Y-29215712D01*
X120799994Y-29217442D01*
X120796224Y-29224483D01*
X120786270Y-29238032D01*
X120772238Y-29255233D01*
X120771362Y-29256261D01*
X120742687Y-29289826D01*
X120707984Y-29270241D01*
X120677154Y-29257083D01*
X120642288Y-29248912D01*
X120607299Y-29246109D01*
X120576099Y-29249058D01*
X120557074Y-29255511D01*
X120537593Y-29270755D01*
X120527470Y-29289678D01*
X120526969Y-29309409D01*
X120536354Y-29327077D01*
X120549585Y-29337017D01*
X120564993Y-29342231D01*
X120587941Y-29346876D01*
X120613470Y-29349950D01*
X120613572Y-29349958D01*
X120665511Y-29355225D01*
X120706705Y-29362565D01*
X120738838Y-29372699D01*
X120763596Y-29386351D01*
X120782663Y-29404241D01*
X120797725Y-29427092D01*
X120798924Y-29429383D01*
X120810066Y-29461406D01*
X120814401Y-29497819D01*
X120811763Y-29533604D01*
X120803302Y-29561098D01*
X120781979Y-29592060D01*
X120750943Y-29617812D01*
X120712152Y-29637634D01*
X120667563Y-29650800D01*
X120619133Y-29656589D01*
X120568821Y-29654276D01*
X120556227Y-29652356D01*
X120531655Y-29646252D01*
X120503134Y-29636572D01*
X120482164Y-29627800D01*
X120459295Y-29615956D01*
X120436422Y-29602200D01*
X120416168Y-29588355D01*
X120401159Y-29576242D01*
X120394020Y-29567685D01*
X120393766Y-29566437D01*
X120398172Y-29560578D01*
X120409719Y-29548995D01*
X120426020Y-29534063D01*
X120428092Y-29532239D01*
X120462338Y-29502204D01*
X120490459Y-29521552D01*
X120528532Y-29543264D01*
X120567364Y-29555304D01*
X120611777Y-29559144D01*
X120613478Y-29559148D01*
X120654015Y-29556206D01*
X120683687Y-29547297D01*
X120702679Y-29532300D01*
X120711179Y-29511094D01*
X120711327Y-29495399D01*
X120707565Y-29480105D01*
X120698649Y-29468542D01*
X120682918Y-29459940D01*
X120658711Y-29453525D01*
X120624366Y-29448527D01*
X120606439Y-29446656D01*
X120555491Y-29439892D01*
X120515236Y-29430022D01*
X120484083Y-29416253D01*
X120460437Y-29397793D01*
X120442707Y-29373849D01*
X120436760Y-29362225D01*
X120429509Y-29339819D01*
X120425411Y-29314215D01*
X120425082Y-29306686D01*
X120430006Y-29262007D01*
X120445189Y-29224461D01*
X120470596Y-29194083D01*
X120506194Y-29170908D01*
X120551948Y-29154969D01*
X120578966Y-29149672D01*
X120605511Y-29148432D01*
X120638993Y-29150866D01*
G37*
G36*
X118868312Y-29152798D02*
G01*
X118868312Y-29201965D01*
X118899362Y-29181070D01*
X118939543Y-29160547D01*
X118981145Y-29150892D01*
X119022346Y-29151514D01*
X119061328Y-29161821D01*
X119096270Y-29181222D01*
X119125352Y-29209125D01*
X119146756Y-29244939D01*
X119153452Y-29263668D01*
X119157827Y-29286517D01*
X119160986Y-29318754D01*
X119162928Y-29357334D01*
X119163651Y-29399209D01*
X119163156Y-29441333D01*
X119161441Y-29480661D01*
X119158505Y-29514146D01*
X119154348Y-29538742D01*
X119153536Y-29541763D01*
X119136086Y-29580746D01*
X119109496Y-29612870D01*
X119075758Y-29636972D01*
X119036864Y-29651887D01*
X118994806Y-29656451D01*
X118963771Y-29652693D01*
X118941560Y-29645327D01*
X118916338Y-29633433D01*
X118901132Y-29624443D01*
X118868312Y-29602781D01*
X118868312Y-29793886D01*
X118868410Y-29849612D01*
X118868734Y-29893893D01*
X118869329Y-29927785D01*
X118870239Y-29952346D01*
X118871508Y-29968631D01*
X118873180Y-29977698D01*
X118875299Y-29980602D01*
X118876126Y-29980376D01*
X118886225Y-29973746D01*
X118900666Y-29963586D01*
X118902695Y-29962116D01*
X118938462Y-29943430D01*
X118978609Y-29934657D01*
X119020208Y-29935566D01*
X119060329Y-29945927D01*
X119096044Y-29965508D01*
X119111206Y-29978557D01*
X119123897Y-29991460D01*
X119134116Y-30003126D01*
X119142145Y-30015054D01*
X119148265Y-30028744D01*
X119152760Y-30045694D01*
X119155912Y-30067404D01*
X119158002Y-30095373D01*
X119159314Y-30131100D01*
X119160129Y-30176085D01*
X119160729Y-30231827D01*
X119160827Y-30242129D01*
X119162646Y-30434364D01*
X119062109Y-30434364D01*
X119062100Y-30270261D01*
X119061966Y-30215995D01*
X119061397Y-30172721D01*
X119060127Y-30138927D01*
X119057893Y-30113103D01*
X119054429Y-30093738D01*
X119049472Y-30079322D01*
X119042756Y-30068344D01*
X119034018Y-30059294D01*
X119023751Y-30051214D01*
X118996380Y-30038325D01*
X118965479Y-30035062D01*
X118934488Y-30040771D01*
X118906851Y-30054799D01*
X118886008Y-30076494D01*
X118885397Y-30077461D01*
X118881203Y-30084706D01*
X118877920Y-30092412D01*
X118875413Y-30102172D01*
X118873549Y-30115577D01*
X118872195Y-30134222D01*
X118871217Y-30159697D01*
X118870481Y-30193597D01*
X118869855Y-30237512D01*
X118869502Y-30267135D01*
X118867566Y-30434364D01*
X118768287Y-30434364D01*
X118768287Y-29415623D01*
X118867912Y-29415623D01*
X118871243Y-29455414D01*
X118879033Y-29491046D01*
X118891301Y-29519379D01*
X118897296Y-29527764D01*
X118917881Y-29543372D01*
X118945349Y-29552293D01*
X118975777Y-29554127D01*
X119005244Y-29548480D01*
X119022309Y-29540429D01*
X119035924Y-29530073D01*
X119045790Y-29517347D01*
X119052468Y-29500193D01*
X119056518Y-29476556D01*
X119058502Y-29444380D01*
X119058984Y-29405986D01*
X119058699Y-29368724D01*
X119057677Y-29341514D01*
X119055669Y-29321916D01*
X119052425Y-29307489D01*
X119047714Y-29295828D01*
X119031298Y-29272914D01*
X119008605Y-29259064D01*
X118978142Y-29253596D01*
X118955847Y-29254032D01*
X118933125Y-29256336D01*
X118918522Y-29260372D01*
X118907655Y-29267959D01*
X118898800Y-29277694D01*
X118884484Y-29302709D01*
X118874551Y-29336130D01*
X118869021Y-29374815D01*
X118867912Y-29415623D01*
X118768287Y-29415623D01*
X118768287Y-29152798D01*
X118868312Y-29152798D01*
G37*
G36*
X122118023Y-30035243D02*
G01*
X122145117Y-29995736D01*
X122179701Y-29965773D01*
X122221421Y-29945742D01*
X122269924Y-29936027D01*
X122276192Y-29935572D01*
X122328552Y-29937762D01*
X122374924Y-29950766D01*
X122414865Y-29974336D01*
X122447934Y-30008225D01*
X122469860Y-30044040D01*
X122478994Y-30063609D01*
X122485105Y-30080495D01*
X122488949Y-30098369D01*
X122491280Y-30120901D01*
X122492853Y-30151763D01*
X122493051Y-30156836D01*
X122495777Y-30228063D01*
X122186232Y-30228063D01*
X122189723Y-30254091D01*
X122199956Y-30285845D01*
X122220246Y-30312784D01*
X122248449Y-30332814D01*
X122281567Y-30343702D01*
X122309311Y-30343929D01*
X122341054Y-30337553D01*
X122371300Y-30326108D01*
X122392837Y-30312629D01*
X122411080Y-30297278D01*
X122444828Y-30325952D01*
X122461777Y-30340762D01*
X122474471Y-30352625D01*
X122480301Y-30359097D01*
X122480374Y-30359256D01*
X122477209Y-30366774D01*
X122465698Y-30378394D01*
X122448413Y-30392124D01*
X122427925Y-30405974D01*
X122406807Y-30417955D01*
X122400716Y-30420895D01*
X122369620Y-30431135D01*
X122332094Y-30437480D01*
X122292902Y-30439604D01*
X122256808Y-30437181D01*
X122234765Y-30432229D01*
X122194568Y-30415912D01*
X122163273Y-30395475D01*
X122137364Y-30368242D01*
X122122506Y-30346842D01*
X122103988Y-30307828D01*
X122091521Y-30260463D01*
X122085588Y-30207588D01*
X122086669Y-30152044D01*
X122087715Y-30141349D01*
X122087871Y-30140541D01*
X122186232Y-30140541D01*
X122393867Y-30140541D01*
X122389995Y-30120224D01*
X122377943Y-30083287D01*
X122358100Y-30055292D01*
X122331408Y-30037018D01*
X122298808Y-30029240D01*
X122280083Y-30029577D01*
X122245879Y-30038467D01*
X122218280Y-30057012D01*
X122198919Y-30083679D01*
X122189723Y-30114513D01*
X122186232Y-30140541D01*
X122087871Y-30140541D01*
X122098771Y-30083909D01*
X122118023Y-30035243D01*
G37*
G36*
X120875506Y-29344460D02*
G01*
X120880502Y-29305000D01*
X120888405Y-29273404D01*
X120890555Y-29267796D01*
X120913754Y-29227152D01*
X120944843Y-29194667D01*
X120982002Y-29170621D01*
X121023414Y-29155294D01*
X121067257Y-29148968D01*
X121111715Y-29151922D01*
X121154966Y-29164438D01*
X121195192Y-29186796D01*
X121227529Y-29215813D01*
X121245421Y-29237655D01*
X121258676Y-29259350D01*
X121267932Y-29283289D01*
X121273824Y-29311867D01*
X121276988Y-29347476D01*
X121278061Y-29392509D01*
X121278076Y-29405986D01*
X121277784Y-29443881D01*
X121276898Y-29471993D01*
X121275118Y-29493039D01*
X121272143Y-29509735D01*
X121267674Y-29524799D01*
X121263811Y-29535035D01*
X121245370Y-29568013D01*
X121218392Y-29599539D01*
X121186615Y-29625797D01*
X121160858Y-29640182D01*
X121126214Y-29650546D01*
X121085970Y-29655441D01*
X121046045Y-29654265D01*
X121036256Y-29652858D01*
X120990169Y-29638832D01*
X120949489Y-29614331D01*
X120916048Y-29580762D01*
X120893063Y-29542669D01*
X120883981Y-29514055D01*
X120877654Y-29476582D01*
X120874112Y-29433596D01*
X120873614Y-29402622D01*
X120975217Y-29402622D01*
X120976648Y-29448243D01*
X120981290Y-29483237D01*
X120989962Y-29509248D01*
X121003484Y-29527919D01*
X121022675Y-29540895D01*
X121048355Y-29549820D01*
X121048593Y-29549881D01*
X121085133Y-29553735D01*
X121118176Y-29546316D01*
X121137136Y-29535466D01*
X121153187Y-29521558D01*
X121164564Y-29506017D01*
X121172008Y-29486462D01*
X121176256Y-29460510D01*
X121178048Y-29425778D01*
X121178255Y-29402860D01*
X121177996Y-29368861D01*
X121176989Y-29344662D01*
X121174888Y-29327566D01*
X121171345Y-29314874D01*
X121166015Y-29303891D01*
X121165414Y-29302856D01*
X121142888Y-29275289D01*
X121114170Y-29258568D01*
X121079487Y-29252825D01*
X121078771Y-29252823D01*
X121042643Y-29257473D01*
X121014344Y-29271670D01*
X120993209Y-29295788D01*
X120989146Y-29303059D01*
X120982871Y-29316870D01*
X120978778Y-29331081D01*
X120976430Y-29348809D01*
X120975393Y-29373170D01*
X120975217Y-29402622D01*
X120873614Y-29402622D01*
X120873386Y-29388440D01*
X120875506Y-29344460D01*
G37*
G36*
X122121295Y-29151486D02*
G01*
X122158683Y-29159594D01*
X122186158Y-29172421D01*
X122206720Y-29185129D01*
X122194520Y-29201784D01*
X122183374Y-29216055D01*
X122168083Y-29234505D01*
X122158309Y-29245863D01*
X122134297Y-29273286D01*
X122114512Y-29263054D01*
X122089575Y-29255096D01*
X122060885Y-29253181D01*
X122033775Y-29257232D01*
X122017180Y-29264468D01*
X122006270Y-29271898D01*
X121997622Y-29279178D01*
X121990943Y-29287801D01*
X121985940Y-29299263D01*
X121982320Y-29315055D01*
X121979791Y-29336674D01*
X121978058Y-29365612D01*
X121976830Y-29403364D01*
X121975813Y-29451424D01*
X121975326Y-29477878D01*
X121972200Y-29649796D01*
X121920625Y-29651611D01*
X121869050Y-29653427D01*
X121869050Y-29152293D01*
X121920625Y-29154108D01*
X121972200Y-29155924D01*
X121975326Y-29180400D01*
X121977804Y-29195413D01*
X121980912Y-29199819D01*
X121986185Y-29195481D01*
X121986969Y-29194542D01*
X122012175Y-29173131D01*
X122044995Y-29158593D01*
X122082384Y-29151265D01*
X122121295Y-29151486D01*
G37*
G36*
X122038657Y-29945579D02*
G01*
X122074685Y-29964426D01*
X122077377Y-29969283D01*
X122074490Y-29977879D01*
X122065049Y-29991992D01*
X122048080Y-30013397D01*
X122047301Y-30014346D01*
X122011206Y-30058221D01*
X121986728Y-30045462D01*
X121955401Y-30035525D01*
X121923879Y-30036753D01*
X121894887Y-30048292D01*
X121871153Y-30069290D01*
X121861245Y-30084722D01*
X121857882Y-30092595D01*
X121855277Y-30102474D01*
X121853335Y-30115944D01*
X121851964Y-30134591D01*
X121851070Y-30160000D01*
X121850559Y-30193757D01*
X121850338Y-30237446D01*
X121850305Y-30270261D01*
X121850295Y-30434364D01*
X121750271Y-30434364D01*
X121750271Y-29940492D01*
X121850295Y-29940492D01*
X121850295Y-29984889D01*
X121872163Y-29968210D01*
X121910140Y-29946756D01*
X121952323Y-29935800D01*
X121996050Y-29935391D01*
X122038657Y-29945579D01*
G37*
G36*
X120084236Y-30190554D02*
G01*
X120084534Y-30139432D01*
X120085735Y-30098955D01*
X120088295Y-30067270D01*
X120092671Y-30042528D01*
X120099322Y-30022877D01*
X120108704Y-30006465D01*
X120121274Y-29991443D01*
X120137188Y-29976230D01*
X120168730Y-29952925D01*
X120202105Y-29939481D01*
X120241283Y-29934433D01*
X120250627Y-29934302D01*
X120278083Y-29937443D01*
X120307133Y-29945674D01*
X120333405Y-29957342D01*
X120352526Y-29970796D01*
X120355380Y-29973881D01*
X120364540Y-29982273D01*
X120369314Y-29984253D01*
X120371033Y-29978315D01*
X120372695Y-29961758D01*
X120374193Y-29936464D01*
X120375420Y-29904317D01*
X120376268Y-29867201D01*
X120376363Y-29860785D01*
X120378058Y-29737317D01*
X120426508Y-29735491D01*
X120474957Y-29733665D01*
X120474957Y-30434364D01*
X120374932Y-30434364D01*
X120374932Y-30412483D01*
X120373274Y-30396086D01*
X120367775Y-30391470D01*
X120357648Y-30398290D01*
X120353171Y-30402975D01*
X120336795Y-30415019D01*
X120312305Y-30426148D01*
X120284078Y-30434859D01*
X120256487Y-30439651D01*
X120244978Y-30440122D01*
X120220154Y-30437683D01*
X120195202Y-30432243D01*
X120189795Y-30430505D01*
X120156657Y-30413135D01*
X120126302Y-30387005D01*
X120102805Y-30355791D01*
X120098851Y-30348388D01*
X120093907Y-30337724D01*
X120090223Y-30327291D01*
X120087615Y-30315095D01*
X120085897Y-30299143D01*
X120084886Y-30277442D01*
X120084396Y-30247999D01*
X120084278Y-30217486D01*
X120182056Y-30217486D01*
X120186603Y-30259552D01*
X120196300Y-30291685D01*
X120211431Y-30314740D01*
X120232281Y-30329566D01*
X120238451Y-30332097D01*
X120271227Y-30339449D01*
X120302004Y-30335832D01*
X120322365Y-30327811D01*
X120340363Y-30317296D01*
X120353519Y-30304413D01*
X120362537Y-30287164D01*
X120368121Y-30263550D01*
X120370976Y-30231573D01*
X120371804Y-30189233D01*
X120371805Y-30187428D01*
X120371546Y-30152439D01*
X120370547Y-30127222D01*
X120368476Y-30109052D01*
X120365003Y-30095206D01*
X120359794Y-30082958D01*
X120358875Y-30081152D01*
X120340249Y-30057231D01*
X120315259Y-30041665D01*
X120286662Y-30034486D01*
X120257212Y-30035724D01*
X120229665Y-30045411D01*
X120206776Y-30063578D01*
X120196028Y-30079312D01*
X120189445Y-30098902D01*
X120184862Y-30129000D01*
X120182372Y-30164638D01*
X120182056Y-30217486D01*
X120084278Y-30217486D01*
X120084244Y-30208820D01*
X120084236Y-30190554D01*
G37*
G36*
X120028604Y-29944084D02*
G01*
X120042038Y-29949643D01*
X120059721Y-29958697D01*
X120071637Y-29966371D01*
X120074859Y-29970103D01*
X120071110Y-29976956D01*
X120061104Y-29990800D01*
X120046699Y-30009116D01*
X120040211Y-30017025D01*
X120005564Y-30058766D01*
X119985510Y-30046539D01*
X119956073Y-30035323D01*
X119925339Y-30035030D01*
X119896211Y-30044808D01*
X119871596Y-30063807D01*
X119857618Y-30084039D01*
X119853326Y-30093062D01*
X119850009Y-30102136D01*
X119847541Y-30112943D01*
X119845797Y-30127165D01*
X119844651Y-30146483D01*
X119843980Y-30172579D01*
X119843657Y-30207135D01*
X119843557Y-30251833D01*
X119843552Y-30273148D01*
X119843552Y-30434364D01*
X119743527Y-30434364D01*
X119743527Y-29940492D01*
X119843552Y-29940492D01*
X119843552Y-29991479D01*
X119868510Y-29970115D01*
X119903677Y-29947909D01*
X119943812Y-29935965D01*
X119986320Y-29934588D01*
X120028604Y-29944084D01*
G37*
G36*
X119257894Y-29269101D02*
G01*
X119279798Y-29228073D01*
X119300152Y-29203288D01*
X119336052Y-29175782D01*
X119377372Y-29158143D01*
X119421907Y-29150332D01*
X119467448Y-29152312D01*
X119511787Y-29164044D01*
X119552717Y-29185489D01*
X119580090Y-29208165D01*
X119606648Y-29240759D01*
X119625600Y-29278594D01*
X119637514Y-29323407D01*
X119642960Y-29376930D01*
X119643455Y-29401297D01*
X119643502Y-29440369D01*
X119330359Y-29440369D01*
X119334532Y-29463812D01*
X119345862Y-29499670D01*
X119365116Y-29528031D01*
X119390314Y-29546645D01*
X119426809Y-29557639D01*
X119466307Y-29557834D01*
X119506179Y-29547592D01*
X119543796Y-29527275D01*
X119546864Y-29525052D01*
X119554121Y-29520788D01*
X119561438Y-29520842D01*
X119571584Y-29526362D01*
X119587330Y-29538494D01*
X119595488Y-29545185D01*
X119631349Y-29574777D01*
X119602857Y-29600966D01*
X119580872Y-29618007D01*
X119555673Y-29633062D01*
X119541701Y-29639376D01*
X119506580Y-29649114D01*
X119466941Y-29654766D01*
X119428307Y-29655811D01*
X119400516Y-29652715D01*
X119357452Y-29638874D01*
X119318373Y-29616949D01*
X119295209Y-29597443D01*
X119269244Y-29562730D01*
X119250207Y-29520000D01*
X119238068Y-29471625D01*
X119232797Y-29419975D01*
X119234364Y-29367424D01*
X119235729Y-29359099D01*
X119331238Y-29359099D01*
X119537226Y-29359099D01*
X119537226Y-29341328D01*
X119532339Y-29317179D01*
X119519667Y-29291635D01*
X119502195Y-29269653D01*
X119487156Y-29258170D01*
X119458414Y-29248494D01*
X119426499Y-29246741D01*
X119396371Y-29252794D01*
X119380299Y-29260720D01*
X119358016Y-29282597D01*
X119341796Y-29313361D01*
X119334906Y-29338781D01*
X119331238Y-29359099D01*
X119235729Y-29359099D01*
X119242740Y-29316342D01*
X119257894Y-29269101D01*
G37*
G36*
X121246160Y-30245731D02*
G01*
X121263204Y-30208661D01*
X121290470Y-30178461D01*
X121325166Y-30156873D01*
X121338641Y-30151518D01*
X121353849Y-30147665D01*
X121373330Y-30144992D01*
X121399625Y-30143178D01*
X121435272Y-30141901D01*
X121445508Y-30141639D01*
X121537718Y-30139395D01*
X121537718Y-30103151D01*
X121535906Y-30076354D01*
X121530080Y-30058986D01*
X121526778Y-30054416D01*
X121507483Y-30040661D01*
X121480317Y-30031843D01*
X121448722Y-30027950D01*
X121416142Y-30028970D01*
X121386017Y-30034890D01*
X121361791Y-30045698D01*
X121351083Y-30055041D01*
X121345803Y-30059568D01*
X121339094Y-30059431D01*
X121328425Y-30053615D01*
X121311263Y-30041106D01*
X121305759Y-30036889D01*
X121287957Y-30022545D01*
X121274878Y-30010775D01*
X121269007Y-30003840D01*
X121268902Y-30003369D01*
X121274034Y-29993735D01*
X121287395Y-29980921D01*
X121305931Y-29967137D01*
X121326592Y-29954593D01*
X121346323Y-29945500D01*
X121350934Y-29943971D01*
X121384419Y-29937434D01*
X121424894Y-29934642D01*
X121467431Y-29935574D01*
X121507099Y-29940206D01*
X121527603Y-29944788D01*
X121560910Y-29958802D01*
X121590988Y-29980037D01*
X121614895Y-30005853D01*
X121629686Y-30033610D01*
X121630832Y-30037391D01*
X121632948Y-30051792D01*
X121634719Y-30077654D01*
X121636110Y-30113939D01*
X121637087Y-30159609D01*
X121637618Y-30213627D01*
X121637708Y-30248380D01*
X121637743Y-30434364D01*
X121537718Y-30434364D01*
X121537718Y-30395743D01*
X121518770Y-30411687D01*
X121499426Y-30424380D01*
X121478052Y-30433657D01*
X121476572Y-30434088D01*
X121445789Y-30439122D01*
X121409335Y-30439914D01*
X121373050Y-30436670D01*
X121342775Y-30429592D01*
X121342277Y-30429415D01*
X121302546Y-30409309D01*
X121271830Y-30381522D01*
X121250896Y-30347519D01*
X121240511Y-30308767D01*
X121241018Y-30285890D01*
X121337868Y-30285890D01*
X121342943Y-30310406D01*
X121357430Y-30328436D01*
X121376582Y-30337062D01*
X121394019Y-30340948D01*
X121403310Y-30343129D01*
X121421551Y-30344973D01*
X121445875Y-30344227D01*
X121471737Y-30341400D01*
X121494592Y-30337004D01*
X121509897Y-30331552D01*
X121510727Y-30331041D01*
X121526007Y-30315765D01*
X121534746Y-30293220D01*
X121537708Y-30261370D01*
X121537718Y-30258914D01*
X121537718Y-30228063D01*
X121459163Y-30228063D01*
X121416674Y-30228933D01*
X121385100Y-30232020D01*
X121362942Y-30238037D01*
X121348704Y-30247699D01*
X121340887Y-30261719D01*
X121337994Y-30280813D01*
X121337868Y-30285890D01*
X121241018Y-30285890D01*
X121241442Y-30266733D01*
X121246160Y-30245731D01*
G37*
G36*
X120972897Y-30109002D02*
G01*
X120987066Y-30152228D01*
X121000158Y-30191047D01*
X121011658Y-30224018D01*
X121021048Y-30249696D01*
X121027813Y-30266638D01*
X121031434Y-30273400D01*
X121031744Y-30273395D01*
X121034441Y-30266314D01*
X121039879Y-30248806D01*
X121047581Y-30222524D01*
X121057070Y-30189124D01*
X121067867Y-30150260D01*
X121078192Y-30112409D01*
X121089730Y-30069880D01*
X121100300Y-30031149D01*
X121109434Y-29997913D01*
X121116664Y-29971867D01*
X121121522Y-29954707D01*
X121123463Y-29948306D01*
X121130500Y-29943953D01*
X121148142Y-29941390D01*
X121177263Y-29940495D01*
X121179593Y-29940492D01*
X121206597Y-29940977D01*
X121222722Y-29942595D01*
X121229557Y-29945595D01*
X121229810Y-29948306D01*
X121227068Y-29956505D01*
X121221194Y-29974612D01*
X121212836Y-30000618D01*
X121202638Y-30032513D01*
X121191248Y-30068288D01*
X121191133Y-30068649D01*
X121177173Y-30112526D01*
X121160840Y-30163767D01*
X121143585Y-30217832D01*
X121126855Y-30270180D01*
X121114824Y-30307770D01*
X121074272Y-30434364D01*
X120984124Y-30434364D01*
X120934625Y-30268315D01*
X120921580Y-30224932D01*
X120909537Y-30185601D01*
X120898992Y-30151880D01*
X120890436Y-30125325D01*
X120884366Y-30107492D01*
X120881274Y-30099938D01*
X120881145Y-30099806D01*
X120878412Y-30104899D01*
X120872679Y-30120504D01*
X120864431Y-30145128D01*
X120854155Y-30177276D01*
X120842337Y-30215454D01*
X120829463Y-30258166D01*
X120827643Y-30264291D01*
X120778123Y-30431238D01*
X120732726Y-30433076D01*
X120706579Y-30433366D01*
X120691095Y-30431492D01*
X120684583Y-30427237D01*
X120684413Y-30426825D01*
X120681099Y-30416944D01*
X120674681Y-30397200D01*
X120665648Y-30369135D01*
X120654488Y-30334289D01*
X120641692Y-30294204D01*
X120627747Y-30250421D01*
X120613143Y-30204480D01*
X120598369Y-30157923D01*
X120583913Y-30112290D01*
X120570265Y-30069123D01*
X120557914Y-30029962D01*
X120547348Y-29996349D01*
X120539056Y-29969824D01*
X120533528Y-29951929D01*
X120531252Y-29944205D01*
X120531221Y-29944029D01*
X120536992Y-29942426D01*
X120552387Y-29941203D01*
X120574526Y-29940550D01*
X120584065Y-29940492D01*
X120636909Y-29940492D01*
X120642448Y-29960810D01*
X120645600Y-29972430D01*
X120651486Y-29994182D01*
X120659582Y-30024124D01*
X120669362Y-30060316D01*
X120680303Y-30100819D01*
X120688065Y-30129565D01*
X120699233Y-30170475D01*
X120709456Y-30207062D01*
X120718258Y-30237694D01*
X120725165Y-30260741D01*
X120729701Y-30274573D01*
X120731270Y-30277917D01*
X120733908Y-30272185D01*
X120739805Y-30256040D01*
X120748449Y-30230989D01*
X120759330Y-30198542D01*
X120771936Y-30160207D01*
X120785757Y-30117491D01*
X120787927Y-30110724D01*
X120841459Y-29943618D01*
X120879839Y-29941764D01*
X120918219Y-29939911D01*
X120972897Y-30109002D01*
G37*
G36*
X121470230Y-29324023D02*
G01*
X121470826Y-29375054D01*
X121471463Y-29415104D01*
X121472263Y-29445694D01*
X121473342Y-29468346D01*
X121474819Y-29484580D01*
X121476814Y-29495918D01*
X121479445Y-29503882D01*
X121482831Y-29509993D01*
X121484967Y-29512994D01*
X121506121Y-29536186D01*
X121528753Y-29549097D01*
X121556631Y-29553738D01*
X121561515Y-29553845D01*
X121596195Y-29549554D01*
X121623314Y-29535627D01*
X121644032Y-29511387D01*
X121648683Y-29502980D01*
X121652974Y-29494003D01*
X121656291Y-29484969D01*
X121658759Y-29474197D01*
X121660504Y-29460008D01*
X121661649Y-29440721D01*
X121662321Y-29414655D01*
X121662644Y-29380131D01*
X121662744Y-29335468D01*
X121662749Y-29314014D01*
X121662749Y-29152798D01*
X121762774Y-29152798D01*
X121762774Y-29652921D01*
X121662749Y-29652921D01*
X121662749Y-29603754D01*
X121631699Y-29624650D01*
X121590748Y-29645917D01*
X121548322Y-29656291D01*
X121506687Y-29655289D01*
X121497083Y-29653307D01*
X121453802Y-29636638D01*
X121417647Y-29609845D01*
X121389395Y-29573573D01*
X121380235Y-29556022D01*
X121376111Y-29546638D01*
X121372862Y-29537436D01*
X121370383Y-29526855D01*
X121368569Y-29513328D01*
X121367318Y-29495292D01*
X121366523Y-29471183D01*
X121366080Y-29439436D01*
X121365886Y-29398487D01*
X121365835Y-29346771D01*
X121365833Y-29340344D01*
X121365801Y-29155924D01*
X121417092Y-29154113D01*
X121468384Y-29152302D01*
X121470230Y-29324023D01*
G37*
G36*
X122630994Y-29321537D02*
G01*
X122648106Y-29268495D01*
X122673239Y-29224780D01*
X122706169Y-29190633D01*
X122746671Y-29166291D01*
X122789267Y-29152995D01*
X122838392Y-29149200D01*
X122886096Y-29157477D01*
X122930916Y-29177394D01*
X122968516Y-29205789D01*
X122992249Y-29231071D01*
X123009270Y-29257451D01*
X123020639Y-29287731D01*
X123027417Y-29324718D01*
X123030622Y-29370039D01*
X123033186Y-29440369D01*
X122725511Y-29440369D01*
X122725511Y-29457799D01*
X122729703Y-29479144D01*
X122740490Y-29503823D01*
X122755184Y-29526790D01*
X122770750Y-29542748D01*
X122790254Y-29551555D01*
X122817149Y-29556956D01*
X122846681Y-29558513D01*
X122874095Y-29555786D01*
X122883955Y-29553217D01*
X122904103Y-29544624D01*
X122925265Y-29532850D01*
X122928816Y-29530524D01*
X122951443Y-29515169D01*
X122985388Y-29544170D01*
X123002093Y-29559098D01*
X123014211Y-29571179D01*
X123019302Y-29577966D01*
X123019333Y-29578207D01*
X123014910Y-29584868D01*
X123003731Y-29595882D01*
X122997250Y-29601447D01*
X122951918Y-29630941D01*
X122901452Y-29649787D01*
X122848105Y-29657426D01*
X122794130Y-29653295D01*
X122791152Y-29652708D01*
X122742788Y-29637074D01*
X122702048Y-29611624D01*
X122669298Y-29576724D01*
X122644903Y-29532741D01*
X122632300Y-29493969D01*
X122628012Y-29467379D01*
X122625549Y-29433025D01*
X122624946Y-29395519D01*
X122626238Y-29359472D01*
X122626278Y-29359099D01*
X122725511Y-29359099D01*
X122933203Y-29359099D01*
X122928909Y-29335656D01*
X122917114Y-29299713D01*
X122897028Y-29272311D01*
X122869667Y-29254359D01*
X122836051Y-29246768D01*
X122829202Y-29246571D01*
X122800697Y-29249620D01*
X122776480Y-29257698D01*
X122775581Y-29258170D01*
X122756437Y-29273933D01*
X122739765Y-29297124D01*
X122728550Y-29322786D01*
X122725511Y-29341328D01*
X122725511Y-29359099D01*
X122626278Y-29359099D01*
X122629460Y-29329494D01*
X122630994Y-29321537D01*
G37*
G36*
X120715147Y-25439406D02*
G01*
X120765844Y-25439508D01*
X120806396Y-25439748D01*
X120837982Y-25440181D01*
X120861781Y-25440864D01*
X120878972Y-25441854D01*
X120890734Y-25443207D01*
X120898246Y-25444980D01*
X120902686Y-25447228D01*
X120905235Y-25450010D01*
X120906108Y-25451505D01*
X120908678Y-25460210D01*
X120913204Y-25479795D01*
X120919398Y-25508839D01*
X120926971Y-25545921D01*
X120935633Y-25589621D01*
X120945095Y-25638520D01*
X120955068Y-25691196D01*
X120956715Y-25700004D01*
X120966763Y-25752967D01*
X120976416Y-25802209D01*
X120985379Y-25846339D01*
X120993355Y-25883968D01*
X121000050Y-25913705D01*
X121005165Y-25934161D01*
X121008407Y-25943946D01*
X121008759Y-25944457D01*
X121017050Y-25949406D01*
X121035149Y-25958103D01*
X121061202Y-25969788D01*
X121093352Y-25983700D01*
X121129746Y-25999079D01*
X121168530Y-26015166D01*
X121207848Y-26031200D01*
X121245846Y-26046422D01*
X121280669Y-26060071D01*
X121310463Y-26071387D01*
X121333374Y-26079611D01*
X121347546Y-26083981D01*
X121350449Y-26084485D01*
X121359327Y-26081783D01*
X121376018Y-26073093D01*
X121400931Y-26058158D01*
X121434477Y-26036719D01*
X121477064Y-26008517D01*
X121529103Y-25973294D01*
X121559329Y-25952601D01*
X121611697Y-25916641D01*
X121654738Y-25887134D01*
X121689437Y-25863465D01*
X121716782Y-25845019D01*
X121737759Y-25831181D01*
X121753353Y-25821336D01*
X121764552Y-25814870D01*
X121772342Y-25811169D01*
X121777709Y-25809616D01*
X121781639Y-25809597D01*
X121785120Y-25810499D01*
X121786570Y-25810967D01*
X121794560Y-25816500D01*
X121809784Y-25829775D01*
X121831068Y-25849596D01*
X121857237Y-25874767D01*
X121887115Y-25904092D01*
X121919527Y-25936373D01*
X121953298Y-25970415D01*
X121987254Y-26005023D01*
X122020218Y-26038999D01*
X122051015Y-26071147D01*
X122078472Y-26100271D01*
X122101411Y-26125176D01*
X122118659Y-26144664D01*
X122129040Y-26157539D01*
X122131615Y-26162199D01*
X122128175Y-26170076D01*
X122118375Y-26187008D01*
X122102993Y-26211784D01*
X122082809Y-26243195D01*
X122058600Y-26280031D01*
X122031147Y-26321082D01*
X122001227Y-26365138D01*
X121997207Y-26371009D01*
X121956854Y-26430317D01*
X121923586Y-26480165D01*
X121897476Y-26520440D01*
X121878595Y-26551026D01*
X121867018Y-26571809D01*
X121862815Y-26582674D01*
X121862798Y-26583039D01*
X121865265Y-26594109D01*
X121872147Y-26614451D01*
X121882667Y-26642271D01*
X121896049Y-26675776D01*
X121911517Y-26713174D01*
X121928294Y-26752672D01*
X121945604Y-26792476D01*
X121962669Y-26830794D01*
X121978714Y-26865833D01*
X121992962Y-26895799D01*
X122004636Y-26918900D01*
X122012960Y-26933343D01*
X122016200Y-26937235D01*
X122025142Y-26940301D01*
X122044912Y-26945253D01*
X122074031Y-26951780D01*
X122111017Y-26959570D01*
X122154392Y-26968311D01*
X122202676Y-26977689D01*
X122250633Y-26986699D01*
X122302208Y-26996325D01*
X122350311Y-27005474D01*
X122393453Y-27013851D01*
X122430144Y-27021158D01*
X122458892Y-27027099D01*
X122478209Y-27031378D01*
X122486389Y-27033600D01*
X122500455Y-27039510D01*
X122500455Y-27289037D01*
X122500424Y-27351644D01*
X122500298Y-27402903D01*
X122500026Y-27443969D01*
X122499559Y-27475997D01*
X122498848Y-27500144D01*
X122497842Y-27517563D01*
X122496492Y-27529409D01*
X122494748Y-27536839D01*
X122492561Y-27541007D01*
X122489881Y-27543069D01*
X122489515Y-27543233D01*
X122481027Y-27545428D01*
X122461696Y-27549615D01*
X122432973Y-27555504D01*
X122396310Y-27562806D01*
X122353156Y-27571233D01*
X122304964Y-27580496D01*
X122253886Y-27590173D01*
X122191302Y-27602073D01*
X122140124Y-27612106D01*
X122099429Y-27620480D01*
X122068294Y-27627406D01*
X122045796Y-27633095D01*
X122031011Y-27637757D01*
X122023017Y-27641601D01*
X122021399Y-27643108D01*
X122017171Y-27651448D01*
X122008987Y-27669875D01*
X121997493Y-27696850D01*
X121983333Y-27730836D01*
X121967154Y-27770294D01*
X121949600Y-27813684D01*
X121943757Y-27828250D01*
X121920766Y-27886390D01*
X121902743Y-27933565D01*
X121889535Y-27970215D01*
X121880988Y-27996780D01*
X121876947Y-28013701D01*
X121876675Y-28019813D01*
X121880784Y-28028820D01*
X121891228Y-28046777D01*
X121907175Y-28072391D01*
X121927791Y-28104366D01*
X121952245Y-28141409D01*
X121979704Y-28182226D01*
X122005526Y-28220001D01*
X122034757Y-28262746D01*
X122061592Y-28302557D01*
X122085223Y-28338192D01*
X122104844Y-28368411D01*
X122119648Y-28391972D01*
X122128828Y-28407635D01*
X122131615Y-28413948D01*
X122127317Y-28420628D01*
X122115062Y-28435065D01*
X122095804Y-28456246D01*
X122070498Y-28483158D01*
X122040098Y-28514790D01*
X122005561Y-28550130D01*
X121967840Y-28588165D01*
X121957656Y-28598343D01*
X121912398Y-28643362D01*
X121875083Y-28680140D01*
X121844928Y-28709390D01*
X121821149Y-28731827D01*
X121802962Y-28748161D01*
X121789583Y-28759106D01*
X121780229Y-28765376D01*
X121774115Y-28767681D01*
X121771673Y-28767458D01*
X121763838Y-28762975D01*
X121746983Y-28752229D01*
X121722375Y-28736066D01*
X121691281Y-28715330D01*
X121654970Y-28690865D01*
X121614708Y-28663514D01*
X121578985Y-28639082D01*
X121536442Y-28610128D01*
X121496776Y-28583574D01*
X121461250Y-28560232D01*
X121431128Y-28540915D01*
X121407673Y-28526434D01*
X121392149Y-28517601D01*
X121386152Y-28515141D01*
X121376529Y-28517990D01*
X121358245Y-28525827D01*
X121333579Y-28537591D01*
X121304814Y-28552219D01*
X121291747Y-28559128D01*
X121262011Y-28574520D01*
X121235454Y-28587313D01*
X121214329Y-28596494D01*
X121200887Y-28601047D01*
X121197996Y-28601325D01*
X121194606Y-28598452D01*
X121189281Y-28590185D01*
X121181738Y-28575879D01*
X121171691Y-28554888D01*
X121158857Y-28526569D01*
X121142951Y-28490276D01*
X121123691Y-28445365D01*
X121100790Y-28391190D01*
X121073967Y-28327107D01*
X121042935Y-28252472D01*
X121021390Y-28200449D01*
X120993701Y-28133343D01*
X120967469Y-28069434D01*
X120943081Y-28009689D01*
X120920927Y-27955076D01*
X120901393Y-27906561D01*
X120884869Y-27865111D01*
X120871743Y-27831694D01*
X120862403Y-27807276D01*
X120857237Y-27792824D01*
X120856301Y-27789273D01*
X120861759Y-27777847D01*
X120876657Y-27764321D01*
X120882870Y-27760067D01*
X120900656Y-27748132D01*
X120924060Y-27731793D01*
X120948684Y-27714131D01*
X120954392Y-27709960D01*
X121015133Y-27657961D01*
X121066184Y-27598842D01*
X121107213Y-27533777D01*
X121137886Y-27463939D01*
X121157874Y-27390501D01*
X121166842Y-27314636D01*
X121164458Y-27237516D01*
X121150391Y-27160314D01*
X121128669Y-27094684D01*
X121109103Y-27051811D01*
X121086112Y-27013186D01*
X121057393Y-26975485D01*
X121020644Y-26935386D01*
X121012589Y-26927248D01*
X120957189Y-26877993D01*
X120899487Y-26839533D01*
X120836639Y-26810173D01*
X120790660Y-26794870D01*
X120745965Y-26785565D01*
X120693790Y-26780421D01*
X120638444Y-26779439D01*
X120584236Y-26782619D01*
X120535475Y-26789961D01*
X120515592Y-26794870D01*
X120441943Y-26822327D01*
X120373930Y-26860104D01*
X120312567Y-26907119D01*
X120258869Y-26962286D01*
X120213850Y-27024523D01*
X120178525Y-27092745D01*
X120153907Y-27165870D01*
X120149233Y-27186288D01*
X120139205Y-27264841D01*
X120141194Y-27342763D01*
X120154726Y-27418831D01*
X120179328Y-27491825D01*
X120214528Y-27560520D01*
X120259853Y-27623696D01*
X120314829Y-27680131D01*
X120351860Y-27709960D01*
X120376114Y-27727478D01*
X120400222Y-27744425D01*
X120419788Y-27757721D01*
X120423382Y-27760067D01*
X120440766Y-27773750D01*
X120449398Y-27786090D01*
X120449951Y-27789273D01*
X120447612Y-27796954D01*
X120440855Y-27815210D01*
X120430067Y-27843075D01*
X120415637Y-27879580D01*
X120397953Y-27923760D01*
X120377403Y-27974647D01*
X120354376Y-28031273D01*
X120329260Y-28092673D01*
X120302443Y-28157880D01*
X120284862Y-28200449D01*
X120251071Y-28281973D01*
X120221664Y-28352543D01*
X120196357Y-28412804D01*
X120174866Y-28463400D01*
X120156907Y-28504977D01*
X120142197Y-28538179D01*
X120130450Y-28563651D01*
X120121383Y-28582039D01*
X120114712Y-28593986D01*
X120110152Y-28600138D01*
X120108256Y-28601325D01*
X120098888Y-28599117D01*
X120080850Y-28591838D01*
X120056394Y-28580502D01*
X120027773Y-28566123D01*
X120014504Y-28559128D01*
X119984676Y-28543594D01*
X119957967Y-28530468D01*
X119936659Y-28520812D01*
X119923031Y-28515687D01*
X119920100Y-28515141D01*
X119912246Y-28518579D01*
X119895396Y-28528350D01*
X119870813Y-28543642D01*
X119839761Y-28563644D01*
X119803503Y-28587542D01*
X119763302Y-28614526D01*
X119727267Y-28639082D01*
X119684677Y-28668193D01*
X119644980Y-28695125D01*
X119609443Y-28719033D01*
X119579333Y-28739073D01*
X119555918Y-28754400D01*
X119540464Y-28764169D01*
X119534578Y-28767458D01*
X119530034Y-28767190D01*
X119522720Y-28763387D01*
X119511852Y-28755336D01*
X119496647Y-28742324D01*
X119476321Y-28723638D01*
X119450090Y-28698566D01*
X119417169Y-28666395D01*
X119376776Y-28626412D01*
X119348595Y-28598343D01*
X119310205Y-28559775D01*
X119274750Y-28523639D01*
X119243186Y-28490948D01*
X119216468Y-28462715D01*
X119195549Y-28439950D01*
X119181386Y-28423668D01*
X119174934Y-28414879D01*
X119174637Y-28413948D01*
X119178080Y-28406434D01*
X119187871Y-28389907D01*
X119203204Y-28365609D01*
X119223271Y-28334781D01*
X119247266Y-28298662D01*
X119274383Y-28258495D01*
X119300726Y-28220001D01*
X119330129Y-28176944D01*
X119357256Y-28136529D01*
X119381274Y-28100050D01*
X119401351Y-28068802D01*
X119416653Y-28044078D01*
X119426348Y-28027173D01*
X119429576Y-28019813D01*
X119428435Y-28009039D01*
X119422889Y-27988911D01*
X119412786Y-27958990D01*
X119397969Y-27918836D01*
X119378286Y-27868008D01*
X119362495Y-27828250D01*
X119344635Y-27783920D01*
X119327942Y-27743027D01*
X119313062Y-27707110D01*
X119300638Y-27677708D01*
X119291317Y-27656358D01*
X119285744Y-27644600D01*
X119284853Y-27643108D01*
X119279591Y-27639560D01*
X119267950Y-27635289D01*
X119249007Y-27630085D01*
X119221839Y-27623736D01*
X119185523Y-27616034D01*
X119139136Y-27606767D01*
X119081755Y-27595726D01*
X119052366Y-27590173D01*
X119000623Y-27580369D01*
X118952488Y-27571116D01*
X118909411Y-27562702D01*
X118872843Y-27555416D01*
X118844235Y-27549547D01*
X118825039Y-27545385D01*
X118816736Y-27543233D01*
X118813992Y-27541351D01*
X118811747Y-27537504D01*
X118809952Y-27530537D01*
X118808556Y-27519295D01*
X118807511Y-27502623D01*
X118806766Y-27479366D01*
X118806272Y-27448368D01*
X118805979Y-27408474D01*
X118805837Y-27358530D01*
X118805797Y-27297380D01*
X118805796Y-27289037D01*
X118805796Y-27039510D01*
X118819862Y-27033600D01*
X118829116Y-27031125D01*
X118849181Y-27026713D01*
X118878568Y-27020660D01*
X118915787Y-27013264D01*
X118959347Y-27004820D01*
X119007759Y-26995626D01*
X119055618Y-26986699D01*
X119107136Y-26977008D01*
X119155120Y-26967665D01*
X119198090Y-26958982D01*
X119234567Y-26951271D01*
X119263070Y-26944846D01*
X119282119Y-26940017D01*
X119290051Y-26937235D01*
X119295787Y-26929366D01*
X119305377Y-26911676D01*
X119318044Y-26885958D01*
X119333012Y-26854004D01*
X119349504Y-26817609D01*
X119366744Y-26778564D01*
X119383955Y-26738663D01*
X119400360Y-26699699D01*
X119415183Y-26663465D01*
X119427648Y-26631753D01*
X119436978Y-26606357D01*
X119442397Y-26589070D01*
X119443453Y-26583039D01*
X119439739Y-26572831D01*
X119428645Y-26552699D01*
X119410244Y-26522756D01*
X119384608Y-26483116D01*
X119351810Y-26433896D01*
X119311922Y-26375208D01*
X119309045Y-26371009D01*
X119278863Y-26326652D01*
X119251045Y-26285143D01*
X119226372Y-26247693D01*
X119205622Y-26215510D01*
X119189573Y-26189805D01*
X119179005Y-26171787D01*
X119174697Y-26162667D01*
X119174637Y-26162199D01*
X119178916Y-26155244D01*
X119190968Y-26140754D01*
X119209619Y-26119924D01*
X119233693Y-26093950D01*
X119262016Y-26064030D01*
X119293412Y-26031359D01*
X119326706Y-25997134D01*
X119360722Y-25962550D01*
X119394287Y-25928804D01*
X119426224Y-25897093D01*
X119455359Y-25868611D01*
X119480516Y-25844557D01*
X119500520Y-25826125D01*
X119514196Y-25814512D01*
X119519682Y-25810967D01*
X119523344Y-25809885D01*
X119527143Y-25809541D01*
X119532065Y-25810549D01*
X119539096Y-25813523D01*
X119549224Y-25819079D01*
X119563434Y-25827831D01*
X119582712Y-25840393D01*
X119608047Y-25857381D01*
X119640424Y-25879409D01*
X119680830Y-25907091D01*
X119730252Y-25941042D01*
X119747606Y-25952970D01*
X119804558Y-25991858D01*
X119851848Y-26023582D01*
X119889878Y-26048396D01*
X119919052Y-26066554D01*
X119939772Y-26078311D01*
X119952440Y-26083922D01*
X119955797Y-26084505D01*
X119965764Y-26081986D01*
X119985254Y-26075293D01*
X120012412Y-26065186D01*
X120045379Y-26052425D01*
X120082298Y-26037772D01*
X120121311Y-26021987D01*
X120160561Y-26005832D01*
X120198190Y-25990066D01*
X120232340Y-25975451D01*
X120261153Y-25962748D01*
X120282773Y-25952716D01*
X120295342Y-25946118D01*
X120297437Y-25944591D01*
X120300367Y-25936782D01*
X120305213Y-25918058D01*
X120311680Y-25889812D01*
X120319470Y-25853436D01*
X120328288Y-25810320D01*
X120337836Y-25761856D01*
X120347818Y-25709436D01*
X120349559Y-25700108D01*
X120359562Y-25646957D01*
X120369106Y-25597349D01*
X120377901Y-25552706D01*
X120385659Y-25514450D01*
X120392091Y-25484002D01*
X120396906Y-25462783D01*
X120399818Y-25452217D01*
X120400087Y-25451610D01*
X120402149Y-25448535D01*
X120405509Y-25446024D01*
X120411345Y-25444019D01*
X120420837Y-25442464D01*
X120435166Y-25441302D01*
X120455510Y-25440476D01*
X120483048Y-25439928D01*
X120518962Y-25439603D01*
X120564430Y-25439442D01*
X120620631Y-25439388D01*
X120653126Y-25439385D01*
X120715147Y-25439406D01*
G37*
G36*
X118281924Y-29305908D02*
G01*
X118292378Y-29270103D01*
X118308249Y-29239849D01*
X118330248Y-29212975D01*
X118339719Y-29203789D01*
X118379089Y-29175134D01*
X118422116Y-29157034D01*
X118467003Y-29149129D01*
X118511955Y-29151056D01*
X118555176Y-29162456D01*
X118594871Y-29182967D01*
X118629243Y-29212228D01*
X118656497Y-29249878D01*
X118665926Y-29269377D01*
X118673106Y-29294811D01*
X118678084Y-29329300D01*
X118680863Y-29369595D01*
X118681445Y-29412443D01*
X118679834Y-29454595D01*
X118676031Y-29492798D01*
X118670041Y-29523802D01*
X118665695Y-29536896D01*
X118643178Y-29576289D01*
X118612097Y-29609732D01*
X118575070Y-29634783D01*
X118549483Y-29645277D01*
X118512255Y-29653121D01*
X118471686Y-29655788D01*
X118436458Y-29653036D01*
X118391470Y-29638863D01*
X118350457Y-29613032D01*
X118334899Y-29599091D01*
X118311617Y-29571840D01*
X118294568Y-29541065D01*
X118283113Y-29504692D01*
X118276611Y-29460644D01*
X118274424Y-29406846D01*
X118274416Y-29402860D01*
X118377566Y-29402860D01*
X118378347Y-29443214D01*
X118381187Y-29473524D01*
X118386830Y-29496180D01*
X118396023Y-29513574D01*
X118409509Y-29528094D01*
X118418969Y-29535678D01*
X118446617Y-29549083D01*
X118479090Y-29553697D01*
X118512301Y-29549496D01*
X118542158Y-29536454D01*
X118542193Y-29536431D01*
X118557929Y-29521791D01*
X118569182Y-29500494D01*
X118576390Y-29471015D01*
X118579991Y-29431827D01*
X118580604Y-29402622D01*
X118580359Y-29369832D01*
X118579189Y-29346421D01*
X118576657Y-29329273D01*
X118572328Y-29315271D01*
X118566675Y-29303059D01*
X118547162Y-29277171D01*
X118521431Y-29260271D01*
X118491961Y-29252361D01*
X118461228Y-29253446D01*
X118431709Y-29263528D01*
X118405882Y-29282609D01*
X118390407Y-29302856D01*
X118384893Y-29313818D01*
X118381198Y-29326236D01*
X118378976Y-29342807D01*
X118377882Y-29366228D01*
X118377568Y-29399198D01*
X118377566Y-29402860D01*
X118274416Y-29402860D01*
X118276174Y-29349437D01*
X118281924Y-29305908D01*
G37*
G36*
X119249497Y-30227197D02*
G01*
X119267051Y-30195966D01*
X119278538Y-30183071D01*
X119295312Y-30169137D01*
X119313137Y-30158814D01*
X119334320Y-30151508D01*
X119361170Y-30146623D01*
X119395996Y-30143565D01*
X119438765Y-30141805D01*
X119530975Y-30139179D01*
X119530975Y-30105065D01*
X119529762Y-30083354D01*
X119526660Y-30065205D01*
X119524220Y-30058331D01*
X119510268Y-30044349D01*
X119486852Y-30034125D01*
X119456706Y-30028657D01*
X119441310Y-30028014D01*
X119406413Y-30029474D01*
X119380847Y-30034342D01*
X119361730Y-30043351D01*
X119352723Y-30050518D01*
X119336834Y-30065244D01*
X119299496Y-30036248D01*
X119281604Y-30021767D01*
X119268389Y-30009955D01*
X119262307Y-30003031D01*
X119262159Y-30002491D01*
X119266539Y-29996123D01*
X119277830Y-29984729D01*
X119288560Y-29975132D01*
X119314909Y-29956543D01*
X119344575Y-29944034D01*
X119379985Y-29937008D01*
X119423568Y-29934870D01*
X119449980Y-29935479D01*
X119482514Y-29937268D01*
X119506330Y-29939986D01*
X119525213Y-29944373D01*
X119542947Y-29951171D01*
X119552099Y-29955477D01*
X119586718Y-29977763D01*
X119611557Y-30006681D01*
X119625002Y-30034265D01*
X119627708Y-30045811D01*
X119629988Y-30065444D01*
X119631887Y-30094040D01*
X119633452Y-30132473D01*
X119634725Y-30181620D01*
X119635753Y-30242355D01*
X119635792Y-30245255D01*
X119638349Y-30434364D01*
X119530975Y-30434364D01*
X119530975Y-30395743D01*
X119512026Y-30411687D01*
X119492683Y-30424380D01*
X119471309Y-30433657D01*
X119469828Y-30434088D01*
X119440599Y-30438875D01*
X119405582Y-30439812D01*
X119370842Y-30437020D01*
X119345455Y-30431616D01*
X119305089Y-30413586D01*
X119272420Y-30387802D01*
X119249078Y-30355757D01*
X119240723Y-30335740D01*
X119235322Y-30301167D01*
X119236501Y-30287599D01*
X119331257Y-30287599D01*
X119338156Y-30308733D01*
X119353535Y-30326711D01*
X119376359Y-30338911D01*
X119384418Y-30341036D01*
X119403672Y-30343214D01*
X119429293Y-30343796D01*
X119456829Y-30342946D01*
X119481831Y-30340827D01*
X119499845Y-30337600D01*
X119502549Y-30336712D01*
X119515665Y-30325439D01*
X119525275Y-30304494D01*
X119530396Y-30276452D01*
X119530975Y-30262272D01*
X119530975Y-30227094D01*
X119447063Y-30229141D01*
X119412897Y-30230111D01*
X119388852Y-30231340D01*
X119372551Y-30233238D01*
X119361613Y-30236213D01*
X119353659Y-30240676D01*
X119347039Y-30246344D01*
X119333873Y-30265929D01*
X119331257Y-30287599D01*
X119236501Y-30287599D01*
X119238583Y-30263625D01*
X119249497Y-30227197D01*
G37*
G36*
X122435509Y-29148847D02*
G01*
X122459168Y-29152973D01*
X122469236Y-29155443D01*
X122509930Y-29169886D01*
X122548014Y-29190751D01*
X122578813Y-29215425D01*
X122581551Y-29218254D01*
X122591071Y-29229261D01*
X122592440Y-29236479D01*
X122586160Y-29245144D01*
X122584316Y-29247195D01*
X122571847Y-29259426D01*
X122555083Y-29274039D01*
X122549342Y-29278697D01*
X122526336Y-29296942D01*
X122497527Y-29276636D01*
X122478529Y-29264754D01*
X122460578Y-29258086D01*
X122438017Y-29254829D01*
X122426761Y-29254096D01*
X122386789Y-29255986D01*
X122354968Y-29266800D01*
X122330104Y-29287155D01*
X122313468Y-29312574D01*
X122305785Y-29329631D01*
X122301075Y-29346228D01*
X122298651Y-29366334D01*
X122297823Y-29393915D01*
X122297784Y-29402860D01*
X122298284Y-29433618D01*
X122300301Y-29455822D01*
X122304469Y-29473391D01*
X122311424Y-29490244D01*
X122312192Y-29491825D01*
X122332541Y-29520264D01*
X122360235Y-29540349D01*
X122392967Y-29551672D01*
X122428431Y-29553831D01*
X122464322Y-29546417D01*
X122498332Y-29529027D01*
X122503273Y-29525423D01*
X122525728Y-29508296D01*
X122549038Y-29526782D01*
X122566005Y-29541044D01*
X122580622Y-29554658D01*
X122584257Y-29558459D01*
X122592232Y-29568513D01*
X122591684Y-29575808D01*
X122584257Y-29584882D01*
X122559455Y-29606747D01*
X122527092Y-29627273D01*
X122492013Y-29643538D01*
X122480201Y-29647619D01*
X122451901Y-29655074D01*
X122426670Y-29657908D01*
X122398978Y-29656394D01*
X122374997Y-29652867D01*
X122337084Y-29641771D01*
X122298798Y-29622577D01*
X122265687Y-29598200D01*
X122259283Y-29592062D01*
X122232355Y-29556354D01*
X122212320Y-29512106D01*
X122199743Y-29461558D01*
X122195187Y-29406952D01*
X122198978Y-29352132D01*
X122212010Y-29295468D01*
X122233298Y-29248168D01*
X122262973Y-29210091D01*
X122301166Y-29181097D01*
X122348008Y-29161047D01*
X122386129Y-29152238D01*
X122413430Y-29148690D01*
X122435509Y-29148847D01*
G37*
%TO.C,VR1*%
X79443000Y-52637000D02*
X79443000Y-42867000D01*
X89213000Y-42867000D02*
X79443000Y-42867000D01*
X89213000Y-52637000D02*
X79443000Y-52637000D01*
X89213000Y-52637000D02*
X89213000Y-42867000D01*
%TO.C,VR2*%
X82999000Y-59123000D02*
X82999000Y-68893000D01*
X82999000Y-59123000D02*
X92769000Y-59123000D01*
X82999000Y-68893000D02*
X92769000Y-68893000D01*
X92769000Y-59123000D02*
X92769000Y-68893000D01*
%TO.C,R2*%
X76693500Y-62467258D02*
X76693500Y-61992742D01*
X77738500Y-62467258D02*
X77738500Y-61992742D01*
%TO.C,R9*%
X62752500Y-51070742D02*
X62752500Y-51545258D01*
X61707500Y-51070742D02*
X61707500Y-51545258D01*
%TO.C,Q4*%
X109296000Y-71860000D02*
X109296000Y-75460000D01*
X109307522Y-75498478D02*
G75*
G03*
X113746000Y-73660000I1838478J1838478D01*
G01*
X113746001Y-73660000D02*
G75*
G03*
X109307522Y-71821522I-2600001J0D01*
G01*
%TO.C,IC2*%
X96156000Y-55820000D02*
X96156000Y-76260000D01*
X96156000Y-76260000D02*
X101456000Y-76260000D01*
X101456000Y-76260000D02*
X101456000Y-55820000D01*
X101456000Y-55820000D02*
X99806000Y-55820000D01*
X97806000Y-55820000D02*
X96156000Y-55820000D01*
X97806000Y-55820000D02*
G75*
G03*
X99806000Y-55820000I1000000J0D01*
G01*
%TO.C,C3*%
X79098000Y-64504000D02*
X79098000Y-60464000D01*
X81313000Y-60464000D02*
X81938000Y-60464000D01*
X79098000Y-60464000D02*
X79723000Y-60464000D01*
X81938000Y-64504000D02*
X81938000Y-60464000D01*
X79098000Y-64504000D02*
X79723000Y-64504000D01*
X81313000Y-64504000D02*
X81938000Y-64504000D01*
%TO.C,S2*%
X103826000Y-46751000D02*
X103826000Y-51891000D01*
X106486000Y-46751000D02*
X106486000Y-51891000D01*
X103826000Y-51891000D02*
X106486000Y-51891000D01*
X103826000Y-45481000D02*
X103826000Y-44151000D01*
X103826000Y-44151000D02*
X105156000Y-44151000D01*
X103826000Y-46751000D02*
X106486000Y-46751000D01*
%TO.C,R4*%
X91200500Y-55642742D02*
X91200500Y-56117258D01*
X90155500Y-55642742D02*
X90155500Y-56117258D01*
%TO.C,C6*%
X65798000Y-66515000D02*
X65798000Y-65890000D01*
X65798000Y-68730000D02*
X65798000Y-68105000D01*
X69838000Y-66515000D02*
X69838000Y-65890000D01*
X69838000Y-65890000D02*
X65798000Y-65890000D01*
X69838000Y-68730000D02*
X69838000Y-68105000D01*
X69838000Y-68730000D02*
X65798000Y-68730000D01*
%TO.C,J3*%
X116018000Y-83815000D02*
X116018000Y-86415000D01*
X118678000Y-83815000D02*
X118678000Y-86415000D01*
X116018000Y-81215000D02*
X117348000Y-81215000D01*
X116018000Y-86415000D02*
X118678000Y-86415000D01*
X116018000Y-82545000D02*
X116018000Y-81215000D01*
X116018000Y-83815000D02*
X118678000Y-83815000D01*
%TO.C,C9*%
X69208580Y-70102000D02*
X68927420Y-70102000D01*
X69208580Y-71122000D02*
X68927420Y-71122000D01*
%TO.C,C4*%
X99326000Y-80805000D02*
X99326000Y-81430000D01*
X99326000Y-81430000D02*
X103366000Y-81430000D01*
X103366000Y-78590000D02*
X103366000Y-79215000D01*
X99326000Y-78590000D02*
X99326000Y-79215000D01*
X103366000Y-80805000D02*
X103366000Y-81430000D01*
X99326000Y-78590000D02*
X103366000Y-78590000D01*
%TO.C,J1*%
X88869500Y-23188000D02*
X88869500Y-37888000D01*
X88869500Y-37888000D02*
X86269500Y-37888000D01*
X88019500Y-38088000D02*
X89069500Y-38088000D01*
X79669500Y-37888000D02*
X79669500Y-35988000D01*
X79669500Y-23188000D02*
X88869500Y-23188000D01*
X89069500Y-37038000D02*
X89069500Y-38088000D01*
X79669500Y-31988000D02*
X79669500Y-23188000D01*
X82369500Y-37888000D02*
X79669500Y-37888000D01*
%TO.C,R3*%
X87392742Y-55640500D02*
X87867258Y-55640500D01*
X87392742Y-54595500D02*
X87867258Y-54595500D01*
%TO.C,VR3*%
X78173000Y-82863000D02*
X87943000Y-82863000D01*
X78173000Y-73093000D02*
X87943000Y-73093000D01*
X87943000Y-73093000D02*
X87943000Y-82863000D01*
X78173000Y-73093000D02*
X78173000Y-82863000D01*
%TO.C,VR5*%
X92397000Y-52637000D02*
X92397000Y-42867000D01*
X92397000Y-52637000D02*
X102167000Y-52637000D01*
X102167000Y-52637000D02*
X102167000Y-42867000D01*
X92397000Y-42867000D02*
X102167000Y-42867000D01*
%TO.C,IC4*%
X95703000Y-86260000D02*
X95703000Y-91560000D01*
X113603000Y-91560000D02*
X113603000Y-89910000D01*
X95703000Y-91560000D02*
X113603000Y-91560000D01*
X113603000Y-87910000D02*
X113603000Y-86260000D01*
X113603000Y-86260000D02*
X95703000Y-86260000D01*
X113603000Y-87910000D02*
G75*
G03*
X113603000Y-89910000I0J-1000000D01*
G01*
%TO.C,C8*%
X59956000Y-44417000D02*
X59956000Y-43792000D01*
X63996000Y-46632000D02*
X59956000Y-46632000D01*
X63996000Y-44417000D02*
X63996000Y-43792000D01*
X63996000Y-43792000D02*
X59956000Y-43792000D01*
X59956000Y-46632000D02*
X59956000Y-46007000D01*
X63996000Y-46632000D02*
X63996000Y-46007000D01*
%TO.C,U1*%
X104720000Y-30372000D02*
X100960000Y-30372000D01*
X100960000Y-30372000D02*
X100960000Y-31632000D01*
X106970000Y-37192000D02*
X100960000Y-37192000D01*
X100960000Y-37192000D02*
X100960000Y-35932000D01*
%TO.C,C10*%
X111981000Y-33032000D02*
X111356000Y-33032000D01*
X114196000Y-33032000D02*
X113571000Y-33032000D01*
X114196000Y-33032000D02*
X114196000Y-37072000D01*
X111356000Y-33032000D02*
X111356000Y-37072000D01*
X111981000Y-37072000D02*
X111356000Y-37072000D01*
X114196000Y-37072000D02*
X113571000Y-37072000D01*
%TO.C,R1*%
X78246500Y-67293258D02*
X78246500Y-66818742D01*
X77201500Y-67293258D02*
X77201500Y-66818742D01*
%TO.C,R11*%
X58942500Y-49038742D02*
X58942500Y-49513258D01*
X57897500Y-49038742D02*
X57897500Y-49513258D01*
%TO.C,Q1*%
X76886000Y-53616000D02*
X76886000Y-50016000D01*
X72435999Y-51816000D02*
G75*
G03*
X76874478Y-53654478I2600001J0D01*
G01*
X76874478Y-49977522D02*
G75*
G03*
X72436000Y-51816000I-1838478J-1838478D01*
G01*
%TO.C,D1*%
X114170000Y-67818000D02*
X113520000Y-67818000D01*
X109280000Y-66698000D02*
X109280000Y-68938000D01*
X109880000Y-66698000D02*
X109880000Y-68938000D01*
X110000000Y-66698000D02*
X110000000Y-68938000D01*
X113520000Y-68938000D02*
X113520000Y-66698000D01*
X113520000Y-66698000D02*
X109280000Y-66698000D01*
X108630000Y-67818000D02*
X109280000Y-67818000D01*
X109280000Y-68938000D02*
X113520000Y-68938000D01*
X110120000Y-66698000D02*
X110120000Y-68938000D01*
%TO.C,R10*%
X74661500Y-56625258D02*
X74661500Y-56150742D01*
X75706500Y-56625258D02*
X75706500Y-56150742D01*
%TO.C,R14*%
X117364742Y-65800500D02*
X117839258Y-65800500D01*
X117364742Y-64755500D02*
X117839258Y-64755500D01*
%TO.C,R6*%
X105424500Y-58182742D02*
X105424500Y-58657258D01*
X104379500Y-58182742D02*
X104379500Y-58657258D01*
%TO.C,C1*%
X93470000Y-89040580D02*
X93470000Y-88759420D01*
X94490000Y-89040580D02*
X94490000Y-88759420D01*
%TO.C,J4*%
X118558000Y-60701000D02*
X121218000Y-60701000D01*
X121218000Y-60701000D02*
X121218000Y-63301000D01*
X118558000Y-58101000D02*
X119888000Y-58101000D01*
X118558000Y-63301000D02*
X121218000Y-63301000D01*
X118558000Y-60701000D02*
X118558000Y-63301000D01*
X118558000Y-59431000D02*
X118558000Y-58101000D01*
%TO.C,J2*%
X116018000Y-75433000D02*
X116018000Y-74103000D01*
X116018000Y-76703000D02*
X116018000Y-79303000D01*
X116018000Y-74103000D02*
X117348000Y-74103000D01*
X118678000Y-76703000D02*
X118678000Y-79303000D01*
X116018000Y-76703000D02*
X118678000Y-76703000D01*
X116018000Y-79303000D02*
X118678000Y-79303000D01*
%TO.C,R16*%
X111997258Y-76693500D02*
X111522742Y-76693500D01*
X111997258Y-77738500D02*
X111522742Y-77738500D01*
%TO.C,Q2*%
X69012000Y-52346000D02*
X69012000Y-48746000D01*
X64561999Y-50546000D02*
G75*
G03*
X69000478Y-52384478I2600001J0D01*
G01*
X69000478Y-48707522D02*
G75*
G03*
X64562000Y-50546000I-1838478J-1838478D01*
G01*
%TD*%
M02*
