%FSLAX45Y45*%
G04 Gerber Fmt 4.5, Leading zero omitted, Abs format (unit mm)*
G04 Created by KiCad (PCBNEW (6.0.0)) date 2022-01-24 17:52:32*
%MOMM*%
%LPD*%
G01*
G04 APERTURE LIST*
%TA.AperFunction,Profile*%
%ADD10C,0.100000*%
%TD*%
%ADD11C,0.200000*%
%ADD12C,0.040000*%
%ADD13C,0.075000*%
%ADD14C,0.080000*%
%ADD15C,0.100000*%
G04 APERTURE END LIST*
D10*
X8890000Y-2286000D02*
X12954000Y-2286000D01*
X13462000Y-9398000D02*
X13462000Y-2794000D01*
X4064000Y-2286000D02*
X8890000Y-2286000D01*
X3556000Y-9398000D02*
X3556000Y-2794000D01*
X4064000Y-9906000D02*
X12954000Y-9906000D01*
X13462000Y-2794000D02*
G75*
G03*
X12954000Y-2286000I-508000J0D01*
G01*
X3556000Y-9398000D02*
G75*
G03*
X4064000Y-9906000I508000J0D01*
G01*
X12954000Y-9906000D02*
G75*
G03*
X13462000Y-9398000I0J508000D01*
G01*
X4064000Y-2286000D02*
G75*
G03*
X3556000Y-2794000I0J-508000D01*
G01*
D11*
D12*
X6406200Y-5339400D02*
X6446200Y-5379400D01*
X6446200Y-5339400D02*
X6406200Y-5379400D01*
X6584000Y-5822000D02*
X6624000Y-5862000D01*
X6624000Y-5822000D02*
X6584000Y-5862000D01*
X7600000Y-6584000D02*
X7640000Y-6624000D01*
X7640000Y-6584000D02*
X7600000Y-6624000D01*
X8362000Y-5568000D02*
X8402000Y-5608000D01*
X8402000Y-5568000D02*
X8362000Y-5608000D01*
D13*
X6753700Y-4927600D02*
G75*
G03*
X6753700Y-4927600I-37500J0D01*
G01*
X6753700Y-5054600D02*
G75*
G03*
X6753700Y-5054600I-37500J0D01*
G01*
X6753700Y-5181600D02*
G75*
G03*
X6753700Y-5181600I-37500J0D01*
G01*
X7541100Y-5054600D02*
G75*
G03*
X7541100Y-5054600I-37500J0D01*
G01*
X7541100Y-5181600D02*
G75*
G03*
X7541100Y-5181600I-37500J0D01*
G01*
X7541100Y-5308600D02*
G75*
G03*
X7541100Y-5308600I-37500J0D01*
G01*
X11086500Y-6223000D02*
G75*
G03*
X11086500Y-6223000I-37500J0D01*
G01*
X11086500Y-6350000D02*
G75*
G03*
X11086500Y-6350000I-37500J0D01*
G01*
X11086500Y-6477000D02*
G75*
G03*
X11086500Y-6477000I-37500J0D01*
G01*
X11152100Y-7239000D02*
G75*
G03*
X11152100Y-7239000I-37500J0D01*
G01*
X11152100Y-7366000D02*
G75*
G03*
X11152100Y-7366000I-37500J0D01*
G01*
X11152100Y-7493000D02*
G75*
G03*
X11152100Y-7493000I-37500J0D01*
G01*
D14*
X6072600Y-4481200D02*
X6072600Y-4561200D01*
X6032600Y-4521200D02*
X6112600Y-4521200D01*
X6322600Y-4481200D02*
X6322600Y-4561200D01*
X6282600Y-4521200D02*
X6362600Y-4521200D01*
X6656800Y-6691000D02*
X6656800Y-6771000D01*
X6616800Y-6731000D02*
X6696800Y-6731000D01*
X6656800Y-7376800D02*
X6656800Y-7456800D01*
X6616800Y-7416800D02*
X6696800Y-7416800D01*
X6834600Y-6106800D02*
X6834600Y-6186800D01*
X6794600Y-6146800D02*
X6874600Y-6146800D01*
X6906800Y-6691000D02*
X6906800Y-6771000D01*
X6866800Y-6731000D02*
X6946800Y-6731000D01*
X6906800Y-7376800D02*
X6906800Y-7456800D01*
X6866800Y-7416800D02*
X6946800Y-7416800D01*
X7084600Y-6106800D02*
X7084600Y-6186800D01*
X7044600Y-6146800D02*
X7124600Y-6146800D01*
X8040300Y-7503800D02*
X8040300Y-7583800D01*
X8000300Y-7543800D02*
X8080300Y-7543800D01*
X8040300Y-8011800D02*
X8040300Y-8091800D01*
X8000300Y-8051800D02*
X8080300Y-8051800D01*
X8051800Y-6083400D02*
X8051800Y-6163400D01*
X8011800Y-6123400D02*
X8091800Y-6123400D01*
X8051800Y-6333400D02*
X8051800Y-6413400D01*
X8011800Y-6373400D02*
X8091800Y-6373400D01*
X8190300Y-4735200D02*
X8190300Y-4815200D01*
X8150300Y-4775200D02*
X8230300Y-4775200D01*
X8522900Y-6106800D02*
X8522900Y-6186800D01*
X8482900Y-6146800D02*
X8562900Y-6146800D01*
X8522900Y-6614800D02*
X8522900Y-6694800D01*
X8482900Y-6654800D02*
X8562900Y-6654800D01*
X8548300Y-7757800D02*
X8548300Y-7837800D01*
X8508300Y-7797800D02*
X8588300Y-7797800D01*
X8698300Y-4481200D02*
X8698300Y-4561200D01*
X8658300Y-4521200D02*
X8738300Y-4521200D01*
X8698300Y-4989200D02*
X8698300Y-5069200D01*
X8658300Y-5029200D02*
X8738300Y-5029200D01*
X9030900Y-6360800D02*
X9030900Y-6440800D01*
X8990900Y-6400800D02*
X9070900Y-6400800D01*
X9349200Y-3111600D02*
X9349200Y-3191600D01*
X9309200Y-3151600D02*
X9389200Y-3151600D01*
X9349200Y-3361600D02*
X9349200Y-3441600D01*
X9309200Y-3401600D02*
X9389200Y-3401600D01*
X9474200Y-5000700D02*
X9474200Y-5080700D01*
X9434200Y-5040700D02*
X9514200Y-5040700D01*
X9499600Y-5675000D02*
X9499600Y-5755000D01*
X9459600Y-5715000D02*
X9539600Y-5715000D01*
X9499600Y-5929000D02*
X9499600Y-6009000D01*
X9459600Y-5969000D02*
X9539600Y-5969000D01*
X9499600Y-6183000D02*
X9499600Y-6263000D01*
X9459600Y-6223000D02*
X9539600Y-6223000D01*
X9499600Y-6437000D02*
X9499600Y-6517000D01*
X9459600Y-6477000D02*
X9539600Y-6477000D01*
X9499600Y-6691000D02*
X9499600Y-6771000D01*
X9459600Y-6731000D02*
X9539600Y-6731000D01*
X9499600Y-6945000D02*
X9499600Y-7025000D01*
X9459600Y-6985000D02*
X9539600Y-6985000D01*
X9499600Y-7199000D02*
X9499600Y-7279000D01*
X9459600Y-7239000D02*
X9539600Y-7239000D01*
X9499600Y-7453000D02*
X9499600Y-7533000D01*
X9459600Y-7493000D02*
X9539600Y-7493000D01*
X9703300Y-8470000D02*
X9703300Y-8550000D01*
X9663300Y-8510000D02*
X9743300Y-8510000D01*
X9703300Y-9232000D02*
X9703300Y-9312000D01*
X9663300Y-9272000D02*
X9743300Y-9272000D01*
X9728200Y-4492700D02*
X9728200Y-4572700D01*
X9688200Y-4532700D02*
X9768200Y-4532700D01*
X9957300Y-8470000D02*
X9957300Y-8550000D01*
X9917300Y-8510000D02*
X9997300Y-8510000D01*
X9957300Y-9232000D02*
X9957300Y-9312000D01*
X9917300Y-9272000D02*
X9997300Y-9272000D01*
X9982200Y-5000700D02*
X9982200Y-5080700D01*
X9942200Y-5040700D02*
X10022200Y-5040700D01*
X10009600Y-7961000D02*
X10009600Y-8041000D01*
X9969600Y-8001000D02*
X10049600Y-8001000D01*
X10211300Y-8470000D02*
X10211300Y-8550000D01*
X10171300Y-8510000D02*
X10251300Y-8510000D01*
X10211300Y-9232000D02*
X10211300Y-9312000D01*
X10171300Y-9272000D02*
X10251300Y-9272000D01*
X10259600Y-7961000D02*
X10259600Y-8041000D01*
X10219600Y-8001000D02*
X10299600Y-8001000D01*
X10261600Y-5675000D02*
X10261600Y-5755000D01*
X10221600Y-5715000D02*
X10301600Y-5715000D01*
X10261600Y-5929000D02*
X10261600Y-6009000D01*
X10221600Y-5969000D02*
X10301600Y-5969000D01*
X10261600Y-6183000D02*
X10261600Y-6263000D01*
X10221600Y-6223000D02*
X10301600Y-6223000D01*
X10261600Y-6437000D02*
X10261600Y-6517000D01*
X10221600Y-6477000D02*
X10301600Y-6477000D01*
X10261600Y-6691000D02*
X10261600Y-6771000D01*
X10221600Y-6731000D02*
X10301600Y-6731000D01*
X10261600Y-6945000D02*
X10261600Y-7025000D01*
X10221600Y-6985000D02*
X10301600Y-6985000D01*
X10261600Y-7199000D02*
X10261600Y-7279000D01*
X10221600Y-7239000D02*
X10301600Y-7239000D01*
X10261600Y-7453000D02*
X10261600Y-7533000D01*
X10221600Y-7493000D02*
X10301600Y-7493000D01*
X10465300Y-8470000D02*
X10465300Y-8550000D01*
X10425300Y-8510000D02*
X10505300Y-8510000D01*
X10465300Y-9232000D02*
X10465300Y-9312000D01*
X10425300Y-9272000D02*
X10505300Y-9272000D01*
X10719300Y-8470000D02*
X10719300Y-8550000D01*
X10679300Y-8510000D02*
X10759300Y-8510000D01*
X10719300Y-9232000D02*
X10719300Y-9312000D01*
X10679300Y-9272000D02*
X10759300Y-9272000D01*
X10759000Y-6741800D02*
X10759000Y-6821800D01*
X10719000Y-6781800D02*
X10799000Y-6781800D01*
X10973300Y-8470000D02*
X10973300Y-8550000D01*
X10933300Y-8510000D02*
X11013300Y-8510000D01*
X10973300Y-9232000D02*
X10973300Y-9312000D01*
X10933300Y-9272000D02*
X11013300Y-9272000D01*
X11227300Y-8470000D02*
X11227300Y-8550000D01*
X11187300Y-8510000D02*
X11267300Y-8510000D01*
X11227300Y-9232000D02*
X11227300Y-9312000D01*
X11187300Y-9272000D02*
X11267300Y-9272000D01*
X11277600Y-3340200D02*
X11277600Y-3420200D01*
X11237600Y-3380200D02*
X11317600Y-3380200D01*
X11277600Y-3590200D02*
X11277600Y-3670200D01*
X11237600Y-3630200D02*
X11317600Y-3630200D01*
X11379200Y-4481200D02*
X11379200Y-4561200D01*
X11339200Y-4521200D02*
X11419200Y-4521200D01*
X11379200Y-4989200D02*
X11379200Y-5069200D01*
X11339200Y-5029200D02*
X11419200Y-5029200D01*
X11521000Y-6741800D02*
X11521000Y-6821800D01*
X11481000Y-6781800D02*
X11561000Y-6781800D01*
X11887200Y-4735200D02*
X11887200Y-4815200D01*
X11847200Y-4775200D02*
X11927200Y-4775200D01*
D15*
X5877856Y-6841056D02*
X5877856Y-6770344D01*
X5807144Y-6770344D01*
X5807144Y-6841056D01*
X5877856Y-6841056D01*
X5877856Y-7095056D02*
X5877856Y-7024344D01*
X5807144Y-7024344D01*
X5807144Y-7095056D01*
X5877856Y-7095056D01*
X5877856Y-7349056D02*
X5877856Y-7278344D01*
X5807144Y-7278344D01*
X5807144Y-7349056D01*
X5877856Y-7349056D01*
X6131856Y-6841056D02*
X6131856Y-6770344D01*
X6061144Y-6770344D01*
X6061144Y-6841056D01*
X6131856Y-6841056D01*
X6131856Y-7095056D02*
X6131856Y-7024344D01*
X6061144Y-7024344D01*
X6061144Y-7095056D01*
X6131856Y-7095056D01*
X6131856Y-7349056D02*
X6131856Y-7278344D01*
X6061144Y-7278344D01*
X6061144Y-7349056D01*
X6131856Y-7349056D01*
X6156756Y-5597456D02*
X6156756Y-5526744D01*
X6086044Y-5526744D01*
X6086044Y-5597456D01*
X6156756Y-5597456D01*
X6156756Y-5851456D02*
X6156756Y-5780744D01*
X6086044Y-5780744D01*
X6086044Y-5851456D01*
X6156756Y-5851456D01*
X7992306Y-3434156D02*
X7992306Y-3363444D01*
X7921594Y-3363444D01*
X7921594Y-3434156D01*
X7992306Y-3434156D01*
D11*
X7916950Y-3298800D02*
X7916950Y-3498800D01*
X7996950Y-3298800D02*
X7996950Y-3498800D01*
X7916950Y-3498800D02*
G75*
G03*
X7996950Y-3498800I40000J0D01*
G01*
X7996950Y-3298800D02*
G75*
G03*
X7916950Y-3298800I-40000J0D01*
G01*
D15*
X8462306Y-3134156D02*
X8462306Y-3063444D01*
X8391594Y-3063444D01*
X8391594Y-3134156D01*
X8462306Y-3134156D01*
D11*
X8526950Y-3058800D02*
X8326950Y-3058800D01*
X8526950Y-3138800D02*
X8326950Y-3138800D01*
X8326950Y-3058800D02*
G75*
G03*
X8326950Y-3138800I0J-40000D01*
G01*
X8526950Y-3138800D02*
G75*
G03*
X8526950Y-3058800I0J40000D01*
G01*
D15*
X8462306Y-3734156D02*
X8462306Y-3663444D01*
X8391594Y-3663444D01*
X8391594Y-3734156D01*
X8462306Y-3734156D01*
D11*
X8526950Y-3658800D02*
X8326950Y-3658800D01*
X8526950Y-3738800D02*
X8326950Y-3738800D01*
X8326950Y-3658800D02*
G75*
G03*
X8326950Y-3738800I0J-40000D01*
G01*
X8526950Y-3738800D02*
G75*
G03*
X8526950Y-3658800I0J40000D01*
G01*
D15*
X10550956Y-4583456D02*
X10550956Y-4512744D01*
X10480244Y-4512744D01*
X10480244Y-4583456D01*
X10550956Y-4583456D01*
X10550956Y-4837456D02*
X10550956Y-4766744D01*
X10480244Y-4766744D01*
X10480244Y-4837456D01*
X10550956Y-4837456D01*
X10550956Y-5091456D02*
X10550956Y-5020744D01*
X10480244Y-5020744D01*
X10480244Y-5091456D01*
X10550956Y-5091456D01*
X11770156Y-7578656D02*
X11770156Y-7507944D01*
X11699444Y-7507944D01*
X11699444Y-7578656D01*
X11770156Y-7578656D01*
X11770156Y-7832656D02*
X11770156Y-7761944D01*
X11699444Y-7761944D01*
X11699444Y-7832656D01*
X11770156Y-7832656D01*
X11770156Y-8289856D02*
X11770156Y-8219144D01*
X11699444Y-8219144D01*
X11699444Y-8289856D01*
X11770156Y-8289856D01*
X11770156Y-8543856D02*
X11770156Y-8473144D01*
X11699444Y-8473144D01*
X11699444Y-8543856D01*
X11770156Y-8543856D01*
X12024156Y-5978456D02*
X12024156Y-5907744D01*
X11953444Y-5907744D01*
X11953444Y-5978456D01*
X12024156Y-5978456D01*
X12024156Y-6232456D02*
X12024156Y-6161744D01*
X11953444Y-6161744D01*
X11953444Y-6232456D01*
X12024156Y-6232456D01*
D11*
X3808619Y-10221476D02*
X3808619Y-10021476D01*
X3856238Y-10021476D01*
X3884809Y-10031000D01*
X3903857Y-10050048D01*
X3913381Y-10069095D01*
X3922905Y-10107190D01*
X3922905Y-10135762D01*
X3913381Y-10173857D01*
X3903857Y-10192905D01*
X3884809Y-10211952D01*
X3856238Y-10221476D01*
X3808619Y-10221476D01*
X4008619Y-10221476D02*
X4008619Y-10088143D01*
X4008619Y-10126238D02*
X4018143Y-10107190D01*
X4027667Y-10097667D01*
X4046714Y-10088143D01*
X4065762Y-10088143D01*
X4132428Y-10221476D02*
X4132428Y-10088143D01*
X4132428Y-10021476D02*
X4122905Y-10031000D01*
X4132428Y-10040524D01*
X4141952Y-10031000D01*
X4132428Y-10021476D01*
X4132428Y-10040524D01*
X4256238Y-10221476D02*
X4237190Y-10211952D01*
X4227667Y-10192905D01*
X4227667Y-10021476D01*
X4361000Y-10221476D02*
X4341952Y-10211952D01*
X4332429Y-10192905D01*
X4332429Y-10021476D01*
X4589571Y-10221476D02*
X4589571Y-10021476D01*
X4656238Y-10164333D01*
X4722905Y-10021476D01*
X4722905Y-10221476D01*
X4903857Y-10221476D02*
X4903857Y-10116714D01*
X4894333Y-10097667D01*
X4875286Y-10088143D01*
X4837190Y-10088143D01*
X4818143Y-10097667D01*
X4903857Y-10211952D02*
X4884810Y-10221476D01*
X4837190Y-10221476D01*
X4818143Y-10211952D01*
X4808619Y-10192905D01*
X4808619Y-10173857D01*
X4818143Y-10154810D01*
X4837190Y-10145286D01*
X4884810Y-10145286D01*
X4903857Y-10135762D01*
X4999095Y-10088143D02*
X4999095Y-10288143D01*
X4999095Y-10097667D02*
X5018143Y-10088143D01*
X5056238Y-10088143D01*
X5075286Y-10097667D01*
X5084810Y-10107190D01*
X5094333Y-10126238D01*
X5094333Y-10183381D01*
X5084810Y-10202429D01*
X5075286Y-10211952D01*
X5056238Y-10221476D01*
X5018143Y-10221476D01*
X4999095Y-10211952D01*
X5180048Y-10202429D02*
X5189571Y-10211952D01*
X5180048Y-10221476D01*
X5170524Y-10211952D01*
X5180048Y-10202429D01*
X5180048Y-10221476D01*
X5180048Y-10097667D02*
X5189571Y-10107190D01*
X5180048Y-10116714D01*
X5170524Y-10107190D01*
X5180048Y-10097667D01*
X5180048Y-10116714D01*
D12*
X3511000Y-10531000D02*
X3551000Y-10571000D01*
X3551000Y-10531000D02*
X3511000Y-10571000D01*
D11*
X3846714Y-10441476D02*
X3865762Y-10441476D01*
X3884809Y-10451000D01*
X3894333Y-10460524D01*
X3903857Y-10479571D01*
X3913381Y-10517667D01*
X3913381Y-10565286D01*
X3903857Y-10603381D01*
X3894333Y-10622429D01*
X3884809Y-10631952D01*
X3865762Y-10641476D01*
X3846714Y-10641476D01*
X3827667Y-10631952D01*
X3818143Y-10622429D01*
X3808619Y-10603381D01*
X3799095Y-10565286D01*
X3799095Y-10517667D01*
X3808619Y-10479571D01*
X3818143Y-10460524D01*
X3827667Y-10451000D01*
X3846714Y-10441476D01*
X3999095Y-10622429D02*
X4008619Y-10631952D01*
X3999095Y-10641476D01*
X3989571Y-10631952D01*
X3999095Y-10622429D01*
X3999095Y-10641476D01*
X4180048Y-10508143D02*
X4180048Y-10641476D01*
X4132428Y-10431952D02*
X4084809Y-10574810D01*
X4208619Y-10574810D01*
X4322905Y-10441476D02*
X4341952Y-10441476D01*
X4361000Y-10451000D01*
X4370524Y-10460524D01*
X4380048Y-10479571D01*
X4389571Y-10517667D01*
X4389571Y-10565286D01*
X4380048Y-10603381D01*
X4370524Y-10622429D01*
X4361000Y-10631952D01*
X4341952Y-10641476D01*
X4322905Y-10641476D01*
X4303857Y-10631952D01*
X4294333Y-10622429D01*
X4284810Y-10603381D01*
X4275286Y-10565286D01*
X4275286Y-10517667D01*
X4284810Y-10479571D01*
X4294333Y-10460524D01*
X4303857Y-10451000D01*
X4322905Y-10441476D01*
X4513381Y-10441476D02*
X4532429Y-10441476D01*
X4551476Y-10451000D01*
X4561000Y-10460524D01*
X4570524Y-10479571D01*
X4580048Y-10517667D01*
X4580048Y-10565286D01*
X4570524Y-10603381D01*
X4561000Y-10622429D01*
X4551476Y-10631952D01*
X4532429Y-10641476D01*
X4513381Y-10641476D01*
X4494333Y-10631952D01*
X4484810Y-10622429D01*
X4475286Y-10603381D01*
X4465762Y-10565286D01*
X4465762Y-10517667D01*
X4475286Y-10479571D01*
X4484810Y-10460524D01*
X4494333Y-10451000D01*
X4513381Y-10441476D01*
X4665762Y-10641476D02*
X4665762Y-10508143D01*
X4665762Y-10527190D02*
X4675286Y-10517667D01*
X4694333Y-10508143D01*
X4722905Y-10508143D01*
X4741952Y-10517667D01*
X4751476Y-10536714D01*
X4751476Y-10641476D01*
X4751476Y-10536714D02*
X4761000Y-10517667D01*
X4780048Y-10508143D01*
X4808619Y-10508143D01*
X4827667Y-10517667D01*
X4837190Y-10536714D01*
X4837190Y-10641476D01*
X4932429Y-10641476D02*
X4932429Y-10508143D01*
X4932429Y-10527190D02*
X4941952Y-10517667D01*
X4961000Y-10508143D01*
X4989571Y-10508143D01*
X5008619Y-10517667D01*
X5018143Y-10536714D01*
X5018143Y-10641476D01*
X5018143Y-10536714D02*
X5027667Y-10517667D01*
X5046714Y-10508143D01*
X5075286Y-10508143D01*
X5094333Y-10517667D01*
X5103857Y-10536714D01*
X5103857Y-10641476D01*
X5494333Y-10431952D02*
X5322905Y-10689095D01*
X5751476Y-10441476D02*
X5770524Y-10441476D01*
X5789571Y-10451000D01*
X5799095Y-10460524D01*
X5808619Y-10479571D01*
X5818143Y-10517667D01*
X5818143Y-10565286D01*
X5808619Y-10603381D01*
X5799095Y-10622429D01*
X5789571Y-10631952D01*
X5770524Y-10641476D01*
X5751476Y-10641476D01*
X5732428Y-10631952D01*
X5722905Y-10622429D01*
X5713381Y-10603381D01*
X5703857Y-10565286D01*
X5703857Y-10517667D01*
X5713381Y-10479571D01*
X5722905Y-10460524D01*
X5732428Y-10451000D01*
X5751476Y-10441476D01*
X5903857Y-10622429D02*
X5913381Y-10631952D01*
X5903857Y-10641476D01*
X5894333Y-10631952D01*
X5903857Y-10622429D01*
X5903857Y-10641476D01*
X6037190Y-10441476D02*
X6056238Y-10441476D01*
X6075286Y-10451000D01*
X6084809Y-10460524D01*
X6094333Y-10479571D01*
X6103857Y-10517667D01*
X6103857Y-10565286D01*
X6094333Y-10603381D01*
X6084809Y-10622429D01*
X6075286Y-10631952D01*
X6056238Y-10641476D01*
X6037190Y-10641476D01*
X6018143Y-10631952D01*
X6008619Y-10622429D01*
X5999095Y-10603381D01*
X5989571Y-10565286D01*
X5989571Y-10517667D01*
X5999095Y-10479571D01*
X6008619Y-10460524D01*
X6018143Y-10451000D01*
X6037190Y-10441476D01*
X6294333Y-10641476D02*
X6180048Y-10641476D01*
X6237190Y-10641476D02*
X6237190Y-10441476D01*
X6218143Y-10470048D01*
X6199095Y-10489095D01*
X6180048Y-10498619D01*
X6475286Y-10441476D02*
X6380048Y-10441476D01*
X6370524Y-10536714D01*
X6380048Y-10527190D01*
X6399095Y-10517667D01*
X6446714Y-10517667D01*
X6465762Y-10527190D01*
X6475286Y-10536714D01*
X6484809Y-10555762D01*
X6484809Y-10603381D01*
X6475286Y-10622429D01*
X6465762Y-10631952D01*
X6446714Y-10641476D01*
X6399095Y-10641476D01*
X6380048Y-10631952D01*
X6370524Y-10622429D01*
X6551476Y-10441476D02*
X6684809Y-10441476D01*
X6599095Y-10641476D01*
X6751476Y-10441476D02*
X6751476Y-10479571D01*
X6827667Y-10441476D02*
X6827667Y-10479571D01*
X7122905Y-10717667D02*
X7113381Y-10708143D01*
X7094333Y-10679571D01*
X7084809Y-10660524D01*
X7075286Y-10631952D01*
X7065762Y-10584333D01*
X7065762Y-10546238D01*
X7075286Y-10498619D01*
X7084809Y-10470048D01*
X7094333Y-10451000D01*
X7113381Y-10422429D01*
X7122905Y-10412905D01*
X7284809Y-10508143D02*
X7284809Y-10641476D01*
X7237190Y-10431952D02*
X7189571Y-10574810D01*
X7313381Y-10574810D01*
X7541952Y-10641476D02*
X7541952Y-10441476D01*
X7627667Y-10641476D02*
X7627667Y-10536714D01*
X7618143Y-10517667D01*
X7599095Y-10508143D01*
X7570524Y-10508143D01*
X7551476Y-10517667D01*
X7541952Y-10527190D01*
X7751476Y-10641476D02*
X7732428Y-10631952D01*
X7722905Y-10622429D01*
X7713381Y-10603381D01*
X7713381Y-10546238D01*
X7722905Y-10527190D01*
X7732428Y-10517667D01*
X7751476Y-10508143D01*
X7780048Y-10508143D01*
X7799095Y-10517667D01*
X7808619Y-10527190D01*
X7818143Y-10546238D01*
X7818143Y-10603381D01*
X7808619Y-10622429D01*
X7799095Y-10631952D01*
X7780048Y-10641476D01*
X7751476Y-10641476D01*
X7932428Y-10641476D02*
X7913381Y-10631952D01*
X7903857Y-10612905D01*
X7903857Y-10441476D01*
X8084809Y-10631952D02*
X8065762Y-10641476D01*
X8027667Y-10641476D01*
X8008619Y-10631952D01*
X7999095Y-10612905D01*
X7999095Y-10536714D01*
X8008619Y-10517667D01*
X8027667Y-10508143D01*
X8065762Y-10508143D01*
X8084809Y-10517667D01*
X8094333Y-10536714D01*
X8094333Y-10555762D01*
X7999095Y-10574810D01*
X8170524Y-10631952D02*
X8189571Y-10641476D01*
X8227667Y-10641476D01*
X8246714Y-10631952D01*
X8256238Y-10612905D01*
X8256238Y-10603381D01*
X8246714Y-10584333D01*
X8227667Y-10574810D01*
X8199095Y-10574810D01*
X8180048Y-10565286D01*
X8170524Y-10546238D01*
X8170524Y-10536714D01*
X8180048Y-10517667D01*
X8199095Y-10508143D01*
X8227667Y-10508143D01*
X8246714Y-10517667D01*
X8322905Y-10717667D02*
X8332428Y-10708143D01*
X8351476Y-10679571D01*
X8361000Y-10660524D01*
X8370524Y-10631952D01*
X8380048Y-10584333D01*
X8380048Y-10546238D01*
X8370524Y-10498619D01*
X8361000Y-10470048D01*
X8351476Y-10451000D01*
X8332428Y-10422429D01*
X8322905Y-10412905D01*
D13*
X3551000Y-10815000D02*
G75*
G03*
X3551000Y-10815000I-37500J0D01*
G01*
D11*
X3846714Y-10705476D02*
X3865762Y-10705476D01*
X3884809Y-10715000D01*
X3894333Y-10724524D01*
X3903857Y-10743571D01*
X3913381Y-10781667D01*
X3913381Y-10829286D01*
X3903857Y-10867381D01*
X3894333Y-10886429D01*
X3884809Y-10895952D01*
X3865762Y-10905476D01*
X3846714Y-10905476D01*
X3827667Y-10895952D01*
X3818143Y-10886429D01*
X3808619Y-10867381D01*
X3799095Y-10829286D01*
X3799095Y-10781667D01*
X3808619Y-10743571D01*
X3818143Y-10724524D01*
X3827667Y-10715000D01*
X3846714Y-10705476D01*
X3999095Y-10886429D02*
X4008619Y-10895952D01*
X3999095Y-10905476D01*
X3989571Y-10895952D01*
X3999095Y-10886429D01*
X3999095Y-10905476D01*
X4075286Y-10705476D02*
X4208619Y-10705476D01*
X4122905Y-10905476D01*
X4380048Y-10705476D02*
X4284810Y-10705476D01*
X4275286Y-10800714D01*
X4284810Y-10791190D01*
X4303857Y-10781667D01*
X4351476Y-10781667D01*
X4370524Y-10791190D01*
X4380048Y-10800714D01*
X4389571Y-10819762D01*
X4389571Y-10867381D01*
X4380048Y-10886429D01*
X4370524Y-10895952D01*
X4351476Y-10905476D01*
X4303857Y-10905476D01*
X4284810Y-10895952D01*
X4275286Y-10886429D01*
X4513381Y-10705476D02*
X4532429Y-10705476D01*
X4551476Y-10715000D01*
X4561000Y-10724524D01*
X4570524Y-10743571D01*
X4580048Y-10781667D01*
X4580048Y-10829286D01*
X4570524Y-10867381D01*
X4561000Y-10886429D01*
X4551476Y-10895952D01*
X4532429Y-10905476D01*
X4513381Y-10905476D01*
X4494333Y-10895952D01*
X4484810Y-10886429D01*
X4475286Y-10867381D01*
X4465762Y-10829286D01*
X4465762Y-10781667D01*
X4475286Y-10743571D01*
X4484810Y-10724524D01*
X4494333Y-10715000D01*
X4513381Y-10705476D01*
X4665762Y-10905476D02*
X4665762Y-10772143D01*
X4665762Y-10791190D02*
X4675286Y-10781667D01*
X4694333Y-10772143D01*
X4722905Y-10772143D01*
X4741952Y-10781667D01*
X4751476Y-10800714D01*
X4751476Y-10905476D01*
X4751476Y-10800714D02*
X4761000Y-10781667D01*
X4780048Y-10772143D01*
X4808619Y-10772143D01*
X4827667Y-10781667D01*
X4837190Y-10800714D01*
X4837190Y-10905476D01*
X4932429Y-10905476D02*
X4932429Y-10772143D01*
X4932429Y-10791190D02*
X4941952Y-10781667D01*
X4961000Y-10772143D01*
X4989571Y-10772143D01*
X5008619Y-10781667D01*
X5018143Y-10800714D01*
X5018143Y-10905476D01*
X5018143Y-10800714D02*
X5027667Y-10781667D01*
X5046714Y-10772143D01*
X5075286Y-10772143D01*
X5094333Y-10781667D01*
X5103857Y-10800714D01*
X5103857Y-10905476D01*
X5494333Y-10695952D02*
X5322905Y-10953095D01*
X5751476Y-10705476D02*
X5770524Y-10705476D01*
X5789571Y-10715000D01*
X5799095Y-10724524D01*
X5808619Y-10743571D01*
X5818143Y-10781667D01*
X5818143Y-10829286D01*
X5808619Y-10867381D01*
X5799095Y-10886429D01*
X5789571Y-10895952D01*
X5770524Y-10905476D01*
X5751476Y-10905476D01*
X5732428Y-10895952D01*
X5722905Y-10886429D01*
X5713381Y-10867381D01*
X5703857Y-10829286D01*
X5703857Y-10781667D01*
X5713381Y-10743571D01*
X5722905Y-10724524D01*
X5732428Y-10715000D01*
X5751476Y-10705476D01*
X5903857Y-10886429D02*
X5913381Y-10895952D01*
X5903857Y-10905476D01*
X5894333Y-10895952D01*
X5903857Y-10886429D01*
X5903857Y-10905476D01*
X6037190Y-10705476D02*
X6056238Y-10705476D01*
X6075286Y-10715000D01*
X6084809Y-10724524D01*
X6094333Y-10743571D01*
X6103857Y-10781667D01*
X6103857Y-10829286D01*
X6094333Y-10867381D01*
X6084809Y-10886429D01*
X6075286Y-10895952D01*
X6056238Y-10905476D01*
X6037190Y-10905476D01*
X6018143Y-10895952D01*
X6008619Y-10886429D01*
X5999095Y-10867381D01*
X5989571Y-10829286D01*
X5989571Y-10781667D01*
X5999095Y-10743571D01*
X6008619Y-10724524D01*
X6018143Y-10715000D01*
X6037190Y-10705476D01*
X6180048Y-10724524D02*
X6189571Y-10715000D01*
X6208619Y-10705476D01*
X6256238Y-10705476D01*
X6275286Y-10715000D01*
X6284809Y-10724524D01*
X6294333Y-10743571D01*
X6294333Y-10762619D01*
X6284809Y-10791190D01*
X6170524Y-10905476D01*
X6294333Y-10905476D01*
X6389571Y-10905476D02*
X6427667Y-10905476D01*
X6446714Y-10895952D01*
X6456238Y-10886429D01*
X6475286Y-10857857D01*
X6484809Y-10819762D01*
X6484809Y-10743571D01*
X6475286Y-10724524D01*
X6465762Y-10715000D01*
X6446714Y-10705476D01*
X6408619Y-10705476D01*
X6389571Y-10715000D01*
X6380048Y-10724524D01*
X6370524Y-10743571D01*
X6370524Y-10791190D01*
X6380048Y-10810238D01*
X6389571Y-10819762D01*
X6408619Y-10829286D01*
X6446714Y-10829286D01*
X6465762Y-10819762D01*
X6475286Y-10810238D01*
X6484809Y-10791190D01*
X6665762Y-10705476D02*
X6570524Y-10705476D01*
X6561000Y-10800714D01*
X6570524Y-10791190D01*
X6589571Y-10781667D01*
X6637190Y-10781667D01*
X6656238Y-10791190D01*
X6665762Y-10800714D01*
X6675286Y-10819762D01*
X6675286Y-10867381D01*
X6665762Y-10886429D01*
X6656238Y-10895952D01*
X6637190Y-10905476D01*
X6589571Y-10905476D01*
X6570524Y-10895952D01*
X6561000Y-10886429D01*
X6751476Y-10705476D02*
X6751476Y-10743571D01*
X6827667Y-10705476D02*
X6827667Y-10743571D01*
X7122905Y-10981667D02*
X7113381Y-10972143D01*
X7094333Y-10943571D01*
X7084809Y-10924524D01*
X7075286Y-10895952D01*
X7065762Y-10848333D01*
X7065762Y-10810238D01*
X7075286Y-10762619D01*
X7084809Y-10734048D01*
X7094333Y-10715000D01*
X7113381Y-10686429D01*
X7122905Y-10676905D01*
X7303857Y-10905476D02*
X7189571Y-10905476D01*
X7246714Y-10905476D02*
X7246714Y-10705476D01*
X7227667Y-10734048D01*
X7208619Y-10753095D01*
X7189571Y-10762619D01*
X7380048Y-10724524D02*
X7389571Y-10715000D01*
X7408619Y-10705476D01*
X7456238Y-10705476D01*
X7475286Y-10715000D01*
X7484809Y-10724524D01*
X7494333Y-10743571D01*
X7494333Y-10762619D01*
X7484809Y-10791190D01*
X7370524Y-10905476D01*
X7494333Y-10905476D01*
X7732428Y-10905476D02*
X7732428Y-10705476D01*
X7818143Y-10905476D02*
X7818143Y-10800714D01*
X7808619Y-10781667D01*
X7789571Y-10772143D01*
X7761000Y-10772143D01*
X7741952Y-10781667D01*
X7732428Y-10791190D01*
X7941952Y-10905476D02*
X7922905Y-10895952D01*
X7913381Y-10886429D01*
X7903857Y-10867381D01*
X7903857Y-10810238D01*
X7913381Y-10791190D01*
X7922905Y-10781667D01*
X7941952Y-10772143D01*
X7970524Y-10772143D01*
X7989571Y-10781667D01*
X7999095Y-10791190D01*
X8008619Y-10810238D01*
X8008619Y-10867381D01*
X7999095Y-10886429D01*
X7989571Y-10895952D01*
X7970524Y-10905476D01*
X7941952Y-10905476D01*
X8122905Y-10905476D02*
X8103857Y-10895952D01*
X8094333Y-10876905D01*
X8094333Y-10705476D01*
X8275286Y-10895952D02*
X8256238Y-10905476D01*
X8218143Y-10905476D01*
X8199095Y-10895952D01*
X8189571Y-10876905D01*
X8189571Y-10800714D01*
X8199095Y-10781667D01*
X8218143Y-10772143D01*
X8256238Y-10772143D01*
X8275286Y-10781667D01*
X8284809Y-10800714D01*
X8284809Y-10819762D01*
X8189571Y-10838810D01*
X8361000Y-10895952D02*
X8380048Y-10905476D01*
X8418143Y-10905476D01*
X8437190Y-10895952D01*
X8446714Y-10876905D01*
X8446714Y-10867381D01*
X8437190Y-10848333D01*
X8418143Y-10838810D01*
X8389571Y-10838810D01*
X8370524Y-10829286D01*
X8361000Y-10810238D01*
X8361000Y-10800714D01*
X8370524Y-10781667D01*
X8389571Y-10772143D01*
X8418143Y-10772143D01*
X8437190Y-10781667D01*
X8513381Y-10981667D02*
X8522905Y-10972143D01*
X8541952Y-10943571D01*
X8551476Y-10924524D01*
X8561000Y-10895952D01*
X8570524Y-10848333D01*
X8570524Y-10810238D01*
X8561000Y-10762619D01*
X8551476Y-10734048D01*
X8541952Y-10715000D01*
X8522905Y-10686429D01*
X8513381Y-10676905D01*
D14*
X3511000Y-11039000D02*
X3511000Y-11119000D01*
X3471000Y-11079000D02*
X3551000Y-11079000D01*
D11*
X3846714Y-10969476D02*
X3865762Y-10969476D01*
X3884809Y-10979000D01*
X3894333Y-10988524D01*
X3903857Y-11007571D01*
X3913381Y-11045667D01*
X3913381Y-11093286D01*
X3903857Y-11131381D01*
X3894333Y-11150429D01*
X3884809Y-11159952D01*
X3865762Y-11169476D01*
X3846714Y-11169476D01*
X3827667Y-11159952D01*
X3818143Y-11150429D01*
X3808619Y-11131381D01*
X3799095Y-11093286D01*
X3799095Y-11045667D01*
X3808619Y-11007571D01*
X3818143Y-10988524D01*
X3827667Y-10979000D01*
X3846714Y-10969476D01*
X3999095Y-11150429D02*
X4008619Y-11159952D01*
X3999095Y-11169476D01*
X3989571Y-11159952D01*
X3999095Y-11150429D01*
X3999095Y-11169476D01*
X4122905Y-11055190D02*
X4103857Y-11045667D01*
X4094333Y-11036143D01*
X4084809Y-11017095D01*
X4084809Y-11007571D01*
X4094333Y-10988524D01*
X4103857Y-10979000D01*
X4122905Y-10969476D01*
X4161000Y-10969476D01*
X4180048Y-10979000D01*
X4189571Y-10988524D01*
X4199095Y-11007571D01*
X4199095Y-11017095D01*
X4189571Y-11036143D01*
X4180048Y-11045667D01*
X4161000Y-11055190D01*
X4122905Y-11055190D01*
X4103857Y-11064714D01*
X4094333Y-11074238D01*
X4084809Y-11093286D01*
X4084809Y-11131381D01*
X4094333Y-11150429D01*
X4103857Y-11159952D01*
X4122905Y-11169476D01*
X4161000Y-11169476D01*
X4180048Y-11159952D01*
X4189571Y-11150429D01*
X4199095Y-11131381D01*
X4199095Y-11093286D01*
X4189571Y-11074238D01*
X4180048Y-11064714D01*
X4161000Y-11055190D01*
X4322905Y-10969476D02*
X4341952Y-10969476D01*
X4361000Y-10979000D01*
X4370524Y-10988524D01*
X4380048Y-11007571D01*
X4389571Y-11045667D01*
X4389571Y-11093286D01*
X4380048Y-11131381D01*
X4370524Y-11150429D01*
X4361000Y-11159952D01*
X4341952Y-11169476D01*
X4322905Y-11169476D01*
X4303857Y-11159952D01*
X4294333Y-11150429D01*
X4284810Y-11131381D01*
X4275286Y-11093286D01*
X4275286Y-11045667D01*
X4284810Y-11007571D01*
X4294333Y-10988524D01*
X4303857Y-10979000D01*
X4322905Y-10969476D01*
X4513381Y-10969476D02*
X4532429Y-10969476D01*
X4551476Y-10979000D01*
X4561000Y-10988524D01*
X4570524Y-11007571D01*
X4580048Y-11045667D01*
X4580048Y-11093286D01*
X4570524Y-11131381D01*
X4561000Y-11150429D01*
X4551476Y-11159952D01*
X4532429Y-11169476D01*
X4513381Y-11169476D01*
X4494333Y-11159952D01*
X4484810Y-11150429D01*
X4475286Y-11131381D01*
X4465762Y-11093286D01*
X4465762Y-11045667D01*
X4475286Y-11007571D01*
X4484810Y-10988524D01*
X4494333Y-10979000D01*
X4513381Y-10969476D01*
X4665762Y-11169476D02*
X4665762Y-11036143D01*
X4665762Y-11055190D02*
X4675286Y-11045667D01*
X4694333Y-11036143D01*
X4722905Y-11036143D01*
X4741952Y-11045667D01*
X4751476Y-11064714D01*
X4751476Y-11169476D01*
X4751476Y-11064714D02*
X4761000Y-11045667D01*
X4780048Y-11036143D01*
X4808619Y-11036143D01*
X4827667Y-11045667D01*
X4837190Y-11064714D01*
X4837190Y-11169476D01*
X4932429Y-11169476D02*
X4932429Y-11036143D01*
X4932429Y-11055190D02*
X4941952Y-11045667D01*
X4961000Y-11036143D01*
X4989571Y-11036143D01*
X5008619Y-11045667D01*
X5018143Y-11064714D01*
X5018143Y-11169476D01*
X5018143Y-11064714D02*
X5027667Y-11045667D01*
X5046714Y-11036143D01*
X5075286Y-11036143D01*
X5094333Y-11045667D01*
X5103857Y-11064714D01*
X5103857Y-11169476D01*
X5494333Y-10959952D02*
X5322905Y-11217095D01*
X5751476Y-10969476D02*
X5770524Y-10969476D01*
X5789571Y-10979000D01*
X5799095Y-10988524D01*
X5808619Y-11007571D01*
X5818143Y-11045667D01*
X5818143Y-11093286D01*
X5808619Y-11131381D01*
X5799095Y-11150429D01*
X5789571Y-11159952D01*
X5770524Y-11169476D01*
X5751476Y-11169476D01*
X5732428Y-11159952D01*
X5722905Y-11150429D01*
X5713381Y-11131381D01*
X5703857Y-11093286D01*
X5703857Y-11045667D01*
X5713381Y-11007571D01*
X5722905Y-10988524D01*
X5732428Y-10979000D01*
X5751476Y-10969476D01*
X5903857Y-11150429D02*
X5913381Y-11159952D01*
X5903857Y-11169476D01*
X5894333Y-11159952D01*
X5903857Y-11150429D01*
X5903857Y-11169476D01*
X6037190Y-10969476D02*
X6056238Y-10969476D01*
X6075286Y-10979000D01*
X6084809Y-10988524D01*
X6094333Y-11007571D01*
X6103857Y-11045667D01*
X6103857Y-11093286D01*
X6094333Y-11131381D01*
X6084809Y-11150429D01*
X6075286Y-11159952D01*
X6056238Y-11169476D01*
X6037190Y-11169476D01*
X6018143Y-11159952D01*
X6008619Y-11150429D01*
X5999095Y-11131381D01*
X5989571Y-11093286D01*
X5989571Y-11045667D01*
X5999095Y-11007571D01*
X6008619Y-10988524D01*
X6018143Y-10979000D01*
X6037190Y-10969476D01*
X6170524Y-10969476D02*
X6294333Y-10969476D01*
X6227667Y-11045667D01*
X6256238Y-11045667D01*
X6275286Y-11055190D01*
X6284809Y-11064714D01*
X6294333Y-11083762D01*
X6294333Y-11131381D01*
X6284809Y-11150429D01*
X6275286Y-11159952D01*
X6256238Y-11169476D01*
X6199095Y-11169476D01*
X6180048Y-11159952D01*
X6170524Y-11150429D01*
X6484809Y-11169476D02*
X6370524Y-11169476D01*
X6427667Y-11169476D02*
X6427667Y-10969476D01*
X6408619Y-10998048D01*
X6389571Y-11017095D01*
X6370524Y-11026619D01*
X6665762Y-10969476D02*
X6570524Y-10969476D01*
X6561000Y-11064714D01*
X6570524Y-11055190D01*
X6589571Y-11045667D01*
X6637190Y-11045667D01*
X6656238Y-11055190D01*
X6665762Y-11064714D01*
X6675286Y-11083762D01*
X6675286Y-11131381D01*
X6665762Y-11150429D01*
X6656238Y-11159952D01*
X6637190Y-11169476D01*
X6589571Y-11169476D01*
X6570524Y-11159952D01*
X6561000Y-11150429D01*
X6751476Y-10969476D02*
X6751476Y-11007571D01*
X6827667Y-10969476D02*
X6827667Y-11007571D01*
X7122905Y-11245667D02*
X7113381Y-11236143D01*
X7094333Y-11207571D01*
X7084809Y-11188524D01*
X7075286Y-11159952D01*
X7065762Y-11112333D01*
X7065762Y-11074238D01*
X7075286Y-11026619D01*
X7084809Y-10998048D01*
X7094333Y-10979000D01*
X7113381Y-10950429D01*
X7122905Y-10940905D01*
X7284809Y-10969476D02*
X7246714Y-10969476D01*
X7227667Y-10979000D01*
X7218143Y-10988524D01*
X7199095Y-11017095D01*
X7189571Y-11055190D01*
X7189571Y-11131381D01*
X7199095Y-11150429D01*
X7208619Y-11159952D01*
X7227667Y-11169476D01*
X7265762Y-11169476D01*
X7284809Y-11159952D01*
X7294333Y-11150429D01*
X7303857Y-11131381D01*
X7303857Y-11083762D01*
X7294333Y-11064714D01*
X7284809Y-11055190D01*
X7265762Y-11045667D01*
X7227667Y-11045667D01*
X7208619Y-11055190D01*
X7199095Y-11064714D01*
X7189571Y-11083762D01*
X7370524Y-10969476D02*
X7494333Y-10969476D01*
X7427667Y-11045667D01*
X7456238Y-11045667D01*
X7475286Y-11055190D01*
X7484809Y-11064714D01*
X7494333Y-11083762D01*
X7494333Y-11131381D01*
X7484809Y-11150429D01*
X7475286Y-11159952D01*
X7456238Y-11169476D01*
X7399095Y-11169476D01*
X7380048Y-11159952D01*
X7370524Y-11150429D01*
X7732428Y-11169476D02*
X7732428Y-10969476D01*
X7818143Y-11169476D02*
X7818143Y-11064714D01*
X7808619Y-11045667D01*
X7789571Y-11036143D01*
X7761000Y-11036143D01*
X7741952Y-11045667D01*
X7732428Y-11055190D01*
X7941952Y-11169476D02*
X7922905Y-11159952D01*
X7913381Y-11150429D01*
X7903857Y-11131381D01*
X7903857Y-11074238D01*
X7913381Y-11055190D01*
X7922905Y-11045667D01*
X7941952Y-11036143D01*
X7970524Y-11036143D01*
X7989571Y-11045667D01*
X7999095Y-11055190D01*
X8008619Y-11074238D01*
X8008619Y-11131381D01*
X7999095Y-11150429D01*
X7989571Y-11159952D01*
X7970524Y-11169476D01*
X7941952Y-11169476D01*
X8122905Y-11169476D02*
X8103857Y-11159952D01*
X8094333Y-11140905D01*
X8094333Y-10969476D01*
X8275286Y-11159952D02*
X8256238Y-11169476D01*
X8218143Y-11169476D01*
X8199095Y-11159952D01*
X8189571Y-11140905D01*
X8189571Y-11064714D01*
X8199095Y-11045667D01*
X8218143Y-11036143D01*
X8256238Y-11036143D01*
X8275286Y-11045667D01*
X8284809Y-11064714D01*
X8284809Y-11083762D01*
X8189571Y-11102810D01*
X8361000Y-11159952D02*
X8380048Y-11169476D01*
X8418143Y-11169476D01*
X8437190Y-11159952D01*
X8446714Y-11140905D01*
X8446714Y-11131381D01*
X8437190Y-11112333D01*
X8418143Y-11102810D01*
X8389571Y-11102810D01*
X8370524Y-11093286D01*
X8361000Y-11074238D01*
X8361000Y-11064714D01*
X8370524Y-11045667D01*
X8389571Y-11036143D01*
X8418143Y-11036143D01*
X8437190Y-11045667D01*
X8513381Y-11245667D02*
X8522905Y-11236143D01*
X8541952Y-11207571D01*
X8551476Y-11188524D01*
X8561000Y-11159952D01*
X8570524Y-11112333D01*
X8570524Y-11074238D01*
X8561000Y-11026619D01*
X8551476Y-10998048D01*
X8541952Y-10979000D01*
X8522905Y-10950429D01*
X8513381Y-10940905D01*
D15*
X3536356Y-11378356D02*
X3536356Y-11307644D01*
X3465644Y-11307644D01*
X3465644Y-11378356D01*
X3536356Y-11378356D01*
D11*
X3913381Y-11433476D02*
X3799095Y-11433476D01*
X3856238Y-11433476D02*
X3856238Y-11233476D01*
X3837190Y-11262048D01*
X3818143Y-11281095D01*
X3799095Y-11290619D01*
X3999095Y-11414428D02*
X4008619Y-11423952D01*
X3999095Y-11433476D01*
X3989571Y-11423952D01*
X3999095Y-11414428D01*
X3999095Y-11433476D01*
X4132428Y-11233476D02*
X4151476Y-11233476D01*
X4170524Y-11243000D01*
X4180048Y-11252524D01*
X4189571Y-11271571D01*
X4199095Y-11309667D01*
X4199095Y-11357286D01*
X4189571Y-11395381D01*
X4180048Y-11414428D01*
X4170524Y-11423952D01*
X4151476Y-11433476D01*
X4132428Y-11433476D01*
X4113381Y-11423952D01*
X4103857Y-11414428D01*
X4094333Y-11395381D01*
X4084809Y-11357286D01*
X4084809Y-11309667D01*
X4094333Y-11271571D01*
X4103857Y-11252524D01*
X4113381Y-11243000D01*
X4132428Y-11233476D01*
X4322905Y-11233476D02*
X4341952Y-11233476D01*
X4361000Y-11243000D01*
X4370524Y-11252524D01*
X4380048Y-11271571D01*
X4389571Y-11309667D01*
X4389571Y-11357286D01*
X4380048Y-11395381D01*
X4370524Y-11414428D01*
X4361000Y-11423952D01*
X4341952Y-11433476D01*
X4322905Y-11433476D01*
X4303857Y-11423952D01*
X4294333Y-11414428D01*
X4284810Y-11395381D01*
X4275286Y-11357286D01*
X4275286Y-11309667D01*
X4284810Y-11271571D01*
X4294333Y-11252524D01*
X4303857Y-11243000D01*
X4322905Y-11233476D01*
X4513381Y-11233476D02*
X4532429Y-11233476D01*
X4551476Y-11243000D01*
X4561000Y-11252524D01*
X4570524Y-11271571D01*
X4580048Y-11309667D01*
X4580048Y-11357286D01*
X4570524Y-11395381D01*
X4561000Y-11414428D01*
X4551476Y-11423952D01*
X4532429Y-11433476D01*
X4513381Y-11433476D01*
X4494333Y-11423952D01*
X4484810Y-11414428D01*
X4475286Y-11395381D01*
X4465762Y-11357286D01*
X4465762Y-11309667D01*
X4475286Y-11271571D01*
X4484810Y-11252524D01*
X4494333Y-11243000D01*
X4513381Y-11233476D01*
X4665762Y-11433476D02*
X4665762Y-11300143D01*
X4665762Y-11319190D02*
X4675286Y-11309667D01*
X4694333Y-11300143D01*
X4722905Y-11300143D01*
X4741952Y-11309667D01*
X4751476Y-11328714D01*
X4751476Y-11433476D01*
X4751476Y-11328714D02*
X4761000Y-11309667D01*
X4780048Y-11300143D01*
X4808619Y-11300143D01*
X4827667Y-11309667D01*
X4837190Y-11328714D01*
X4837190Y-11433476D01*
X4932429Y-11433476D02*
X4932429Y-11300143D01*
X4932429Y-11319190D02*
X4941952Y-11309667D01*
X4961000Y-11300143D01*
X4989571Y-11300143D01*
X5008619Y-11309667D01*
X5018143Y-11328714D01*
X5018143Y-11433476D01*
X5018143Y-11328714D02*
X5027667Y-11309667D01*
X5046714Y-11300143D01*
X5075286Y-11300143D01*
X5094333Y-11309667D01*
X5103857Y-11328714D01*
X5103857Y-11433476D01*
X5494333Y-11223952D02*
X5322905Y-11481095D01*
X5751476Y-11233476D02*
X5770524Y-11233476D01*
X5789571Y-11243000D01*
X5799095Y-11252524D01*
X5808619Y-11271571D01*
X5818143Y-11309667D01*
X5818143Y-11357286D01*
X5808619Y-11395381D01*
X5799095Y-11414428D01*
X5789571Y-11423952D01*
X5770524Y-11433476D01*
X5751476Y-11433476D01*
X5732428Y-11423952D01*
X5722905Y-11414428D01*
X5713381Y-11395381D01*
X5703857Y-11357286D01*
X5703857Y-11309667D01*
X5713381Y-11271571D01*
X5722905Y-11252524D01*
X5732428Y-11243000D01*
X5751476Y-11233476D01*
X5903857Y-11414428D02*
X5913381Y-11423952D01*
X5903857Y-11433476D01*
X5894333Y-11423952D01*
X5903857Y-11414428D01*
X5903857Y-11433476D01*
X6037190Y-11233476D02*
X6056238Y-11233476D01*
X6075286Y-11243000D01*
X6084809Y-11252524D01*
X6094333Y-11271571D01*
X6103857Y-11309667D01*
X6103857Y-11357286D01*
X6094333Y-11395381D01*
X6084809Y-11414428D01*
X6075286Y-11423952D01*
X6056238Y-11433476D01*
X6037190Y-11433476D01*
X6018143Y-11423952D01*
X6008619Y-11414428D01*
X5999095Y-11395381D01*
X5989571Y-11357286D01*
X5989571Y-11309667D01*
X5999095Y-11271571D01*
X6008619Y-11252524D01*
X6018143Y-11243000D01*
X6037190Y-11233476D01*
X6170524Y-11233476D02*
X6294333Y-11233476D01*
X6227667Y-11309667D01*
X6256238Y-11309667D01*
X6275286Y-11319190D01*
X6284809Y-11328714D01*
X6294333Y-11347762D01*
X6294333Y-11395381D01*
X6284809Y-11414428D01*
X6275286Y-11423952D01*
X6256238Y-11433476D01*
X6199095Y-11433476D01*
X6180048Y-11423952D01*
X6170524Y-11414428D01*
X6389571Y-11433476D02*
X6427667Y-11433476D01*
X6446714Y-11423952D01*
X6456238Y-11414428D01*
X6475286Y-11385857D01*
X6484809Y-11347762D01*
X6484809Y-11271571D01*
X6475286Y-11252524D01*
X6465762Y-11243000D01*
X6446714Y-11233476D01*
X6408619Y-11233476D01*
X6389571Y-11243000D01*
X6380048Y-11252524D01*
X6370524Y-11271571D01*
X6370524Y-11319190D01*
X6380048Y-11338238D01*
X6389571Y-11347762D01*
X6408619Y-11357286D01*
X6446714Y-11357286D01*
X6465762Y-11347762D01*
X6475286Y-11338238D01*
X6484809Y-11319190D01*
X6656238Y-11300143D02*
X6656238Y-11433476D01*
X6608619Y-11223952D02*
X6561000Y-11366809D01*
X6684809Y-11366809D01*
X6751476Y-11233476D02*
X6751476Y-11271571D01*
X6827667Y-11233476D02*
X6827667Y-11271571D01*
X7122905Y-11509667D02*
X7113381Y-11500143D01*
X7094333Y-11471571D01*
X7084809Y-11452524D01*
X7075286Y-11423952D01*
X7065762Y-11376333D01*
X7065762Y-11338238D01*
X7075286Y-11290619D01*
X7084809Y-11262048D01*
X7094333Y-11243000D01*
X7113381Y-11214428D01*
X7122905Y-11204905D01*
X7303857Y-11433476D02*
X7189571Y-11433476D01*
X7246714Y-11433476D02*
X7246714Y-11233476D01*
X7227667Y-11262048D01*
X7208619Y-11281095D01*
X7189571Y-11290619D01*
X7370524Y-11233476D02*
X7503857Y-11233476D01*
X7418143Y-11433476D01*
X7732428Y-11433476D02*
X7732428Y-11233476D01*
X7818143Y-11433476D02*
X7818143Y-11328714D01*
X7808619Y-11309667D01*
X7789571Y-11300143D01*
X7761000Y-11300143D01*
X7741952Y-11309667D01*
X7732428Y-11319190D01*
X7941952Y-11433476D02*
X7922905Y-11423952D01*
X7913381Y-11414428D01*
X7903857Y-11395381D01*
X7903857Y-11338238D01*
X7913381Y-11319190D01*
X7922905Y-11309667D01*
X7941952Y-11300143D01*
X7970524Y-11300143D01*
X7989571Y-11309667D01*
X7999095Y-11319190D01*
X8008619Y-11338238D01*
X8008619Y-11395381D01*
X7999095Y-11414428D01*
X7989571Y-11423952D01*
X7970524Y-11433476D01*
X7941952Y-11433476D01*
X8122905Y-11433476D02*
X8103857Y-11423952D01*
X8094333Y-11404905D01*
X8094333Y-11233476D01*
X8275286Y-11423952D02*
X8256238Y-11433476D01*
X8218143Y-11433476D01*
X8199095Y-11423952D01*
X8189571Y-11404905D01*
X8189571Y-11328714D01*
X8199095Y-11309667D01*
X8218143Y-11300143D01*
X8256238Y-11300143D01*
X8275286Y-11309667D01*
X8284809Y-11328714D01*
X8284809Y-11347762D01*
X8189571Y-11366809D01*
X8361000Y-11423952D02*
X8380048Y-11433476D01*
X8418143Y-11433476D01*
X8437190Y-11423952D01*
X8446714Y-11404905D01*
X8446714Y-11395381D01*
X8437190Y-11376333D01*
X8418143Y-11366809D01*
X8389571Y-11366809D01*
X8370524Y-11357286D01*
X8361000Y-11338238D01*
X8361000Y-11328714D01*
X8370524Y-11309667D01*
X8389571Y-11300143D01*
X8418143Y-11300143D01*
X8437190Y-11309667D01*
X8684810Y-11357286D02*
X8837190Y-11357286D01*
X8761000Y-11433476D02*
X8761000Y-11281095D01*
X9065762Y-11233476D02*
X9189571Y-11233476D01*
X9122905Y-11309667D01*
X9151476Y-11309667D01*
X9170524Y-11319190D01*
X9180048Y-11328714D01*
X9189571Y-11347762D01*
X9189571Y-11395381D01*
X9180048Y-11414428D01*
X9170524Y-11423952D01*
X9151476Y-11433476D01*
X9094333Y-11433476D01*
X9075286Y-11423952D01*
X9065762Y-11414428D01*
X9418143Y-11423952D02*
X9437190Y-11433476D01*
X9475286Y-11433476D01*
X9494333Y-11423952D01*
X9503857Y-11404905D01*
X9503857Y-11395381D01*
X9494333Y-11376333D01*
X9475286Y-11366809D01*
X9446714Y-11366809D01*
X9427667Y-11357286D01*
X9418143Y-11338238D01*
X9418143Y-11328714D01*
X9427667Y-11309667D01*
X9446714Y-11300143D01*
X9475286Y-11300143D01*
X9494333Y-11309667D01*
X9618143Y-11433476D02*
X9599095Y-11423952D01*
X9589571Y-11404905D01*
X9589571Y-11233476D01*
X9722905Y-11433476D02*
X9703857Y-11423952D01*
X9694333Y-11414428D01*
X9684810Y-11395381D01*
X9684810Y-11338238D01*
X9694333Y-11319190D01*
X9703857Y-11309667D01*
X9722905Y-11300143D01*
X9751476Y-11300143D01*
X9770524Y-11309667D01*
X9780048Y-11319190D01*
X9789571Y-11338238D01*
X9789571Y-11395381D01*
X9780048Y-11414428D01*
X9770524Y-11423952D01*
X9751476Y-11433476D01*
X9722905Y-11433476D01*
X9846714Y-11300143D02*
X9922905Y-11300143D01*
X9875286Y-11233476D02*
X9875286Y-11404905D01*
X9884810Y-11423952D01*
X9903857Y-11433476D01*
X9922905Y-11433476D01*
X9980048Y-11423952D02*
X9999095Y-11433476D01*
X10037190Y-11433476D01*
X10056238Y-11423952D01*
X10065762Y-11404905D01*
X10065762Y-11395381D01*
X10056238Y-11376333D01*
X10037190Y-11366809D01*
X10008619Y-11366809D01*
X9989571Y-11357286D01*
X9980048Y-11338238D01*
X9980048Y-11328714D01*
X9989571Y-11309667D01*
X10008619Y-11300143D01*
X10037190Y-11300143D01*
X10056238Y-11309667D01*
X10132429Y-11509667D02*
X10141952Y-11500143D01*
X10161000Y-11471571D01*
X10170524Y-11452524D01*
X10180048Y-11423952D01*
X10189571Y-11376333D01*
X10189571Y-11338238D01*
X10180048Y-11290619D01*
X10170524Y-11262048D01*
X10161000Y-11243000D01*
X10141952Y-11214428D01*
X10132429Y-11204905D01*
M02*
