%TF.GenerationSoftware,KiCad,Pcbnew,(6.0.0)*%
%TF.CreationDate,2022-01-24T17:52:30-05:00*%
%TF.ProjectId,function generator,66756e63-7469-46f6-9e20-67656e657261,rev?*%
%TF.SameCoordinates,Original*%
%TF.FileFunction,Soldermask,Top*%
%TF.FilePolarity,Negative*%
%FSLAX46Y46*%
G04 Gerber Fmt 4.6, Leading zero omitted, Abs format (unit mm)*
G04 Created by KiCad (PCBNEW (6.0.0)) date 2022-01-24 17:52:30*
%MOMM*%
%LPD*%
G01*
G04 APERTURE LIST*
G04 Aperture macros list*
%AMRoundRect*
0 Rectangle with rounded corners*
0 $1 Rounding radius*
0 $2 $3 $4 $5 $6 $7 $8 $9 X,Y pos of 4 corners*
0 Add a 4 corners polygon primitive as box body*
4,1,4,$2,$3,$4,$5,$6,$7,$8,$9,$2,$3,0*
0 Add four circle primitives for the rounded corners*
1,1,$1+$1,$2,$3*
1,1,$1+$1,$4,$5*
1,1,$1+$1,$6,$7*
1,1,$1+$1,$8,$9*
0 Add four rect primitives between the rounded corners*
20,1,$1+$1,$2,$3,$4,$5,0*
20,1,$1+$1,$4,$5,$6,$7,0*
20,1,$1+$1,$6,$7,$8,$9,0*
20,1,$1+$1,$8,$9,$2,$3,0*%
G04 Aperture macros list end*
%ADD10RoundRect,0.200000X0.275000X-0.200000X0.275000X0.200000X-0.275000X0.200000X-0.275000X-0.200000X0*%
%ADD11RoundRect,0.200000X0.200000X0.275000X-0.200000X0.275000X-0.200000X-0.275000X0.200000X-0.275000X0*%
%ADD12C,1.600000*%
%ADD13R,1.700000X1.700000*%
%ADD14O,1.700000X1.700000*%
%ADD15R,1.500000X1.050000*%
%ADD16O,1.500000X1.050000*%
%ADD17C,1.440000*%
%ADD18RoundRect,0.200000X-0.200000X-0.275000X0.200000X-0.275000X0.200000X0.275000X-0.200000X0.275000X0*%
%ADD19RoundRect,0.200000X-0.275000X0.200000X-0.275000X-0.200000X0.275000X-0.200000X0.275000X0.200000X0*%
%ADD20C,3.200000*%
%ADD21R,1.600000X1.600000*%
%ADD22O,1.600000X1.600000*%
%ADD23RoundRect,0.225000X0.225000X0.250000X-0.225000X0.250000X-0.225000X-0.250000X0.225000X-0.250000X0*%
%ADD24R,3.500000X3.500000*%
%ADD25RoundRect,0.750000X-1.000000X0.750000X-1.000000X-0.750000X1.000000X-0.750000X1.000000X0.750000X0*%
%ADD26RoundRect,0.875000X-0.875000X0.875000X-0.875000X-0.875000X0.875000X-0.875000X0.875000X0.875000X0*%
%ADD27R,2.000000X1.500000*%
%ADD28R,2.000000X3.800000*%
%ADD29RoundRect,0.225000X0.250000X-0.225000X0.250000X0.225000X-0.250000X0.225000X-0.250000X-0.225000X0*%
G04 APERTURE END LIST*
D10*
%TO.C,R13*%
X116332000Y-63309000D03*
X116332000Y-61659000D03*
%TD*%
D11*
%TO.C,R12*%
X112733000Y-58674000D03*
X111083000Y-58674000D03*
%TD*%
D10*
%TO.C,R15*%
X116840000Y-71691000D03*
X116840000Y-70041000D03*
%TD*%
D12*
%TO.C,C2*%
X93492000Y-31516000D03*
X93492000Y-34016000D03*
%TD*%
D13*
%TO.C,S1*%
X60965000Y-73137000D03*
D14*
X58425000Y-73137000D03*
X60965000Y-70597000D03*
X58425000Y-70597000D03*
X60965000Y-68057000D03*
X58425000Y-68057000D03*
%TD*%
D15*
%TO.C,Q3*%
X110490000Y-64770000D03*
D16*
X110490000Y-63500000D03*
X110490000Y-62230000D03*
%TD*%
D13*
%TO.C,J5*%
X61214000Y-55621000D03*
D14*
X61214000Y-58161000D03*
%TD*%
D11*
%TO.C,R7*%
X69913000Y-55626000D03*
X68263000Y-55626000D03*
%TD*%
D12*
%TO.C,C7*%
X70846000Y-61468000D03*
X68346000Y-61468000D03*
%TD*%
D11*
%TO.C,R5*%
X91249000Y-75438000D03*
X89599000Y-75438000D03*
%TD*%
D17*
%TO.C,VR4*%
X113792000Y-50292000D03*
X118872000Y-47752000D03*
X113792000Y-45212000D03*
%TD*%
D18*
%TO.C,R8*%
X64898000Y-55626000D03*
X66548000Y-55626000D03*
%TD*%
D12*
%TO.C,C5*%
X69068000Y-74168000D03*
X66568000Y-74168000D03*
%TD*%
D17*
%TO.C,VR1*%
X86983000Y-45212000D03*
X81903000Y-47752000D03*
X86983000Y-50292000D03*
%TD*%
%TO.C,VR2*%
X85229000Y-66548000D03*
X90309000Y-64008000D03*
X85229000Y-61468000D03*
%TD*%
D10*
%TO.C,R2*%
X77216000Y-63055000D03*
X77216000Y-61405000D03*
%TD*%
D19*
%TO.C,R9*%
X62230000Y-50483000D03*
X62230000Y-52133000D03*
%TD*%
D15*
%TO.C,Q4*%
X111146000Y-72390000D03*
D16*
X111146000Y-73660000D03*
X111146000Y-74930000D03*
%TD*%
D20*
%TO.C,REF\u002A\u002A*%
X40640000Y-93980000D03*
%TD*%
D21*
%TO.C,IC2*%
X94996000Y-57150000D03*
D22*
X94996000Y-59690000D03*
X94996000Y-62230000D03*
X94996000Y-64770000D03*
X94996000Y-67310000D03*
X94996000Y-69850000D03*
X94996000Y-72390000D03*
X94996000Y-74930000D03*
X102616000Y-74930000D03*
X102616000Y-72390000D03*
X102616000Y-69850000D03*
X102616000Y-67310000D03*
X102616000Y-64770000D03*
X102616000Y-62230000D03*
X102616000Y-59690000D03*
X102616000Y-57150000D03*
%TD*%
D12*
%TO.C,C3*%
X80518000Y-63734000D03*
X80518000Y-61234000D03*
%TD*%
D13*
%TO.C,S2*%
X105156000Y-45481000D03*
D14*
X105156000Y-48021000D03*
X105156000Y-50561000D03*
%TD*%
D19*
%TO.C,R4*%
X90678000Y-55055000D03*
X90678000Y-56705000D03*
%TD*%
D12*
%TO.C,C6*%
X69068000Y-67310000D03*
X66568000Y-67310000D03*
%TD*%
D20*
%TO.C,REF\u002A\u002A*%
X129540000Y-27940000D03*
%TD*%
D13*
%TO.C,J3*%
X117348000Y-82545000D03*
D14*
X117348000Y-85085000D03*
%TD*%
D23*
%TO.C,C9*%
X69843000Y-70612000D03*
X68293000Y-70612000D03*
%TD*%
D12*
%TO.C,C4*%
X100096000Y-80010000D03*
X102596000Y-80010000D03*
%TD*%
D24*
%TO.C,J1*%
X84269500Y-36988000D03*
D25*
X84269500Y-30988000D03*
D26*
X79569500Y-33988000D03*
%TD*%
D18*
%TO.C,R3*%
X86805000Y-55118000D03*
X88455000Y-55118000D03*
%TD*%
D17*
%TO.C,VR3*%
X80403000Y-80518000D03*
X85483000Y-77978000D03*
X80403000Y-75438000D03*
%TD*%
%TO.C,VR5*%
X99822000Y-50407000D03*
X97282000Y-45327000D03*
X94742000Y-50407000D03*
%TD*%
D21*
%TO.C,IC4*%
X112273000Y-85100000D03*
D22*
X109733000Y-85100000D03*
X107193000Y-85100000D03*
X104653000Y-85100000D03*
X102113000Y-85100000D03*
X99573000Y-85100000D03*
X97033000Y-85100000D03*
X97033000Y-92720000D03*
X99573000Y-92720000D03*
X102113000Y-92720000D03*
X104653000Y-92720000D03*
X107193000Y-92720000D03*
X109733000Y-92720000D03*
X112273000Y-92720000D03*
%TD*%
D12*
%TO.C,C8*%
X63226000Y-45212000D03*
X60726000Y-45212000D03*
%TD*%
D27*
%TO.C,U1*%
X106020000Y-36082000D03*
D28*
X99720000Y-33782000D03*
D27*
X106020000Y-33782000D03*
X106020000Y-31482000D03*
%TD*%
D12*
%TO.C,C10*%
X112776000Y-33802000D03*
X112776000Y-36302000D03*
%TD*%
D20*
%TO.C,REF\u002A\u002A*%
X40640000Y-27940000D03*
%TD*%
D10*
%TO.C,R1*%
X77724000Y-67881000D03*
X77724000Y-66231000D03*
%TD*%
D19*
%TO.C,R11*%
X58420000Y-48451000D03*
X58420000Y-50101000D03*
%TD*%
D15*
%TO.C,Q1*%
X75036000Y-53086000D03*
D16*
X75036000Y-51816000D03*
X75036000Y-50546000D03*
%TD*%
D21*
%TO.C,D1*%
X107590000Y-67818000D03*
D22*
X115210000Y-67818000D03*
%TD*%
D10*
%TO.C,R10*%
X75184000Y-57213000D03*
X75184000Y-55563000D03*
%TD*%
D20*
%TO.C,REF\u002A\u002A*%
X129540000Y-93980000D03*
%TD*%
D18*
%TO.C,R14*%
X116777000Y-65278000D03*
X118427000Y-65278000D03*
%TD*%
D19*
%TO.C,R6*%
X104902000Y-57595000D03*
X104902000Y-59245000D03*
%TD*%
D29*
%TO.C,C1*%
X93980000Y-89675000D03*
X93980000Y-88125000D03*
%TD*%
D13*
%TO.C,J4*%
X119888000Y-59431000D03*
D14*
X119888000Y-61971000D03*
%TD*%
D13*
%TO.C,J2*%
X117348000Y-75433000D03*
D14*
X117348000Y-77973000D03*
%TD*%
D11*
%TO.C,R16*%
X112585000Y-77216000D03*
X110935000Y-77216000D03*
%TD*%
D15*
%TO.C,Q2*%
X67162000Y-51816000D03*
D16*
X67162000Y-50546000D03*
X67162000Y-49276000D03*
%TD*%
M02*
