%FSLAX45Y45*%
G04 Gerber Fmt 4.5, Leading zero omitted, Abs format (unit mm)*
G04 Created by KiCad (PCBNEW (6.0.0)) date 2022-01-24 17:52:32*
%MOMM*%
%LPD*%
G01*
G04 APERTURE LIST*
%TA.AperFunction,Profile*%
%ADD10C,0.100000*%
%TD*%
%ADD11C,0.200000*%
%ADD12C,0.320000*%
G04 APERTURE END LIST*
D10*
X8890000Y-2286000D02*
X12954000Y-2286000D01*
X13462000Y-9398000D02*
X13462000Y-2794000D01*
X4064000Y-2286000D02*
X8890000Y-2286000D01*
X3556000Y-9398000D02*
X3556000Y-2794000D01*
X4064000Y-9906000D02*
X12954000Y-9906000D01*
X13462000Y-2794000D02*
G75*
G03*
X12954000Y-2286000I-508000J0D01*
G01*
X3556000Y-9398000D02*
G75*
G03*
X4064000Y-9906000I508000J0D01*
G01*
X12954000Y-9906000D02*
G75*
G03*
X13462000Y-9398000I0J508000D01*
G01*
X4064000Y-2286000D02*
G75*
G03*
X3556000Y-2794000I0J-508000D01*
G01*
D11*
D12*
X3904000Y-2634000D02*
X4224000Y-2954000D01*
X4224000Y-2634000D02*
X3904000Y-2954000D01*
X3904000Y-9238000D02*
X4224000Y-9558000D01*
X4224000Y-9238000D02*
X3904000Y-9558000D01*
X12794000Y-2634000D02*
X13114000Y-2954000D01*
X13114000Y-2634000D02*
X12794000Y-2954000D01*
X12794000Y-9238000D02*
X13114000Y-9558000D01*
X13114000Y-9238000D02*
X12794000Y-9558000D01*
D11*
X3808619Y-10221476D02*
X3808619Y-10021476D01*
X3856238Y-10021476D01*
X3884809Y-10031000D01*
X3903857Y-10050048D01*
X3913381Y-10069095D01*
X3922905Y-10107190D01*
X3922905Y-10135762D01*
X3913381Y-10173857D01*
X3903857Y-10192905D01*
X3884809Y-10211952D01*
X3856238Y-10221476D01*
X3808619Y-10221476D01*
X4008619Y-10221476D02*
X4008619Y-10088143D01*
X4008619Y-10126238D02*
X4018143Y-10107190D01*
X4027667Y-10097667D01*
X4046714Y-10088143D01*
X4065762Y-10088143D01*
X4132428Y-10221476D02*
X4132428Y-10088143D01*
X4132428Y-10021476D02*
X4122905Y-10031000D01*
X4132428Y-10040524D01*
X4141952Y-10031000D01*
X4132428Y-10021476D01*
X4132428Y-10040524D01*
X4256238Y-10221476D02*
X4237190Y-10211952D01*
X4227667Y-10192905D01*
X4227667Y-10021476D01*
X4361000Y-10221476D02*
X4341952Y-10211952D01*
X4332429Y-10192905D01*
X4332429Y-10021476D01*
X4589571Y-10221476D02*
X4589571Y-10021476D01*
X4656238Y-10164333D01*
X4722905Y-10021476D01*
X4722905Y-10221476D01*
X4903857Y-10221476D02*
X4903857Y-10116714D01*
X4894333Y-10097667D01*
X4875286Y-10088143D01*
X4837190Y-10088143D01*
X4818143Y-10097667D01*
X4903857Y-10211952D02*
X4884810Y-10221476D01*
X4837190Y-10221476D01*
X4818143Y-10211952D01*
X4808619Y-10192905D01*
X4808619Y-10173857D01*
X4818143Y-10154810D01*
X4837190Y-10145286D01*
X4884810Y-10145286D01*
X4903857Y-10135762D01*
X4999095Y-10088143D02*
X4999095Y-10288143D01*
X4999095Y-10097667D02*
X5018143Y-10088143D01*
X5056238Y-10088143D01*
X5075286Y-10097667D01*
X5084810Y-10107190D01*
X5094333Y-10126238D01*
X5094333Y-10183381D01*
X5084810Y-10202429D01*
X5075286Y-10211952D01*
X5056238Y-10221476D01*
X5018143Y-10221476D01*
X4999095Y-10211952D01*
X5180048Y-10202429D02*
X5189571Y-10211952D01*
X5180048Y-10221476D01*
X5170524Y-10211952D01*
X5180048Y-10202429D01*
X5180048Y-10221476D01*
X5180048Y-10097667D02*
X5189571Y-10107190D01*
X5180048Y-10116714D01*
X5170524Y-10107190D01*
X5180048Y-10097667D01*
X5180048Y-10116714D01*
X3351000Y-10451000D02*
X3551000Y-10651000D01*
X3551000Y-10451000D02*
X3351000Y-10651000D01*
X3789571Y-10441476D02*
X3913381Y-10441476D01*
X3846714Y-10517667D01*
X3875286Y-10517667D01*
X3894333Y-10527190D01*
X3903857Y-10536714D01*
X3913381Y-10555762D01*
X3913381Y-10603381D01*
X3903857Y-10622429D01*
X3894333Y-10631952D01*
X3875286Y-10641476D01*
X3818143Y-10641476D01*
X3799095Y-10631952D01*
X3789571Y-10622429D01*
X3999095Y-10622429D02*
X4008619Y-10631952D01*
X3999095Y-10641476D01*
X3989571Y-10631952D01*
X3999095Y-10622429D01*
X3999095Y-10641476D01*
X4084809Y-10460524D02*
X4094333Y-10451000D01*
X4113381Y-10441476D01*
X4161000Y-10441476D01*
X4180048Y-10451000D01*
X4189571Y-10460524D01*
X4199095Y-10479571D01*
X4199095Y-10498619D01*
X4189571Y-10527190D01*
X4075286Y-10641476D01*
X4199095Y-10641476D01*
X4322905Y-10441476D02*
X4341952Y-10441476D01*
X4361000Y-10451000D01*
X4370524Y-10460524D01*
X4380048Y-10479571D01*
X4389571Y-10517667D01*
X4389571Y-10565286D01*
X4380048Y-10603381D01*
X4370524Y-10622429D01*
X4361000Y-10631952D01*
X4341952Y-10641476D01*
X4322905Y-10641476D01*
X4303857Y-10631952D01*
X4294333Y-10622429D01*
X4284810Y-10603381D01*
X4275286Y-10565286D01*
X4275286Y-10517667D01*
X4284810Y-10479571D01*
X4294333Y-10460524D01*
X4303857Y-10451000D01*
X4322905Y-10441476D01*
X4513381Y-10441476D02*
X4532429Y-10441476D01*
X4551476Y-10451000D01*
X4561000Y-10460524D01*
X4570524Y-10479571D01*
X4580048Y-10517667D01*
X4580048Y-10565286D01*
X4570524Y-10603381D01*
X4561000Y-10622429D01*
X4551476Y-10631952D01*
X4532429Y-10641476D01*
X4513381Y-10641476D01*
X4494333Y-10631952D01*
X4484810Y-10622429D01*
X4475286Y-10603381D01*
X4465762Y-10565286D01*
X4465762Y-10517667D01*
X4475286Y-10479571D01*
X4484810Y-10460524D01*
X4494333Y-10451000D01*
X4513381Y-10441476D01*
X4665762Y-10641476D02*
X4665762Y-10508143D01*
X4665762Y-10527190D02*
X4675286Y-10517667D01*
X4694333Y-10508143D01*
X4722905Y-10508143D01*
X4741952Y-10517667D01*
X4751476Y-10536714D01*
X4751476Y-10641476D01*
X4751476Y-10536714D02*
X4761000Y-10517667D01*
X4780048Y-10508143D01*
X4808619Y-10508143D01*
X4827667Y-10517667D01*
X4837190Y-10536714D01*
X4837190Y-10641476D01*
X4932429Y-10641476D02*
X4932429Y-10508143D01*
X4932429Y-10527190D02*
X4941952Y-10517667D01*
X4961000Y-10508143D01*
X4989571Y-10508143D01*
X5008619Y-10517667D01*
X5018143Y-10536714D01*
X5018143Y-10641476D01*
X5018143Y-10536714D02*
X5027667Y-10517667D01*
X5046714Y-10508143D01*
X5075286Y-10508143D01*
X5094333Y-10517667D01*
X5103857Y-10536714D01*
X5103857Y-10641476D01*
X5494333Y-10431952D02*
X5322905Y-10689095D01*
X5751476Y-10441476D02*
X5770524Y-10441476D01*
X5789571Y-10451000D01*
X5799095Y-10460524D01*
X5808619Y-10479571D01*
X5818143Y-10517667D01*
X5818143Y-10565286D01*
X5808619Y-10603381D01*
X5799095Y-10622429D01*
X5789571Y-10631952D01*
X5770524Y-10641476D01*
X5751476Y-10641476D01*
X5732428Y-10631952D01*
X5722905Y-10622429D01*
X5713381Y-10603381D01*
X5703857Y-10565286D01*
X5703857Y-10517667D01*
X5713381Y-10479571D01*
X5722905Y-10460524D01*
X5732428Y-10451000D01*
X5751476Y-10441476D01*
X5903857Y-10622429D02*
X5913381Y-10631952D01*
X5903857Y-10641476D01*
X5894333Y-10631952D01*
X5903857Y-10622429D01*
X5903857Y-10641476D01*
X6103857Y-10641476D02*
X5989571Y-10641476D01*
X6046714Y-10641476D02*
X6046714Y-10441476D01*
X6027667Y-10470048D01*
X6008619Y-10489095D01*
X5989571Y-10498619D01*
X6180048Y-10460524D02*
X6189571Y-10451000D01*
X6208619Y-10441476D01*
X6256238Y-10441476D01*
X6275286Y-10451000D01*
X6284809Y-10460524D01*
X6294333Y-10479571D01*
X6294333Y-10498619D01*
X6284809Y-10527190D01*
X6170524Y-10641476D01*
X6294333Y-10641476D01*
X6465762Y-10441476D02*
X6427667Y-10441476D01*
X6408619Y-10451000D01*
X6399095Y-10460524D01*
X6380048Y-10489095D01*
X6370524Y-10527190D01*
X6370524Y-10603381D01*
X6380048Y-10622429D01*
X6389571Y-10631952D01*
X6408619Y-10641476D01*
X6446714Y-10641476D01*
X6465762Y-10631952D01*
X6475286Y-10622429D01*
X6484809Y-10603381D01*
X6484809Y-10555762D01*
X6475286Y-10536714D01*
X6465762Y-10527190D01*
X6446714Y-10517667D01*
X6408619Y-10517667D01*
X6389571Y-10527190D01*
X6380048Y-10536714D01*
X6370524Y-10555762D01*
X6608619Y-10441476D02*
X6627667Y-10441476D01*
X6646714Y-10451000D01*
X6656238Y-10460524D01*
X6665762Y-10479571D01*
X6675286Y-10517667D01*
X6675286Y-10565286D01*
X6665762Y-10603381D01*
X6656238Y-10622429D01*
X6646714Y-10631952D01*
X6627667Y-10641476D01*
X6608619Y-10641476D01*
X6589571Y-10631952D01*
X6580048Y-10622429D01*
X6570524Y-10603381D01*
X6561000Y-10565286D01*
X6561000Y-10517667D01*
X6570524Y-10479571D01*
X6580048Y-10460524D01*
X6589571Y-10451000D01*
X6608619Y-10441476D01*
X6751476Y-10441476D02*
X6751476Y-10479571D01*
X6827667Y-10441476D02*
X6827667Y-10479571D01*
X7122905Y-10717667D02*
X7113381Y-10708143D01*
X7094333Y-10679571D01*
X7084809Y-10660524D01*
X7075286Y-10631952D01*
X7065762Y-10584333D01*
X7065762Y-10546238D01*
X7075286Y-10498619D01*
X7084809Y-10470048D01*
X7094333Y-10451000D01*
X7113381Y-10422429D01*
X7122905Y-10412905D01*
X7284809Y-10508143D02*
X7284809Y-10641476D01*
X7237190Y-10431952D02*
X7189571Y-10574810D01*
X7313381Y-10574810D01*
X7541952Y-10641476D02*
X7541952Y-10441476D01*
X7627667Y-10641476D02*
X7627667Y-10536714D01*
X7618143Y-10517667D01*
X7599095Y-10508143D01*
X7570524Y-10508143D01*
X7551476Y-10517667D01*
X7541952Y-10527190D01*
X7751476Y-10641476D02*
X7732428Y-10631952D01*
X7722905Y-10622429D01*
X7713381Y-10603381D01*
X7713381Y-10546238D01*
X7722905Y-10527190D01*
X7732428Y-10517667D01*
X7751476Y-10508143D01*
X7780048Y-10508143D01*
X7799095Y-10517667D01*
X7808619Y-10527190D01*
X7818143Y-10546238D01*
X7818143Y-10603381D01*
X7808619Y-10622429D01*
X7799095Y-10631952D01*
X7780048Y-10641476D01*
X7751476Y-10641476D01*
X7932428Y-10641476D02*
X7913381Y-10631952D01*
X7903857Y-10612905D01*
X7903857Y-10441476D01*
X8084809Y-10631952D02*
X8065762Y-10641476D01*
X8027667Y-10641476D01*
X8008619Y-10631952D01*
X7999095Y-10612905D01*
X7999095Y-10536714D01*
X8008619Y-10517667D01*
X8027667Y-10508143D01*
X8065762Y-10508143D01*
X8084809Y-10517667D01*
X8094333Y-10536714D01*
X8094333Y-10555762D01*
X7999095Y-10574810D01*
X8170524Y-10631952D02*
X8189571Y-10641476D01*
X8227667Y-10641476D01*
X8246714Y-10631952D01*
X8256238Y-10612905D01*
X8256238Y-10603381D01*
X8246714Y-10584333D01*
X8227667Y-10574810D01*
X8199095Y-10574810D01*
X8180048Y-10565286D01*
X8170524Y-10546238D01*
X8170524Y-10536714D01*
X8180048Y-10517667D01*
X8199095Y-10508143D01*
X8227667Y-10508143D01*
X8246714Y-10517667D01*
X8322905Y-10717667D02*
X8332428Y-10708143D01*
X8351476Y-10679571D01*
X8361000Y-10660524D01*
X8370524Y-10631952D01*
X8380048Y-10584333D01*
X8380048Y-10546238D01*
X8370524Y-10498619D01*
X8361000Y-10470048D01*
X8351476Y-10451000D01*
X8332428Y-10422429D01*
X8322905Y-10412905D01*
X8684810Y-10717667D02*
X8675286Y-10708143D01*
X8656238Y-10679571D01*
X8646714Y-10660524D01*
X8637190Y-10631952D01*
X8627667Y-10584333D01*
X8627667Y-10546238D01*
X8637190Y-10498619D01*
X8646714Y-10470048D01*
X8656238Y-10451000D01*
X8675286Y-10422429D01*
X8684810Y-10412905D01*
X8761000Y-10508143D02*
X8761000Y-10641476D01*
X8761000Y-10527190D02*
X8770524Y-10517667D01*
X8789571Y-10508143D01*
X8818143Y-10508143D01*
X8837190Y-10517667D01*
X8846714Y-10536714D01*
X8846714Y-10641476D01*
X8970524Y-10641476D02*
X8951476Y-10631952D01*
X8941952Y-10622429D01*
X8932429Y-10603381D01*
X8932429Y-10546238D01*
X8941952Y-10527190D01*
X8951476Y-10517667D01*
X8970524Y-10508143D01*
X8999095Y-10508143D01*
X9018143Y-10517667D01*
X9027667Y-10527190D01*
X9037190Y-10546238D01*
X9037190Y-10603381D01*
X9027667Y-10622429D01*
X9018143Y-10631952D01*
X8999095Y-10641476D01*
X8970524Y-10641476D01*
X9094333Y-10508143D02*
X9170524Y-10508143D01*
X9122905Y-10441476D02*
X9122905Y-10612905D01*
X9132429Y-10631952D01*
X9151476Y-10641476D01*
X9170524Y-10641476D01*
X9389571Y-10508143D02*
X9389571Y-10708143D01*
X9389571Y-10517667D02*
X9408619Y-10508143D01*
X9446714Y-10508143D01*
X9465762Y-10517667D01*
X9475286Y-10527190D01*
X9484810Y-10546238D01*
X9484810Y-10603381D01*
X9475286Y-10622429D01*
X9465762Y-10631952D01*
X9446714Y-10641476D01*
X9408619Y-10641476D01*
X9389571Y-10631952D01*
X9599095Y-10641476D02*
X9580048Y-10631952D01*
X9570524Y-10612905D01*
X9570524Y-10441476D01*
X9761000Y-10641476D02*
X9761000Y-10536714D01*
X9751476Y-10517667D01*
X9732429Y-10508143D01*
X9694333Y-10508143D01*
X9675286Y-10517667D01*
X9761000Y-10631952D02*
X9741952Y-10641476D01*
X9694333Y-10641476D01*
X9675286Y-10631952D01*
X9665762Y-10612905D01*
X9665762Y-10593857D01*
X9675286Y-10574810D01*
X9694333Y-10565286D01*
X9741952Y-10565286D01*
X9761000Y-10555762D01*
X9827667Y-10508143D02*
X9903857Y-10508143D01*
X9856238Y-10441476D02*
X9856238Y-10612905D01*
X9865762Y-10631952D01*
X9884810Y-10641476D01*
X9903857Y-10641476D01*
X10046714Y-10631952D02*
X10027667Y-10641476D01*
X9989571Y-10641476D01*
X9970524Y-10631952D01*
X9961000Y-10612905D01*
X9961000Y-10536714D01*
X9970524Y-10517667D01*
X9989571Y-10508143D01*
X10027667Y-10508143D01*
X10046714Y-10517667D01*
X10056238Y-10536714D01*
X10056238Y-10555762D01*
X9961000Y-10574810D01*
X10227667Y-10641476D02*
X10227667Y-10441476D01*
X10227667Y-10631952D02*
X10208619Y-10641476D01*
X10170524Y-10641476D01*
X10151476Y-10631952D01*
X10141952Y-10622429D01*
X10132429Y-10603381D01*
X10132429Y-10546238D01*
X10141952Y-10527190D01*
X10151476Y-10517667D01*
X10170524Y-10508143D01*
X10208619Y-10508143D01*
X10227667Y-10517667D01*
X10303857Y-10717667D02*
X10313381Y-10708143D01*
X10332429Y-10679571D01*
X10341952Y-10660524D01*
X10351476Y-10631952D01*
X10361000Y-10584333D01*
X10361000Y-10546238D01*
X10351476Y-10498619D01*
X10341952Y-10470048D01*
X10332429Y-10451000D01*
X10313381Y-10422429D01*
X10303857Y-10412905D01*
M02*
