%TF.GenerationSoftware,KiCad,Pcbnew,(6.0.0)*%
%TF.CreationDate,2022-01-24T17:52:30-05:00*%
%TF.ProjectId,function generator,66756e63-7469-46f6-9e20-67656e657261,rev?*%
%TF.SameCoordinates,Original*%
%TF.FileFunction,Soldermask,Bot*%
%TF.FilePolarity,Negative*%
%FSLAX46Y46*%
G04 Gerber Fmt 4.6, Leading zero omitted, Abs format (unit mm)*
G04 Created by KiCad (PCBNEW (6.0.0)) date 2022-01-24 17:52:30*
%MOMM*%
%LPD*%
G01*
G04 APERTURE LIST*
G04 Aperture macros list*
%AMRoundRect*
0 Rectangle with rounded corners*
0 $1 Rounding radius*
0 $2 $3 $4 $5 $6 $7 $8 $9 X,Y pos of 4 corners*
0 Add a 4 corners polygon primitive as box body*
4,1,4,$2,$3,$4,$5,$6,$7,$8,$9,$2,$3,0*
0 Add four circle primitives for the rounded corners*
1,1,$1+$1,$2,$3*
1,1,$1+$1,$4,$5*
1,1,$1+$1,$6,$7*
1,1,$1+$1,$8,$9*
0 Add four rect primitives between the rounded corners*
20,1,$1+$1,$2,$3,$4,$5,0*
20,1,$1+$1,$4,$5,$6,$7,0*
20,1,$1+$1,$6,$7,$8,$9,0*
20,1,$1+$1,$8,$9,$2,$3,0*%
G04 Aperture macros list end*
%ADD10C,1.600000*%
%ADD11R,1.700000X1.700000*%
%ADD12O,1.700000X1.700000*%
%ADD13R,1.500000X1.050000*%
%ADD14O,1.500000X1.050000*%
%ADD15C,1.440000*%
%ADD16C,3.200000*%
%ADD17R,1.600000X1.600000*%
%ADD18O,1.600000X1.600000*%
%ADD19R,3.500000X3.500000*%
%ADD20RoundRect,0.750000X-1.000000X0.750000X-1.000000X-0.750000X1.000000X-0.750000X1.000000X0.750000X0*%
%ADD21RoundRect,0.875000X-0.875000X0.875000X-0.875000X-0.875000X0.875000X-0.875000X0.875000X0.875000X0*%
G04 APERTURE END LIST*
D10*
%TO.C,C2*%
X93492000Y-31516000D03*
X93492000Y-34016000D03*
%TD*%
D11*
%TO.C,S1*%
X60965000Y-73137000D03*
D12*
X58425000Y-73137000D03*
X60965000Y-70597000D03*
X58425000Y-70597000D03*
X60965000Y-68057000D03*
X58425000Y-68057000D03*
%TD*%
D13*
%TO.C,Q3*%
X110490000Y-64770000D03*
D14*
X110490000Y-63500000D03*
X110490000Y-62230000D03*
%TD*%
D11*
%TO.C,J5*%
X61214000Y-55621000D03*
D12*
X61214000Y-58161000D03*
%TD*%
D10*
%TO.C,C7*%
X70846000Y-61468000D03*
X68346000Y-61468000D03*
%TD*%
D15*
%TO.C,VR4*%
X113792000Y-50292000D03*
X118872000Y-47752000D03*
X113792000Y-45212000D03*
%TD*%
D10*
%TO.C,C5*%
X69068000Y-74168000D03*
X66568000Y-74168000D03*
%TD*%
D15*
%TO.C,VR1*%
X86983000Y-45212000D03*
X81903000Y-47752000D03*
X86983000Y-50292000D03*
%TD*%
%TO.C,VR2*%
X85229000Y-66548000D03*
X90309000Y-64008000D03*
X85229000Y-61468000D03*
%TD*%
D13*
%TO.C,Q4*%
X111146000Y-72390000D03*
D14*
X111146000Y-73660000D03*
X111146000Y-74930000D03*
%TD*%
D16*
%TO.C,REF\u002A\u002A*%
X40640000Y-93980000D03*
%TD*%
D17*
%TO.C,IC2*%
X94996000Y-57150000D03*
D18*
X94996000Y-59690000D03*
X94996000Y-62230000D03*
X94996000Y-64770000D03*
X94996000Y-67310000D03*
X94996000Y-69850000D03*
X94996000Y-72390000D03*
X94996000Y-74930000D03*
X102616000Y-74930000D03*
X102616000Y-72390000D03*
X102616000Y-69850000D03*
X102616000Y-67310000D03*
X102616000Y-64770000D03*
X102616000Y-62230000D03*
X102616000Y-59690000D03*
X102616000Y-57150000D03*
%TD*%
D10*
%TO.C,C3*%
X80518000Y-63734000D03*
X80518000Y-61234000D03*
%TD*%
D11*
%TO.C,S2*%
X105156000Y-45481000D03*
D12*
X105156000Y-48021000D03*
X105156000Y-50561000D03*
%TD*%
D10*
%TO.C,C6*%
X69068000Y-67310000D03*
X66568000Y-67310000D03*
%TD*%
D16*
%TO.C,REF\u002A\u002A*%
X129540000Y-27940000D03*
%TD*%
D11*
%TO.C,J3*%
X117348000Y-82545000D03*
D12*
X117348000Y-85085000D03*
%TD*%
D10*
%TO.C,C4*%
X100096000Y-80010000D03*
X102596000Y-80010000D03*
%TD*%
D19*
%TO.C,J1*%
X84269500Y-36988000D03*
D20*
X84269500Y-30988000D03*
D21*
X79569500Y-33988000D03*
%TD*%
D15*
%TO.C,VR3*%
X80403000Y-80518000D03*
X85483000Y-77978000D03*
X80403000Y-75438000D03*
%TD*%
%TO.C,VR5*%
X99822000Y-50407000D03*
X97282000Y-45327000D03*
X94742000Y-50407000D03*
%TD*%
D17*
%TO.C,IC4*%
X112273000Y-85100000D03*
D18*
X109733000Y-85100000D03*
X107193000Y-85100000D03*
X104653000Y-85100000D03*
X102113000Y-85100000D03*
X99573000Y-85100000D03*
X97033000Y-85100000D03*
X97033000Y-92720000D03*
X99573000Y-92720000D03*
X102113000Y-92720000D03*
X104653000Y-92720000D03*
X107193000Y-92720000D03*
X109733000Y-92720000D03*
X112273000Y-92720000D03*
%TD*%
D10*
%TO.C,C8*%
X63226000Y-45212000D03*
X60726000Y-45212000D03*
%TD*%
%TO.C,C10*%
X112776000Y-33802000D03*
X112776000Y-36302000D03*
%TD*%
D16*
%TO.C,REF\u002A\u002A*%
X40640000Y-27940000D03*
%TD*%
D13*
%TO.C,Q1*%
X75036000Y-53086000D03*
D14*
X75036000Y-51816000D03*
X75036000Y-50546000D03*
%TD*%
D17*
%TO.C,D1*%
X107590000Y-67818000D03*
D18*
X115210000Y-67818000D03*
%TD*%
D16*
%TO.C,REF\u002A\u002A*%
X129540000Y-93980000D03*
%TD*%
D11*
%TO.C,J4*%
X119888000Y-59431000D03*
D12*
X119888000Y-61971000D03*
%TD*%
D11*
%TO.C,J2*%
X117348000Y-75433000D03*
D12*
X117348000Y-77973000D03*
%TD*%
D13*
%TO.C,Q2*%
X67162000Y-51816000D03*
D14*
X67162000Y-50546000D03*
X67162000Y-49276000D03*
%TD*%
M02*
