M48
; DRILL file {KiCad (6.0.0)} date Mon Jan 24 17:52:31 2022
; FORMAT={-:-/ absolute / metric / decimal}
; #@! TF.CreationDate,2022-01-24T17:52:31-05:00
; #@! TF.GenerationSoftware,Kicad,Pcbnew,(6.0.0)
; #@! TF.FileFunction,Plated,1,2,PTH
FMAT,2
METRIC
; #@! TA.AperFunction,Plated,PTH,ViaDrill
T1C0.400
; #@! TA.AperFunction,Plated,PTH,ComponentDrill
T2C0.750
; #@! TA.AperFunction,Plated,PTH,ComponentDrill
T3C0.800
; #@! TA.AperFunction,Plated,PTH,ComponentDrill
T4C1.000
%
G90
G05
T1
X64.262Y-53.594
X66.04Y-58.42
X76.2Y-66.04
X83.82Y-55.88
T2
X67.162Y-49.276
X67.162Y-50.546
X67.162Y-51.816
X75.036Y-50.546
X75.036Y-51.816
X75.036Y-53.086
X110.49Y-62.23
X110.49Y-63.5
X110.49Y-64.77
X111.146Y-72.39
X111.146Y-73.66
X111.146Y-74.93
T3
X60.726Y-45.212
X63.226Y-45.212
X66.568Y-67.31
X66.568Y-74.168
X68.346Y-61.468
X69.068Y-67.31
X69.068Y-74.168
X70.846Y-61.468
X80.403Y-75.438
X80.403Y-80.518
X80.518Y-61.234
X80.518Y-63.734
X81.903Y-47.752
X85.229Y-61.468
X85.229Y-66.548
X85.483Y-77.978
X86.983Y-45.212
X86.983Y-50.292
X90.309Y-64.008
X93.492Y-31.516
X93.492Y-34.016
X94.742Y-50.407
X94.996Y-57.15
X94.996Y-59.69
X94.996Y-62.23
X94.996Y-64.77
X94.996Y-67.31
X94.996Y-69.85
X94.996Y-72.39
X94.996Y-74.93
X97.033Y-85.1
X97.033Y-92.72
X97.282Y-45.327
X99.573Y-85.1
X99.573Y-92.72
X99.822Y-50.407
X100.096Y-80.01
X102.113Y-85.1
X102.113Y-92.72
X102.596Y-80.01
X102.616Y-57.15
X102.616Y-59.69
X102.616Y-62.23
X102.616Y-64.77
X102.616Y-67.31
X102.616Y-69.85
X102.616Y-72.39
X102.616Y-74.93
X104.653Y-85.1
X104.653Y-92.72
X107.193Y-85.1
X107.193Y-92.72
X107.59Y-67.818
X109.733Y-85.1
X109.733Y-92.72
X112.273Y-85.1
X112.273Y-92.72
X112.776Y-33.802
X112.776Y-36.302
X113.792Y-45.212
X113.792Y-50.292
X115.21Y-67.818
X118.872Y-47.752
T4
X58.425Y-68.057
X58.425Y-70.597
X58.425Y-73.137
X60.965Y-68.057
X60.965Y-70.597
X60.965Y-73.137
X61.214Y-55.621
X61.214Y-58.161
X105.156Y-45.481
X105.156Y-48.021
X105.156Y-50.561
X117.348Y-75.433
X117.348Y-77.973
X117.348Y-82.545
X117.348Y-85.085
X119.888Y-59.431
X119.888Y-61.971
T4
X79.569Y-32.988G85X79.569Y-34.988
G05
X85.269Y-30.988G85X83.269Y-30.988
G05
X85.269Y-36.988G85X83.269Y-36.988
G05
T0
M30
